<?xml version="1.0" encoding="UTF-8"?>
<svg width="175px" height="100px" viewBox="0 0 175 100" version="1.1" xmlns="http://www.w3.org/2000/svg" xmlns:xlink="http://www.w3.org/1999/xlink">
    <title>undraw_progressive_app_m9ms</title>
    <g id="Page-1" stroke="none" stroke-width="1" fill="none" fill-rule="evenodd">
        <g id="Infosoft-Global-option-2-Copy" transform="translate(-228.000000, -629.000000)" fill-rule="nonzero">
            <g id="Group-30" transform="translate(200.000000, 601.000000)">
                <g id="undraw_progressive_app_m9ms" transform="translate(28.000000, 28.000000)">
                    <ellipse id="Oval" fill="#F2F2F2" cx="38" cy="79.5" rx="9" ry="9.5"></ellipse>
                    <ellipse id="Oval" fill="#FFD74E" cx="39" cy="78.5" rx="9" ry="9.5"></ellipse>
                    <rect id="Rectangle" fill="#3F3D56" x="47" y="68" width="113" height="1"></rect>
                    <path d="M105.286835,2.82432449 L65.1764706,2.82432449 L65.1764706,2 L46.9888737,2 L46.9888737,2.82432449 L6.71316499,2.82432449 C5.99358891,2.82432368 5.30348454,3.10934912 4.79466727,3.61669836 C4.28585,4.1240476 4,4.81216113 4,5.52966151 L4,60.2946522 C4,61.7887716 5.21472314,63 6.71316499,63 L105.286835,63 C106.785277,63 108,61.7887716 108,60.2946522 L108,5.52966151 C108,4.81216113 107.71415,4.1240476 107.205333,3.61669836 C106.696515,3.10934912 106.006411,2.82432368 105.286835,2.82432449 L105.286835,2.82432449 Z" id="Path" fill="#3F3D56"></path>
                    <rect id="Rectangle" fill="#FFD74E" x="8" y="8" width="96" height="54"></rect>
                    <circle id="Oval" fill="#FFD74E" cx="56" cy="5" r="1"></circle>
                    <polygon id="Path" fill="#000000" opacity="0.1" points="76 62 7 62 7 8"></polygon>
                    <ellipse id="Oval" fill="#F2F2F2" cx="22" cy="48.5" rx="9" ry="9.5"></ellipse>
                    <rect id="Rectangle" fill="#3F3D56" x="78" y="36" width="9" height="2"></rect>
                    <rect id="Rectangle" fill="#3F3D56" x="67" y="22" width="31" height="1"></rect>
                    <rect id="Rectangle" fill="#3F3D56" x="67" y="25" width="31" height="1"></rect>
                    <rect id="Rectangle" fill="#3F3D56" x="67" y="28" width="31" height="1"></rect>
                    <rect id="Rectangle" fill="#3F3D56" x="67" y="29" width="31" height="1"></rect>
                    <rect id="Rectangle" fill="#3F3D56" x="67" y="32" width="31" height="1"></rect>
                    <rect id="Rectangle" fill="#F2F2F2" x="94" y="9" width="4" height="4"></rect>
                    <path d="M99,14 L95,14 L95,10 L99,10 L99,14 Z M95.1739193,13.8260928 L98.8260874,13.8260928 L98.8260874,10.1739193 L95.1739193,10.1739193 L95.1739193,13.8260928 Z" id="Shape" fill="#3F3D56"></path>
                    <path d="M110.765957,61.7450065 L101.333334,61.7450065 L101.333334,61.1232756 C101.333335,61.0905806 101.319138,61.0592243 101.293867,61.0361054 C101.268596,61.0129865 101.23432,61 101.198581,61 L97.9645397,61 C97.9288007,61 97.8945251,61.0129865 97.8692539,61.0361054 C97.8439826,61.0592243 97.8297859,61.0905806 97.8297871,61.1232756 L97.8297871,61.7450065 L95.8085101,61.7450065 L95.8085101,61.1232756 C95.8085117,61.0905807 95.7943153,61.0592244 95.7690443,61.0361054 C95.7437733,61.0129865 95.7094979,61 95.673759,61 L92.4397161,61 C92.4039774,61 92.3697022,61.012987 92.3444313,61.0361059 C92.3191603,61.0592247 92.3049638,61.0905808 92.304965,61.1232756 L92.304965,61.7450065 L90.283688,61.7450065 L90.283688,61.1232756 C90.2836893,61.0905808 90.2694927,61.0592247 90.2442218,61.0361059 C90.2189508,61.012987 90.1846757,61 90.1489369,61 L86.9149002,61 C86.8791612,61 86.8448857,61.0129865 86.8196144,61.0361054 C86.7943431,61.0592243 86.7801464,61.0905806 86.7801476,61.1232756 L86.7801476,61.7450065 L84.758866,61.7450065 L84.758866,61.1232756 C84.7588672,61.0905806 84.7446705,61.0592243 84.7193992,61.0361054 C84.6941279,61.0129865 84.6598523,61 84.6241134,61 L81.3900705,61 C81.3543317,61 81.3200566,61.012987 81.2947856,61.0361059 C81.2695147,61.0592247 81.2553182,61.0905808 81.2553194,61.1232756 L81.2553194,61.7450065 L79.2340424,61.7450065 L79.2340424,61.1232756 C79.2340436,61.0905808 79.2198471,61.0592247 79.1945761,61.0361059 C79.1693052,61.012987 79.13503,61 79.0992913,61 L75.8652484,61 C75.8295096,61 75.7952341,61.0129865 75.7699631,61.0361054 C75.7446921,61.0592244 75.7304957,61.0905807 75.7304973,61.1232756 L75.7304973,61.7450065 L73.7092203,61.7450065 L73.7092203,61.1232756 C73.7092216,61.0905806 73.6950248,61.0592243 73.6697535,61.0361054 C73.6444823,61.0129865 73.6102067,61 73.5744677,61 L70.3404264,61 C70.3046874,61 70.2704118,61.0129865 70.2451405,61.0361054 C70.2198692,61.0592243 70.2056725,61.0905806 70.2056737,61.1232756 L70.2056737,61.7450065 L68.1843921,61.7450065 L68.1843921,61.1232756 C68.1843933,61.0905808 68.1701968,61.0592247 68.1449259,61.0361059 C68.1196549,61.012987 68.0853798,61 68.049641,61 L42.7163115,61 C42.6805727,61 42.6462976,61.012987 42.6210266,61.0361059 C42.5957557,61.0592247 42.5815592,61.0905808 42.5815604,61.1232756 L42.5815604,61.7450065 L40.5602834,61.7450065 L40.5602834,61.1232756 C40.5602846,61.0905808 40.5460881,61.0592247 40.5208171,61.0361059 C40.4955462,61.012987 40.461271,61 40.4255323,61 L37.1914894,61 C37.1557506,61 37.1214751,61.0129865 37.0962041,61.0361054 C37.0709331,61.0592244 37.0567367,61.0905807 37.0567383,61.1232756 L37.0567383,61.7450065 L35.0354613,61.7450065 L35.0354613,61.1232756 C35.0354626,61.0905806 35.0212658,61.0592243 34.9959945,61.0361054 C34.9707233,61.0129865 34.9364477,61 34.9007087,61 L31.6666674,61 C31.6309284,61 31.5966528,61.0129865 31.5713815,61.0361054 C31.5461102,61.0592243 31.5319135,61.0905806 31.5319147,61.1232756 L31.5319147,61.7450065 L29.5106377,61.7450065 L29.5106377,61.1232756 C29.5106394,61.0905807 29.496443,61.0592244 29.471172,61.0361054 C29.4459009,61.0129865 29.4116255,61 29.3758866,61 L26.1418438,61 C26.106105,61 26.0718299,61.012987 26.0465589,61.0361059 C26.021288,61.0592247 26.0070914,61.0905808 26.0070927,61.1232756 L26.0070927,61.7450065 L23.9858218,61.7450065 L23.9858218,61.1232756 C23.9858231,61.0905808 23.9716266,61.0592247 23.9463556,61.0361059 C23.9210847,61.012987 23.8868095,61 23.8510708,61 L20.6170217,61 C20.5812827,61 20.5470071,61.0129865 20.5217359,61.0361054 C20.4964646,61.0592243 20.4822679,61.0905806 20.4822691,61.1232756 L20.4822691,61.7450065 L18.4609936,61.7450065 L18.4609936,61.1232756 C18.4609948,61.0905806 18.4467981,61.0592243 18.4215268,61.0361054 C18.3962556,61.0129865 18.36198,61 18.326241,61 L15.0921981,61 C15.0564594,61 15.0221842,61.012987 14.9969133,61.0361059 C14.9716423,61.0592247 14.9574458,61.0905808 14.957447,61.1232756 L14.957447,61.7450065 L12.93617,61.7450065 L12.93617,61.1232756 C12.9361713,61.0905808 12.9219747,61.0592247 12.8967038,61.0361059 C12.8714328,61.012987 12.8371577,61 12.8014189,61 L9.56737605,61 C9.5316372,61 9.49736179,61.0129865 9.47209075,61.0361054 C9.44681971,61.0592244 9.43262334,61.0905807 9.43262497,61.1232756 L9.43262497,61.7450065 L3.23404289,61.7450065 C1.44793103,61.745008 0,63.0696161 0,64.7036035 L0,66.0414114 C0,67.6753962 1.44793393,69 3.23404289,69 L110.765957,69 C112.552066,69 114,67.6753965 114,66.0414114 L114,64.7036035 C114,63.0696158 112.552069,61.7450073 110.765957,61.7450065 L110.765957,61.7450065 Z" id="Path" fill="#3F3D56"></path>
                    <path d="M25.5,54 C19.1487254,54 14,48.8512746 14,42.5 C14,36.1487254 19.1487254,31 25.5,31 C31.8512746,31 37,36.1487254 37,42.5 C36.9928169,48.8482969 31.8482969,53.9928169 25.5,54 Z M25.5,31.3026316 C19.3158642,31.3026316 14.3026316,36.3158642 14.3026316,42.5 C14.3026316,48.6841358 19.3158642,53.6973684 25.5,53.6973684 C31.6841358,53.6973684 36.6973684,48.6841358 36.6973684,42.5 C36.6903763,36.3187627 31.6812373,31.3096237 25.5,31.3026316 Z" id="Shape" fill="#3F3D56"></path>
                    <rect id="Rectangle" fill="#3F3D56" x="90" y="4" width="39" height="1"></rect>
                    <rect id="Rectangle" fill="#3F3D56" x="62" y="85" width="113" height="1"></rect>
                    <rect id="Rectangle" fill="#3F3D56" x="30" y="99" width="39" height="1"></rect>
                    <rect id="Rectangle" fill="#FFD74E" x="72" y="84" width="4" height="4"></rect>
                    <path d="M79,86 L74,86 L74,81 L79,81 L79,86 Z M74.2173912,85.7826088 L78.7826088,85.7826088 L78.7826088,81.2173912 L74.2173912,81.2173912 L74.2173912,85.7826088 Z" id="Shape" fill="#3F3D56"></path>
                    <rect id="Rectangle" fill="#FFD74E" x="122" y="4" width="4" height="4"></rect>
                    <path d="M129,5 L124,5 L124,0 L129,0 L129,5 Z M124.217391,4.78260882 L128.782609,4.78260882 L128.782609,0.217391176 L124.217391,0.217391176 L124.217391,4.78260882 Z" id="Shape" fill="#3F3D56"></path>
                    <rect id="Rectangle" fill="#FFD74E" x="165" y="84" width="4" height="4"></rect>
                    <path d="M172,86 L167,86 L167,81 L172,81 L172,86 Z M167.217391,85.7826088 L171.782609,85.7826088 L171.782609,81.2173912 L167.217391,81.2173912 L167.217391,85.7826088 Z" id="Shape" fill="#3F3D56"></path>
                    <path d="M162,35.6840707 L161.636361,35.6840707 L161.636361,25.7497284 C161.636362,24.2248031 161.028919,22.7623347 159.947662,21.6840508 C158.866405,20.605767 157.399907,20 155.870781,20 L134.765583,20 C133.236456,20 131.769957,20.6057653 130.688699,21.6840493 C129.607442,22.7623333 129,24.2248025 129,25.7497284 L129,80.2502701 C129,81.7751961 129.607442,83.2376655 130.688699,84.3159497 C131.769957,85.394234 133.236456,86 134.765583,86 L155.870784,86 C157.39991,86 158.866409,85.3942328 159.947666,84.3159487 C161.028922,83.2376645 161.636365,81.7751956 161.636364,80.2502701 L161.636364,42.7554976 L162,42.7554976 L162,35.6840707 Z" id="Path" fill="#3F3D56"></path>
                    <path d="M161,25.2925791 L161,79.7058966 C161.000405,82.077045 159.061159,84 156.668556,84 L135.331419,84 C132.938822,84 130.999585,82.0770397 131,79.7058966 L131,25.2925791 C131,22.9219577 132.939348,21 135.331419,21 L137.920119,21 C137.661413,21.6288935 137.735566,22.3441505 138.117902,22.9077722 C138.500239,23.4713939 139.14059,23.8094236 139.825882,23.8093832 L151.991079,23.8093832 C152.676373,23.8094301 153.316729,23.4714013 153.699065,22.9077771 C154.081402,22.3441529 154.155549,21.6288921 153.896834,21 L156.668573,21 C159.060644,21 161,22.9219575 161,25.2925791 Z" id="Path" fill="#FFD74E"></path>
                    <rect id="Rectangle" fill="#3F3D56" x="143" y="57" width="6" height="2"></rect>
                    <rect id="Rectangle" fill="#3F3D56" x="134" y="43" width="22" height="1"></rect>
                    <rect id="Rectangle" fill="#3F3D56" x="134" y="45" width="22" height="1"></rect>
                    <rect id="Rectangle" fill="#3F3D56" x="134" y="48" width="22" height="1"></rect>
                    <rect id="Rectangle" fill="#3F3D56" x="134" y="50" width="22" height="1"></rect>
                    <rect id="Rectangle" fill="#3F3D56" x="134" y="53" width="22" height="1"></rect>
                    <rect id="Rectangle" fill="#F2F2F2" x="142" y="32" width="4" height="4"></rect>
                    <path d="M144,33 L144,37 L148,37 L148,33 L144,33 Z M147.826496,36.8264963 L144.173504,36.8264963 L144.173504,33.1735037 L147.826496,33.1735037 L147.826496,36.8264963 Z" id="Shape" fill="#3F3D56"></path>
                    <path d="M161,74.7728469 L161,80.6539613 C161.000405,83.0537877 159.061159,84.999568 156.668556,85 L135.331419,85 C132.938822,84.9995646 130.999585,83.0537823 131,80.6539613 L131,51 L148.976313,65.2445775 L149.283942,65.4883383 L152.627871,68.1373083 L152.940115,68.3856974 L161,74.7728469 Z" id="Path" fill="#000000" opacity="0.1"></path>
                    <circle id="Oval" fill="#F2F2F2" cx="144.5" cy="76.5" r="6.5"></circle>
                    <path d="M49.5,100 C42.0441559,100 36,93.9558441 36,86.5 C36,79.0441559 42.0441559,73 49.5,73 C56.9558441,73 63,79.0441559 63,86.5 C62.99157,93.9523495 56.9523495,99.99157 49.5,100 L49.5,100 Z M49.5,73.3103448 C42.2155546,73.3103448 36.3103448,79.2155546 36.3103448,86.5 C36.3103448,93.7844454 42.2155546,99.6896552 49.5,99.6896552 C56.7844454,99.6896552 62.6896552,93.7844454 62.6896552,86.5 C62.681421,79.218968 56.781032,73.318579 49.5,73.3103448 Z" id="Shape" fill="#3F3D56"></path>
                    <path d="M145.5,81 C140.80558,81 137,77.1944204 137,72.5 C137,67.8055796 140.80558,64 145.5,64 C150.19442,64 154,67.8055796 154,72.5 C153.9947,77.1922233 150.192223,80.9947 145.5,81 Z M145.5,64.3090909 C140.976286,64.3090909 137.309091,67.9762858 137.309091,72.5 C137.309091,77.0237142 140.976286,80.6909091 145.5,80.6909091 C150.023714,80.6909091 153.690909,77.0237142 153.690909,72.5 C153.68583,67.9783911 150.021609,64.3141696 145.5,64.3090909 Z" id="Shape" fill="#3F3D56"></path>
                </g>
            </g>
        </g>
    </g>
</svg>