<?xml version="1.0" encoding="UTF-8"?>
<svg width="175px" height="112px" viewBox="0 0 175 112" version="1.1" xmlns="http://www.w3.org/2000/svg" xmlns:xlink="http://www.w3.org/1999/xlink">
    <title>undraw_destinations_fpv7</title>
    <g id="Page-1" stroke="none" stroke-width="1" fill="none" fill-rule="evenodd">
        <g id="Infosoft-Global-option-2-Copy" transform="translate(-498.000000, -623.000000)" fill-rule="nonzero">
            <g id="Group-31" transform="translate(470.000000, 601.000000)">
                <g id="undraw_destinations_fpv7" transform="translate(28.000000, 22.000000)">
                    <path d="M172.47072,45.0947897 C165.965664,19.3512664 143.488648,0.768041119 117.105493,0.0226849754 C103.157512,-0.371362658 88.4803412,4.28424968 77.7942786,20.575944 C58.6917891,49.6990977 78.9681719,69.8240911 93.1043301,79.3870873 C99.9338086,84.0164886 106.087549,89.5829457 111.387312,95.9252295 C120.935825,107.328796 139.304991,121.499331 161.181836,99.2962823 C177.038203,83.2034842 176.803729,62.2425199 172.47072,45.0947897 Z" id="Path" fill="#F2F2F2"></path>
                    <path d="M23.6641592,65 C23.4368689,64.4572413 23.213437,63.9001291 23,63.3439709 L23.3447453,63 C23.5553128,63.5491399 23.7757758,64.0989169 24,64.6343468 L23.6641592,65 Z" id="Path" fill="#3F3D56"></path>
                    <path d="M24.4198435,61 C24.1416947,60.4293047 23.8831723,59.8397814 23.6515231,59.2477326 L23.9290106,59.1289388 C24.1576624,59.713029 24.4126717,60.2946691 24.6870838,60.857633 L24.4198435,61 Z M23.0247991,57.4349178 C22.8408161,56.8245755 22.6790759,56.198465 22.5439931,55.5741148 L22.8365621,55.5049206 C22.9697422,56.1209281 23.1292781,56.7385424 23.3107796,57.3406189 L23.0247991,57.4349178 Z M22.2123947,53.678101 C22.1273906,53.0454083 22.0664753,52.4002392 22.0311857,51.7603513 L22.3306372,51.7422866 C22.3653421,52.3736782 22.4255242,53.0102758 22.5093557,53.6344723 L22.2123947,53.678101 Z M22.2997409,49.8406092 L22,49.8332619 C22.0144233,49.1924554 22.0542533,48.5455244 22.118316,47.9105351 L22.4165964,47.9434542 C22.3533344,48.5700177 22.3140172,49.2082989 22.2997409,49.8406092 L22.2997409,49.8406092 Z M22.681706,46.0627446 L22.3870857,46.0042663 C22.5013021,45.3755536 22.6420964,44.7441604 22.8055834,44.1276183 L23.0946377,44.2113549 C22.9332739,44.8196312 22.794384,45.4425266 22.681706,46.0627446 L22.681706,46.0627446 Z M23.6529836,42.402064 L23.3716859,42.2935268 C23.5837178,41.6929818 23.8226213,41.0941204 24.0817301,40.5136278 L24.3535062,40.6461975 C24.0978402,41.2188835 23.8621605,41.8096312 23.6529836,42.402064 L23.6529836,42.402064 Z M64.7236835,41.4329701 C64.4892483,40.8517893 64.2283808,40.2732107 63.9482587,39.7132314 L64.214031,39.5679566 C64.4979602,40.1355888 64.7624159,40.7220507 65,41.3111148 L64.7236835,41.4329701 Z M25.1904372,38.9570766 L24.9300824,38.8015452 C25.2337804,38.2461541 25.5636169,37.6968186 25.9104377,37.1686814 L26.1576093,37.3461103 C25.8154772,37.8672013 25.4900342,38.4091927 25.1904372,38.9570766 Z M63.0396538,38.0661325 C62.7166998,37.5328678 62.3684125,37.0068734 62.0044589,36.5028455 L62.2438738,36.313942 C62.6127396,36.8248563 62.9657112,37.357969 63.2929791,37.8984304 L63.0396538,38.0661325 Z M27.2481625,35.8237682 L27.0156301,35.6256788 C27.4025013,35.1294589 27.8136787,34.6440318 28.2379628,34.1827155 L28.4540957,34.3999419 C28.035526,34.8551336 27.6297586,35.3341306 27.2481625,35.8237682 Z M60.8501459,35.033398 C60.4478993,34.562054 60.0220782,34.1024981 59.5844684,33.6674355 L59.7911562,33.4402597 C60.2346229,33.8812179 60.6662273,34.346972 61.0738915,34.8245926 L60.8501459,35.033398 Z M29.7673599,33.0841934 L29.568946,32.8492142 C30.0277881,32.4257861 30.5091804,32.0169773 30.9997255,31.6341885 L31.1791037,31.8853983 C30.6950738,32.2631285 30.2201246,32.6664258 29.7673599,33.0841934 Z M58.2161398,32.4143695 C57.7457295,32.0180369 57.2537899,31.6372422 56.7540983,31.2827011 L56.922487,31.0232255 C57.4289922,31.3826699 57.9275173,31.7685107 58.4042958,32.1702012 L58.2161398,32.4143695 Z M32.6797277,30.8118994 L32.5207046,30.5461456 C33.0399491,30.2066094 33.5786686,29.8858213 34.1220019,29.5926664 L34.2595019,29.8712789 C33.7234889,30.1604522 33.1920178,30.476953 32.6797277,30.8118994 Z M55.2080798,30.2803935 C54.6812195,29.9695579 54.1362038,29.678317 53.5881847,29.4147798 L53.7135301,29.1298907 C54.2690165,29.3970975 54.8214275,29.6923201 55.3554627,30.0072878 L55.2080798,30.2803935 Z M35.9078746,29.0702665 L35.7927795,28.7807859 C36.3579239,28.5353934 36.9396282,28.3118152 37.5217659,28.1163279 L37.6134306,28.4148408 C37.039201,28.6076522 36.4653373,28.8281689 35.9078746,29.0702665 Z M51.905326,28.6920754 C51.3377585,28.4766909 50.7542308,28.2834954 50.1709955,28.1179362 L50.2496299,27.8154432 C50.8407718,27.9832221 51.4322796,28.1790167 52.0076817,28.397389 L51.905326,28.6920754 Z M39.3663573,27.9091339 L39.2987064,27.6037284 C39.8942417,27.4593722 40.5036875,27.3392789 41.1099859,27.246662 L41.1533291,27.5568846 C40.5551592,27.6482788 39.953986,27.7667654 39.3663573,27.9091339 L39.3663573,27.9091339 Z M48.3971289,27.6961917 C47.8043766,27.5819909 47.1985175,27.4921314 46.5963936,27.4292137 L46.6262658,27.1172306 C47.2365167,27.1810669 47.8506483,27.2720739 48.4514557,27.3878815 L48.3971289,27.6961917 Z M42.961974,27.3597937 L42.9430809,27.0468889 C43.5530395,27.0066274 44.1749322,26.9923139 44.7860603,27.0038716 L44.7806428,27.3173862 C44.1771319,27.3058316 43.563951,27.3201451 42.961974,27.3597937 L42.961974,27.3597937 Z" id="Shape" fill="#3F3D56"></path>
                    <path d="M64.4734165,45 C64.3268778,44.3978989 64.1676479,43.7910083 64,43.1961672 L64.5201708,43 C64.6900867,43.603028 64.85159,44.2182574 65,44.8285455 L64.4734165,45 Z" id="Path" fill="#3F3D56"></path>
                    <path d="M63.9505703,27 L63,27 C63,26.3367301 63.016711,25.6637537 63.0499049,25 L64,25.0229787 C63.9672814,25.6792861 63.9505703,26.3443355 63.9505703,27 Z" id="Path" fill="#3F3D56"></path>
                    <path d="M63.3101895,23 L63,22.9679652 C63.0668497,22.3591 63.1572263,21.7452903 63.2686944,21.1435842 L63.5756857,21.1970224 C63.4655119,21.7916434 63.3762018,22.398294 63.3101895,23 Z M63.9741188,19.4172229 L63.6720003,19.3425265 C63.8280883,18.7491602 64.0085345,18.154246 64.2081697,17.5742396 L64.5040446,17.6698981 C64.3066923,18.2431141 64.1284526,18.8309432 63.9741188,19.4172229 L63.9741188,19.4172229 Z M113.710673,16.2275614 C113.477537,15.6665247 113.220339,15.1067441 112.94624,14.5639394 L113.22643,14.4310793 C113.503727,14.9803796 113.76397,15.5468038 114,16.1146309 L113.710673,16.2275614 Z M65.1631774,15.9625805 L64.8752207,15.8464029 C65.1177232,15.2814541 65.3847414,14.7174651 65.669043,14.1700846 L65.947558,14.3060436 C65.6666822,14.8470041 65.4027858,15.4042708 65.1631774,15.9625805 L65.1631774,15.9625805 Z M112.06029,12.9576723 C111.746751,12.43524 111.409609,11.9168664 111.057999,11.4170196 L111.315654,11.2466572 C111.671525,11.7524825 112.012627,12.2769812 112.329821,12.8056173 L112.06029,12.9576723 Z M66.8527673,12.7087042 L66.5849975,12.5537016 C66.9082074,12.0287584 67.25578,11.5078015 67.6178918,11.0053713 L67.8735658,11.1785318 C67.5156362,11.6750575 67.1721739,12.1898878 66.8527719,12.7087042 L66.8527673,12.7087042 Z M109.944543,9.9496561 C109.556691,9.47512634 109.146761,9.00856749 108.726019,8.56289807 L108.955958,8.35873672 C109.381725,8.80972108 109.796682,9.28174756 110.189101,9.76188099 L109.944543,9.9496561 Z M69.0044525,9.72320403 L68.7621792,9.53277144 C69.1600041,9.05713515 69.5803659,8.58961792 70.0116912,8.1432093 L70.2393521,8.34987998 C69.8130447,8.79112331 69.3975558,9.25317746 69.0044525,9.72320403 Z M107.408671,7.26375653 C106.955342,6.84761106 106.481149,6.44224211 105.999044,6.05879505 L106.196701,5.82510974 C106.684598,6.21298593 107.164425,6.62322691 107.623083,7.0442429 L107.408671,7.26375653 Z M71.5718496,7.06550117 L71.3598802,6.84362485 C71.8229549,6.42799636 72.3074266,6.02314439 72.7999677,5.64043501 L72.9950388,5.87633488 C72.5082796,6.25461211 72.0294433,6.65466612 71.5718496,7.06550117 L71.5718496,7.06550117 Z M104.504435,4.95428998 C103.994916,4.60487006 103.466055,4.26903076 102.932328,3.95607174 L103.093742,3.69743975 C103.633718,4.01408719 104.168974,4.35391269 104.684432,4.70746696 L104.504435,4.95428998 Z M74.5017436,4.78865896 L74.3244925,4.53991616 C74.8436825,4.19241452 75.3825168,3.85871571 75.9261475,3.54797427 L76.0845153,3.80837791 C75.5472809,4.11550047 75.0147665,4.44529318 74.5017436,4.78865896 L74.5017436,4.78865896 Z M101.290469,3.06967749 C100.734504,2.79436297 100.161483,2.5354347 99.5870929,2.29990519 L99.7086092,2.02149029 C100.289852,2.25975135 100.869725,2.52185408 101.43239,2.8004156 L101.290469,3.06967749 Z M77.7354324,2.94073411 L77.5967074,2.66999837 C78.1616494,2.39807902 78.7439654,2.14261997 79.3275678,1.91078038 L79.4458875,2.19052402 C78.8691367,2.41962299 78.2936802,2.67205572 77.7354324,2.94073411 L77.7354324,2.94073411 Z M97.8308702,1.65118396 C97.2409478,1.45647191 96.6353387,1.28006437 96.0309459,1.12690594 L96.1098257,0.834467508 C96.721524,0.989396072 97.3344416,1.16794561 97.9313684,1.3649463 L97.8308702,1.65118396 Z M81.207047,1.56172628 L81.1099013,1.27445465 C81.7092653,1.08402207 82.3238577,0.912264352 82.9366973,0.763971912 L83.0122277,1.05729617 C82.4066186,1.20381092 81.79926,1.37350221 81.2070532,1.56172628 L81.207047,1.56172628 Z M94.1970737,0.730170004 C93.583852,0.61981987 92.9586017,0.52970009 92.3386749,0.462236856 L92.3733947,0.161827513 C93.0007782,0.230102501 93.6334898,0.321257758 94.2540216,0.432865581 L94.1970737,0.730170004 Z M84.8502088,0.680421745 L84.7967584,0.382521733 C85.4180511,0.277636199 86.0516017,0.193263696 86.6800502,0.131638437 L86.711419,0.432490693 C86.0904381,0.493308733 85.4641977,0.576713782 84.850215,0.680421745 L84.8502088,0.680421745 Z M90.4652099,0.32362046 C89.8407206,0.299041102 89.2058758,0.295794087 88.5861065,0.313729762 L88.5766664,0.0115517939 C89.203897,-0.00660458219 89.8460503,-0.00343163794 90.4780026,0.0215906328 L90.4652099,0.32362046 Z" id="Shape" fill="#3F3D56"></path>
                    <path d="M113.471314,20 C113.324396,19.3978065 113.165685,18.7898957 113,18.1928024 L113.522789,18 C113.690618,18.6040476 113.851207,19.2192195 114,19.8285192 L113.471314,20 Z" id="Path" fill="#3F3D56"></path>
                    <ellipse id="Oval" fill="#FFD74E" cx="23.5" cy="67.5" rx="5.5" ry="1"></ellipse>
                    <ellipse id="Oval" fill="#FFD74E" cx="64.5" cy="49.5" rx="5.5" ry="1"></ellipse>
                    <ellipse id="Oval" fill="#FFD74E" cx="115.5" cy="28.5" rx="5.5" ry="1"></ellipse>
                    <polygon id="Rectangle" fill="#3F3D56" transform="translate(105.815193, 35.897213) rotate(-45.000000) translate(-105.815193, -35.897213) " points="94.8097788 35.8273782 116.823022 35.6562947 116.820607 35.9670475 94.8073637 36.138131"></polygon>
                    <rect id="Rectangle" fill="#3F3D56" x="67" y="45" width="27" height="1"></rect>
                    <polygon id="Rectangle" fill="#3F3D56" transform="translate(55.688988, 55.247417) rotate(-45.000000) translate(-55.688988, -55.247417) " points="45.3515408 55.172391 66.02885 55.0116901 66.0264349 55.3224429 45.3491257 55.4831438"></polygon>
                    <rect id="Rectangle" fill="#3F3D56" x="27" y="63" width="18" height="1"></rect>
                    <polygon id="Rectangle" fill="#3F3D56" transform="translate(13.389818, 75.385939) rotate(-45.000000) translate(-13.389818, -75.385939) " points="1.11505238 75.3259699 25.6669996 75.1351559 25.6645845 75.4459087 1.11263725 75.6367227"></polygon>
                    <path d="M24.5001028,68 C23.488956,68 22.5773584,67.3909474 22.1903906,66.4567774 C21.8034228,65.5226073 22.0172925,64.4473177 22.7322715,63.7323193 C23.4472506,63.0173209 24.5225344,62.8034222 25.4567149,63.1903647 C26.3908954,63.5773073 27,64.4888884 27,65.5000352 C26.9984457,66.8800569 25.8801245,67.9984084 24.5001028,68 Z M24.5001028,63.2704964 C23.5983318,63.2704964 22.7853402,63.8136628 22.4402289,64.6467829 C22.0951177,65.479903 22.2858515,66.4388789 22.9234906,67.0765366 C23.5611297,67.7141942 24.5201001,67.904956 25.3532302,67.559869 C26.1863604,67.214782 26.7295767,66.4018062 26.7295767,65.5000352 C26.7281685,64.269304 25.7308339,63.2719404 24.5001028,63.2704964 L24.5001028,63.2704964 Z" id="Shape" fill="#3F3D56"></path>
                    <path d="M46.5,68 C45.1192895,68 44,66.8807132 44,65.5 C44,64.1192895 45.1192868,63 46.5,63 C47.8807105,63 49,64.1192868 49,65.5 C48.9984768,66.8800788 47.8800815,67.9984753 46.5,68 L46.5,68 Z M46.5000014,63.2704273 C45.5982231,63.2704273 44.7852395,63.8136445 44.4401436,64.6467788 C44.0950478,65.4799132 44.2858005,66.4388925 44.923454,67.076546 C45.5611075,67.7141995 46.5200868,67.9049522 47.3532212,67.5598564 C48.1863555,67.2147605 48.7295727,66.4017769 48.7295727,65.4999986 C48.7281756,64.2692196 47.7307804,63.2718244 46.5000014,63.2704273 L46.5000014,63.2704273 Z" id="Shape" fill="#3F3D56"></path>
                    <path d="M64.4999648,49 C63.1192621,49 62,47.880691 62,46.4999883 C62,45.1192856 63.1192856,44 64.4999883,44 C65.880691,44 67,45.1192621 67,46.4999648 C66.9984545,47.8800555 65.8800555,48.9984545 64.4999648,49 Z M64.4999648,44.270427 C63.2686085,44.270427 62.2704311,45.2686774 62.2704311,46.5000338 C62.2704311,47.7313902 63.2686761,48.7295689 64.5000325,48.7295689 C65.7313888,48.7295689 66.7295689,47.7313253 66.7295689,46.4999689 C66.7281658,45.2691843 65.7307495,44.2717959 64.4999648,44.270427 L64.4999648,44.270427 Z" id="Shape" fill="#3F3D56"></path>
                    <path d="M96.4999648,49 C95.1192621,49 94,47.880691 94,46.4999883 C94,45.1192856 95.1192856,44 96.4999883,44 C97.880691,44 99,45.1192621 99,46.4999648 C98.9984605,47.8800579 97.8800579,48.9984605 96.4999648,49 L96.4999648,49 Z M96.4999648,44.270427 C95.2686085,44.270427 94.2704311,45.2686774 94.2704311,46.5000338 C94.2704311,47.7313902 95.2686761,48.7295689 96.5000325,48.7295689 C97.7313888,48.7295689 98.7295689,47.7313253 98.7295689,46.4999689 C98.7281977,45.2691711 97.7307627,44.2717639 96.4999648,44.270427 L96.4999648,44.270427 Z" id="Shape" fill="#3F3D56"></path>
                    <path d="M116.499965,30 C115.119262,30 114,28.880691 114,27.4999883 C114,26.1192856 115.119286,25 116.499988,25 C117.880691,25 119,26.1192621 119,27.4999648 C118.998446,28.8800518 117.880052,29.9984456 116.499965,30 Z M116.499965,25.270423 C115.268608,25.270423 114.270431,26.2686777 114.270431,27.5000343 C114.270431,28.7313908 115.268677,29.7295689 116.500033,29.7295689 C117.73139,29.7295689 118.729569,28.7313241 118.729569,27.4999675 C118.72814,26.2691933 117.730739,25.2718193 116.499965,25.270423 L116.499965,25.270423 Z" id="Shape" fill="#3F3D56"></path>
                    <path d="M2.50010279,89 C1.4889558,89 0.577357983,88.3909471 0.190390341,87.4567767 C-0.1965773,86.5226064 0.0172928563,85.4473165 0.732272467,84.7323184 C1.44725208,84.0173202 2.52253635,83.8034221 3.45671677,84.1903655 C4.39089718,84.5773089 5,85.4888909 5,86.5000379 C4.99844495,87.8800589 3.88012373,88.9984091 2.50010279,89 Z M2.50010279,84.2704977 C1.59833194,84.2704977 0.785340364,84.813664 0.440229034,85.6467839 C0.0951177041,86.4799038 0.285851342,87.4388797 0.923490147,88.0765374 C1.56112895,88.7141952 2.52009912,88.9049573 3.35322931,88.5598707 C4.1863595,88.2147842 4.72957669,87.4018087 4.72957669,86.5000379 C4.72816997,85.2693059 3.73083476,84.271941 2.50010279,84.2704977 Z" id="Shape" fill="#3F3D56"></path>
                    <path d="M23.5,48 C22.0413083,48 20.6423615,48.5619029 19.6109114,49.5620974 C18.5794613,50.562292 18,51.918847 18,53.3333355 C18,56.2788517 23.5,66 23.5,66 C23.5,66 29,56.2788469 29,53.3333355 C29,51.9188468 28.4205379,50.5622918 27.3890875,49.5620973 C26.3576372,48.5619028 24.9586902,48 23.5,48 L23.5,48 Z M23.4999992,56.1333348 C21.9052795,56.1333348 20.6125039,54.8797338 20.6125039,53.3333387 C20.6125039,51.7869435 21.9052795,50.5333425 23.4999992,50.5333425 C25.0947188,50.5333425 26.3874945,51.7869435 26.3874945,53.3333387 C26.3874945,54.8797338 25.0947188,56.1333348 23.4999992,56.1333348 Z" id="Shape" fill="#FFD74E"></path>
                    <path d="M64.5,27 C61.4624288,27 59,29.3878184 59,32.3333355 C59,35.2788517 64.5,45 64.5,45 C64.5,45 70,35.2788469 70,32.3333355 C70,30.9188456 69.4205375,29.5622894 68.3890857,28.5620946 C67.3576338,27.5618998 65.9586849,27 64.5,27 L64.5,27 Z M64.4999926,35.1333348 C62.9052729,35.1333348 61.6124973,33.8797338 61.6124973,32.3333387 C61.6124973,30.7869435 62.9052729,29.5333425 64.4999926,29.5333425 C66.0947122,29.5333425 67.3874879,30.7869435 67.3874879,32.3333387 C67.3874879,33.8797338 66.0947122,35.1333348 64.4999926,35.1333348 Z" id="Shape" fill="#FFD74E"></path>
                    <rect id="Rectangle" fill="#2F2E41" x="96" y="111" width="70" height="1"></rect>
                    <path d="M153.709669,11.000075 C152.587904,14.6627515 150.867823,18 147.362228,18 C143.856633,18 141.21231,14.8598838 141.014789,11.000075 C140.762397,6.06800512 143.775764,3.97972395 147.362228,4.00014828 C151.599052,4.02428167 155.040936,6.65336657 153.709669,11.000075 Z" id="Path" fill="#2F2E41"></path>
                    <rect id="Rectangle" fill="#2F2E41" x="141" y="11" width="13" height="14"></rect>
                    <path d="M153.02564,23 L154.179487,23 C154.179487,23 157,26.2491472 155.717948,30.6587048 C154.435896,35.0682625 155.461539,35.880543 155.461539,35.880543 C155.461539,35.880543 157.130583,40.6557213 155.335711,47.8502629 C153.540839,55.0448046 157,57 157,57 L153.794872,51.1979512 L152,35.880543 L153.02564,23 Z" id="Path" fill="#575A89"></path>
                    <path d="M153.02564,23 L154.179487,23 C154.179487,23 157,26.2491472 155.717948,30.6587048 C154.435896,35.0682625 155.461539,35.880543 155.461539,35.880543 C155.461539,35.880543 157.130583,40.6557213 155.335711,47.8502629 C153.540839,55.0448046 157,57 157,57 L153.794872,51.1979512 L152,35.880543 L153.02564,23 Z" id="Path" fill="#000000" opacity="0.1"></path>
                    <path d="M150.346154,16.0215314 C150.346154,16.0215314 149.423077,20.2414477 149.884615,20.2414477 C150.346152,20.2414477 151.961538,22.4832724 151.961538,22.4832724 L153,26.8350614 L152.192308,30 L149.423077,29.3406385 L145.961539,24.9888477 L144.923077,23.8019972 L144,19.9776971 C144,19.9776971 145.153847,18.3952269 144.346154,17.0765038 C143.538462,15.7577807 150.346154,16.0215314 150.346154,16.0215314 Z" id="Path" fill="#FBBEBE"></path>
                    <path d="M150.346154,16.0215314 C150.346154,16.0215314 149.423077,20.2414477 149.884615,20.2414477 C150.346152,20.2414477 151.961538,22.4832724 151.961538,22.4832724 L153,26.8350614 L152.192308,30 L149.423077,29.3406385 L145.961539,24.9888477 L144.923077,23.8019972 L144,19.9776971 C144,19.9776971 145.153847,18.3952269 144.346154,17.0765038 C143.538462,15.7577807 150.346154,16.0215314 150.346154,16.0215314 Z" id="Path" fill="#000000" opacity="0.1"></path>
                    <path d="M123,26.9379231 L120.692663,22.5711837 C120.692663,22.5711837 118.202005,16.1976363 116.419057,18.5023086 C114.636109,20.8069809 119.119473,25.4823488 119.119473,25.4823488 L121.426817,29 L123,26.9379231 Z" id="Path" fill="#FBBEBE"></path>
                    <path d="M155,62.8546781 L153.193552,76.2145323 C153.193552,76.2145323 153.419359,77.2422144 151.161294,81.0103813 C148.903229,84.7785483 142.806452,93 142.806452,93 L141,89.5743942 C141,89.5743942 143.145161,78.7266385 146.87097,76.4429065 L146.419356,60 L155,62.8546781 Z" id="Path" fill="#FBBEBE"></path>
                    <path d="M155,62.8546781 L153.193552,76.2145323 C153.193552,76.2145323 153.419359,77.2422144 151.161294,81.0103813 C148.903229,84.7785483 142.806452,93 142.806452,93 L141,89.5743942 C141,89.5743942 143.145161,78.7266385 146.87097,76.4429065 L146.419356,60 L155,62.8546781 Z" id="Path" fill="#000000" opacity="0.1"></path>
                    <path d="M141.287673,90 L144,94.6866159 C144,94.6866159 141.780824,100.377507 142.643831,100.935437 C143.506837,101.493367 144.616431,106.514742 142.273967,105.956806 C139.931504,105.39887 138.08219,103.167153 138.08219,102.832395 C138.08219,102.497638 139.438359,97.8110264 138.698628,96.6951589 C137.958896,95.5792913 137.465751,95.2445399 137.465751,95.2445399 L135.616439,98.034193 L135,97.6994341 L138.08219,93.0128183 C138.08219,93.0128183 138.452052,92.1201293 139.931504,91.5621993 L141.287673,90 Z" id="Path" fill="#2F2E41"></path>
                    <path d="M141.287673,90 L144,94.6866159 C144,94.6866159 141.780824,100.377507 142.643831,100.935437 C143.506837,101.493367 144.616431,106.514742 142.273967,105.956806 C139.931504,105.39887 138.08219,103.167153 138.08219,102.832395 C138.08219,102.497638 139.438359,97.8110264 138.698628,96.6951589 C137.958896,95.5792913 137.465751,95.2445399 137.465751,95.2445399 L135.616439,98.034193 L135,97.6994341 L138.08219,93.0128183 C138.08219,93.0128183 138.452052,92.1201293 139.931504,91.5621993 L141.287673,90 Z" id="Path" fill="#000000" opacity="0.1"></path>
                    <path d="M145.803283,61.9681495 C145.803283,61.9681495 146.666203,74.7152551 144.777407,78.057628 L144.777407,94.6542382 L142.221975,95 C142.221975,95 137.061358,86.2133541 138.950154,77.5692919 C140.83895,68.9252296 137,61 137,61 L145.803283,61.9681495 Z" id="Path" fill="#FBBEBE"></path>
                    <circle id="Oval" fill="#FBBEBE" cx="147.5" cy="15.5" r="4.5"></circle>
                    <path d="M151.098495,28.1384607 L146.250655,21.8871794 L143.48046,20 L142.326213,21.5333343 L139.09432,22.476924 C139.09432,22.476924 137.016673,22.9487181 134.823603,25.5435894 C132.630533,28.1384607 128.706089,29.6717934 128.706089,29.6717934 L125.474196,29.0820505 C125.474196,29.0820505 121.665179,27.3128199 121.665179,26.8410243 C121.665179,26.3692286 118.31786,30.0256402 119.125833,31.4410287 C119.933807,32.8564173 121.665179,34.625643 122.588577,35.5692327 C123.511975,36.5128225 123.858255,39.2256427 129.514063,38.4000019 C135.16987,37.5743611 137.247528,34.7435919 137.247528,34.7435919 C137.247528,34.7435919 138.286351,40.1692324 141.287395,41.2307695 C144.288438,42.2923065 154.099545,43 154.099545,43 L156.17719,35.9230795 C156.17719,35.9230795 158.485686,32.8564125 155.369217,28.3743633 C155.369217,28.3743633 155.309387,25.8676818 154.974348,24.1996552 C154.844032,23.5508649 154.672081,23.0289531 154.445819,22.8307739 C153.637845,22.123082 149.367128,20.9435945 149.367128,20.9435945 C149.367128,20.9435945 150.059678,23.3025696 150.405952,23.4205169 C150.752225,23.5384642 151.560195,27.5487114 151.098495,28.1384607 Z" id="Path" fill="#575A89"></path>
                    <path d="M135.936247,63.3859911 C141.663043,62.9805804 144.997248,63.9361928 146.48468,64.6647732 C146.761206,64.7922438 147.021611,64.9532576 147.26024,65.1443188 C147.369405,65.2381419 147.42171,65.3111171 147.42171,65.3551335 C147.42171,65.7026283 155.268217,66.3976208 158.111155,65.7026283 C160.954093,65.0076357 156.177963,50.0653258 154.927065,48.7911759 C153.676167,47.517026 154.350515,42.8536334 154.350515,42.8536334 C154.350515,42.8536334 151.856699,42.3045913 151.174393,42.5362617 C150.492087,42.7679321 146.966847,42.188767 145.715954,41.493776 C144.465061,40.7987851 142.873017,41.2621119 141.84956,41.0304477 C141.392413,40.9273556 141.161563,41.1011037 141.046699,41.3258181 C140.867922,41.6629017 140.597979,41.9406829 140.26889,42.1262126 C137.854669,43.5428419 135.916919,53.3375846 134.457915,58.7527247 C132.865881,64.6601426 135.936247,63.3859911 135.936247,63.3859911 Z" id="Path" fill="#2F2E41"></path>
                    <path d="M146.653979,95 L147.080311,97.3729279 C147.080311,97.3729279 149.318546,100.608739 148.679059,103.30525 C148.679059,103.30525 149.211975,106.864641 151.130465,107.835384 C153.048955,108.806128 151.450214,111.071195 149.638305,110.963335 C147.826396,110.855474 146.121072,111.071195 145.907906,110.531894 C145.69474,109.992593 144.415746,104.707434 144.415746,104.707434 L144.065828,110.892139 L143,111 L143.349917,103.844551 C143.349917,103.844551 142.497256,102.226646 143.669667,99.5301376 L143.37377,95.3910478 C143.37377,95.3910478 146.334227,96.0786012 146.653979,95 Z" id="Path" fill="#2F2E41"></path>
                    <path d="M146,62.5588421 C146.570883,62.6761086 147.108483,62.8242333 147.601128,63 C147.725507,61.9930108 148.443909,55.9031322 147.582329,56.0011706 L146,62.5588421 Z" id="Path" fill="#000000" opacity="0.1"></path>
                    <path d="M144.996138,7.47119522 C144.996138,7.47119522 144.943481,7.169393 142.884108,7.96452671 C140.824735,8.75966043 139.590283,14.6274049 140.619969,18.0729833 C141.034928,19.4615392 140.697365,20.4626917 140.146414,21.1631759 C138.078913,23.7918213 138.892803,27.7399737 141.904275,29.0917145 C141.989278,29.1298688 142.076018,29.1675855 142.164496,29.2048647 L143.451599,30 C143.451599,30 141.810813,27.7771365 142.631924,24.9336856 C143.344999,22.510956 143.433059,19.9387996 142.887435,17.4703875 C142.793232,17.0539832 142.686224,16.6247511 142.564671,16.1867151 C141.534992,12.4760885 142.035788,12.9046189 145.639694,9.19398598 C145.639694,9.19398598 147.699067,10.784255 149.501019,11.5793903 C151.302971,12.3745255 152.847502,13.1696593 151.560393,15.8201071 C150.273285,18.4705549 147.184224,20.8559654 149.243597,24.3015407 C151.30297,27.7471159 151.560393,26.4218998 151.302971,27.7471238 L151.302971,27.7471238 L151.045549,29.0723414 L152.59008,27.4820724 L151.560393,29.6024316 C151.560393,29.6024316 154.906874,29.6024316 155.936562,26.9519822 L156.451405,27.4820724 C156.451405,27.4820724 158.510779,23.7714458 154.649454,20.3258627 C154.649454,20.3258627 153.362352,19.5307274 155.164296,16.8802796 C156.966241,14.2298318 155.582327,8.53136777 153.265532,7.47118896 C150.948737,6.41101015 144.996138,7.47119522 144.996138,7.47119522 Z" id="Path" fill="#2F2E41"></path>
                    <circle id="Oval" fill="#2F2E41" cx="147.5" cy="4.5" r="2.5"></circle>
                    <path d="M144.363637,2.5 C144.363707,1.21615257 145.070977,0.141057561 146,0.0126248876 C145.940185,0.00445593608 145.879565,0 145.818181,0 C144.814028,0 144,1.11928813 144,2.5 C144,3.88071187 144.814028,5 145.818181,5 C145.879565,5 145.940185,4.99554406 146,4.98737511 C145.070978,4.85893885 144.363709,3.78384503 144.363637,2.5 L144.363637,2.5 Z" id="Path" fill="#2F2E41"></path>
                    <path d="M115.5,9 C114.04131,9 112.642363,9.56190264 111.610913,10.5620969 C110.579463,11.5622911 110,12.9188459 110,14.3333343 C110,17.2788508 115.5,27 115.5,27 C115.5,27 121,17.278846 121,14.3333343 C121,12.918846 120.420538,11.5622913 119.389088,10.562097 C118.357638,9.56190269 116.958691,9 115.5,9 L115.5,9 Z M115.500001,17.1333356 C113.905281,17.1333356 112.612506,15.8797345 112.612506,14.3333391 C112.612506,12.7869438 113.905281,11.5333427 115.500001,11.5333427 C117.09472,11.5333427 118.387496,12.7869438 118.387496,14.3333391 C118.387496,15.8797345 117.09472,17.1333356 115.500001,17.1333356 Z" id="Shape" fill="#FFD74E"></path>
                    <circle id="Oval" fill="#F1F1F1" cx="74.5" cy="103.5" r="2.5"></circle>
                    <circle id="Oval" fill="#F1F1F1" cx="91.5" cy="92.5" r="2.5"></circle>
                    <circle id="Oval" fill="#F1F1F1" cx="69.5" cy="81.5" r="2.5"></circle>
                </g>
            </g>
        </g>
    </g>
</svg>