<?xml version="1.0" encoding="UTF-8"?>
<svg width="163px" height="115px" viewBox="0 0 163 115" version="1.1" xmlns="http://www.w3.org/2000/svg" xmlns:xlink="http://www.w3.org/1999/xlink">
    <title>undraw_visual_data_b1wx</title>
    <defs>
        <linearGradient x1="99.982811%" y1="50.0000413%" x2="0.0187255522%" y2="50.0000413%" id="linearGradient-1">
            <stop stop-color="#808080" stop-opacity="0.25" offset="0%"></stop>
            <stop stop-color="#808080" stop-opacity="0.12" offset="54%"></stop>
            <stop stop-color="#808080" stop-opacity="0.1" offset="100%"></stop>
        </linearGradient>
    </defs>
    <g id="Page-1" stroke="none" stroke-width="1" fill="none" fill-rule="evenodd">
        <g id="Infosoft-Global-option-2-Copy" transform="translate(-1044.000000, -621.000000)">
            <g id="Group-33" transform="translate(1010.000000, 601.000000)">
                <g id="undraw_visual_data_b1wx" transform="translate(34.000000, 20.000000)">
                    <ellipse id="Oval" fill="#FFD74E" fill-rule="nonzero" opacity="0.1" cx="141" cy="112.5" rx="9" ry="2.5"></ellipse>
                    <path d="M156.688357,102.317525 C153.124421,105.280857 148.052948,106.507266 143.148328,107.28184 L142.322842,107.408001 C137.200141,108.173773 132.020359,108.581598 126.823013,108.829521 C124.042119,108.964484 121.261224,109.059839 118.48033,109.144925 L116.300987,109.209472 C113.471304,109.29358 110.636256,109.376221 107.79584,109.457395 C105.014946,109.536613 102.234051,109.61094 99.4531565,109.680378 C95.8916599,109.76742 92.3301634,109.839792 88.7686668,109.897494 C85.9877723,109.941504 83.2068777,109.971821 80.4259832,109.988447 C76.8635109,110.008985 73.3020143,110.002139 69.7414935,109.967909 C66.9586475,109.939548 64.1777529,109.890648 61.3988099,109.82121 C57.8353618,109.729278 54.2738653,109.594803 50.7143202,109.417786 C48.2983571,109.299448 45.8838576,109.15715 43.4708217,108.99089 L42.3716366,108.913139 C32.0135361,108.164971 21.4695549,106.82267 12.4053022,102.580117 L12.1608762,102.464225 C12.0393951,102.407012 11.9179139,102.349799 11.7964327,102.289652 C10.1321668,101.492127 8.53798959,100.555307 7.0308576,99.4891566 C4.35095342,97.5732597 2.1379468,95.234868 0.968507458,92.4607784 C-0.863955694,88.1096681 0.104966516,83.2187033 2.19795558,78.9644147 C4.29094464,74.7101261 7.43335549,70.8695304 10.151314,66.8631641 C10.947528,65.6895673 11.7027605,64.4719606 12.4053022,63.2235469 C16.7961884,55.3941889 18.9740679,46.3340212 14.3709556,38.7892605 C13.7633713,37.8273196 13.1073038,36.8970172 12.4053022,36.001968 C11.282699,34.5349719 10.1410686,33.0679758 9.36973629,31.4440112 C7.57093659,27.6650293 7.95733457,23.4151418 8.61304024,19.3779686 C9.49121747,14.01023 11.1012091,8.22879851 16.1331646,4.87524551 C21.3539282,1.39259686 28.7642804,1.56863638 35.2437647,2.82145102 C45.3179212,4.75641883 54.6163544,8.80679496 64.0026054,12.4596152 C73.3888563,16.1124354 83.221514,19.4527854 93.5415601,19.8121994 C95.7584669,19.8882386 97.9779638,19.8073528 100.183507,19.5701451 L100.183507,19.5701451 C103.123773,19.2673013 106.024073,18.6551259 108.83648,17.743735 C112.89805,16.4029006 116.593712,14.385781 119.333625,11.5823515 C125.210095,5.58967259 136.253173,5.13637081 144.215313,8.7554501 C151.81301,12.2087588 156.726412,19.5173332 156.363432,26.8171056 C155.950689,34.9427968 149.879557,41.6234969 144.316304,48.4758355 C143.641571,49.3061553 142.97562,50.139409 142.327232,50.9785308 C141.965228,51.4469915 141.610054,51.9164303 141.261711,52.386847 L141.261711,52.386847 C140.651378,53.2171668 140.061535,54.0518875 139.505356,54.8968773 C136.662989,59.2289166 134.653427,64.4323517 136.610299,69.1091351 C137.70802,71.7277231 139.802473,73.7257717 142.327232,75.47003 C147.984157,79.3766406 155.792617,82.0054975 159.305326,87.4744588 C162.33211,92.1879172 161.21097,98.5502791 156.688357,102.317525 Z" id="Path" fill="#FFD74E" fill-rule="nonzero" opacity="0.1"></path>
                    <g id="Group" opacity="0.1" transform="translate(67.000000, 0.000000)" fill-rule="nonzero">
                        <path d="M14.3926941,80.4653707 C14.3985388,80.6030561 14.4087671,80.7378119 14.423379,80.8696383 C15.5601826,80.4155696 16.6760426,79.9273237 17.7709589,79.4049005 C18.3552771,79.327182 18.8984588,79.060844 19.3183562,78.6461664 C19.6383562,78.4850452 19.956895,78.3166004 20.2725114,78.1481555 C20.2010912,77.9966457 20.1200733,77.8498721 20.0299543,77.7087342 C19.4147945,76.7346835 18.4796347,76.1253526 17.4494977,76.1590416 C16.4193607,76.1927306 15.5280365,76.8621157 14.9771689,77.8713201 C14.5545234,78.6680833 14.3526928,79.5638597 14.3926941,80.4653707 L14.3926941,80.4653707 Z" id="Path" fill="#3F3D56"></path>
                        <path d="M14.2246575,75.3431826 C14.2466905,76.2407463 14.5063996,77.1162981 14.9771689,77.8801085 C15.59379,78.8512297 16.5289498,79.4605606 17.5590868,79.4268716 C17.6306849,79.4268716 17.7052055,79.4166184 17.7709589,79.4107595 C18.3552771,79.3330409 18.8984588,79.066703 19.3183562,78.6520253 C19.6033347,78.3801824 19.8435156,78.064766 20.0299543,77.7175226 C20.8682942,76.0960665 20.8052005,74.1542732 19.863379,72.5909403 C19.246758,71.6168897 18.3115982,71.0075588 17.2814612,71.0412477 C16.2513242,71.0749367 15.3614612,71.7443219 14.8105936,72.7535262 C14.3882747,73.5488742 14.1859654,74.4430187 14.2246575,75.3431826 L14.2246575,75.3431826 Z" id="Path" fill="#3F3D56"></path>
                        <ellipse id="Oval" fill="#3F3D56" transform="translate(17.253278, 70.113739) rotate(-1.880000) translate(-17.253278, -70.113739) " cx="17.2532782" cy="70.1137388" rx="3.1956248" ry="4.19353336"></ellipse>
                        <ellipse id="Oval" fill="#3F3D56" transform="translate(17.085736, 64.992510) rotate(-1.880000) translate(-17.085736, -64.992510) " cx="17.0857359" cy="64.9925102" rx="3.1956248" ry="4.19353336"></ellipse>
                        <ellipse id="Oval" fill="#3F3D56" transform="translate(16.918193, 59.869769) rotate(-1.880000) translate(-16.918193, -59.869769) " cx="16.9181929" cy="59.8697688" rx="3.1956248" ry="4.19353336"></ellipse>
                        <path d="M27.7318721,24.4274322 C28.1499849,23.8563956 28.5278868,23.2568417 28.8628311,22.6331284 L20.4259361,21.5287161 L29.5028311,21.2972875 C31.1368289,17.4027314 31.0987769,13.0055182 29.3976256,9.13996383 L17.4290411,15.870434 L28.3879452,7.22848101 C25.3472246,2.37927751 19.865228,-0.368415056 14.1708319,0.102563365 C8.47643581,0.573541786 3.5178329,4.18476702 1.31109769,9.46798292 C-0.895637526,14.7511988 0.0169457015,20.8266797 3.67780822,25.2242495 C3.02662027,26.1132977 2.47257511,27.0698871 2.02520548,28.0775588 L13.1024658,33.3916275 L1.3603653,29.8674684 C-0.135395815,34.8312486 0.969821071,40.2165031 4.29881279,44.1852803 C-0.42581447,50.6349879 0.588141876,59.6416192 6.62787929,64.8735903 C12.6676167,70.1055614 21.7044936,69.8055452 27.3856638,64.1844506 C33.0668339,58.563356 33.4840922,49.5092097 28.3441096,43.3869982 C32.5275983,37.6822883 32.2746473,29.8489847 27.7318721,24.4274322 Z" id="Path" fill="#FFD74E"></path>
                        <path d="M0.714442659,34.8065642 C0.821248744,38.2469633 2.0842965,41.5503257 4.29881279,44.1808861 C-0.427053016,50.6297191 0.585225902,59.6365812 6.62402213,64.8696898 C12.6628184,70.1027985 21.6997905,69.8044307 27.3819887,64.1843376 C33.064187,58.5642445 33.4830459,49.5101315 28.3441096,43.3869982 C30.3094064,40.712387 0.658995434,33.0854973 0.714442659,34.8065642 Z" id="Path" fill="#000000"></path>
                    </g>
                    <g id="Group" opacity="0.1" transform="translate(35.000000, 50.000000)" fill-rule="nonzero">
                        <path d="M12.7060256,57.6408122 C12.7060256,57.7379695 12.6957051,57.8351269 12.6839103,57.9352284 C11.8680983,57.6113706 11.0665385,57.2644501 10.2792308,56.894467 C9.8597431,56.8397116 9.46951811,56.650068 9.1675641,56.3542132 C8.9375641,56.2374281 8.70903846,56.1186802 8.48198718,55.9979695 C8.53322435,55.8903294 8.59133551,55.7860876 8.65596154,55.6858883 C9.09826923,54.9881218 9.76762821,54.5523858 10.5077564,54.5759391 C11.2478846,54.5994924 11.8877564,55.0764467 12.2769872,55.7977665 C12.5817338,56.3630414 12.7298441,56.9992875 12.7060256,57.6408122 L12.7060256,57.6408122 Z" id="Path" fill="#3F3D56"></path>
                        <path d="M12.8210256,53.976802 C12.8065081,54.6186394 12.6212889,55.2450747 12.284359,55.7918782 C11.8420513,56.4867005 11.1712179,56.9239086 10.4325641,56.9003553 L10.2851282,56.8885787 C9.86564053,56.8338233 9.47541555,56.6441796 9.17346154,56.3483249 C8.9683738,56.1541704 8.79566383,55.9285531 8.66185897,55.68 C8.06057137,54.5215388 8.10410277,53.1345868 8.77685897,52.0159898 C9.21916667,51.3182234 9.89,50.8824873 10.6286538,50.9060406 C11.3673077,50.9295939 12.0086538,51.4065482 12.4052564,52.127868 C12.7064279,52.6961598 12.8499725,53.3345058 12.8210256,53.976802 L12.8210256,53.976802 Z" id="Path" fill="#3F3D56"></path>
                        <ellipse id="Oval" fill="#3F3D56" transform="translate(10.647176, 50.247209) rotate(-88.190000) translate(-10.647176, -50.247209) " cx="10.6471762" cy="50.2472086" rx="2.99863407" ry="2.29409903"></ellipse>
                        <ellipse id="Oval" fill="#3F3D56" transform="translate(10.761742, 46.583822) rotate(-88.190000) translate(-10.761742, -46.583822) " cx="10.761742" cy="46.5838217" rx="2.99863407" ry="2.29409903"></ellipse>
                        <ellipse id="Oval" fill="#3F3D56" transform="translate(10.877829, 42.918963) rotate(-88.190000) translate(-10.877829, -42.918963) " cx="10.8778287" cy="42.9189634" rx="2.99863407" ry="2.29409903"></ellipse>
                        <path d="M3.08288462,17.5737056 C2.78226494,17.1652933 2.50986077,16.7369073 2.2675641,16.2915228 L8.32423077,15.4877665 L1.80608974,15.3405584 C0.628739485,12.5560263 0.652204241,9.41021707 1.87096154,6.64350254 L10.4708974,11.4469036 L2.59487179,5.27152284 C4.76731482,1.78701938 8.70582299,-0.195591226 12.8034852,0.132596029 C16.9011474,0.460783284 20.4727683,3.04489019 22.0611268,6.83060128 C23.6494853,10.6163124 22.9889821,14.9705956 20.3491026,18.1169036 C20.8181494,18.7522313 21.2170673,19.4363032 21.5389103,20.1572081 L13.5891667,23.9669543 L22.0180769,21.4349746 C23.0958125,24.984618 22.3073963,28.8375712 19.9215385,31.6806599 C23.3210966,36.2885713 22.6027388,42.7314229 18.2714548,46.4800308 C13.9401709,50.2286387 7.45072543,50.0239439 3.3650568,46.0098424 C-0.720611835,41.9957408 -1.03023477,35.520464 2.65384615,31.1359898 C-0.35454821,27.0584966 -0.177262856,21.4549584 3.08288462,17.5751777 L3.08288462,17.5737056 Z" id="Path" fill="#FFD74E"></path>
                        <path d="M22.4855087,24.9723858 C22.4115426,27.432904 21.5081657,29.7965204 19.9215385,31.6806599 C23.3210966,36.2885713 22.6027388,42.7314229 18.2714548,46.4800308 C13.9401709,50.2286387 7.45072543,50.0239439 3.3650568,46.0098424 C-0.720611835,41.9957408 -1.03023477,35.520464 2.65384615,31.1359898 C1.2399359,29.2222843 22.5267308,23.7402538 22.4855087,24.9723858 Z" id="Path" fill="#000000"></path>
                    </g>
                    <g id="Group" opacity="0.1" transform="translate(111.000000, 31.000000)" fill-rule="nonzero">
                        <path d="M12.6721154,57.6334518 C12.6721154,57.7320812 12.6617949,57.8277665 12.6514744,57.927868 C11.8346795,57.6040102 11.0331197,57.2570897 10.2467949,56.8871066 C9.82694019,56.83214 9.43630973,56.6425507 9.13365385,56.3468528 C8.90512821,56.2305584 8.67512821,56.1113198 8.44807692,55.9906091 C8.49988613,55.8832643 8.55797802,55.7790571 8.62205128,55.6785279 C9.06435897,54.9807614 9.73371795,54.5450254 10.4738462,54.5685787 C11.2139744,54.592132 11.8538462,55.0690863 12.2430769,55.7904061 C12.5478235,56.355681 12.6959338,56.9919271 12.6721154,57.6334518 L12.6721154,57.6334518 Z" id="Path" fill="#3F3D56"></path>
                        <path d="M12.7959615,53.9694416 C12.7809995,54.6114155 12.5952686,55.2378607 12.2578205,55.7845178 C11.8155128,56.4793401 11.1461538,56.9165482 10.4060256,56.8929949 L10.2585897,56.8812183 C9.83873506,56.8262517 9.4481046,56.6366624 9.14544872,56.3409645 C8.94095318,56.1462791 8.76831949,55.9207615 8.63384615,55.6726396 C8.03255855,54.5141784 8.07608995,53.1272264 8.74884615,52.0086294 C9.19115385,51.312335 9.86198718,50.8751269 10.600641,50.8986802 C11.3392949,50.9222335 11.9821154,51.3991878 12.3772436,52.1205076 C12.679437,52.688516 12.8240033,53.3268776 12.7959615,53.9694416 L12.7959615,53.9694416 Z" id="Path" fill="#3F3D56"></path>
                        <ellipse id="Oval" fill="#3F3D56" transform="translate(10.618207, 50.238696) rotate(-88.190000) translate(-10.618207, -50.238696) " cx="10.6182071" cy="50.2386964" rx="2.99863407" ry="2.29409903"></ellipse>
                        <ellipse id="Oval" fill="#3F3D56" transform="translate(10.734294, 46.575310) rotate(-88.190000) translate(-10.734294, -46.575310) " cx="10.7342938" cy="46.5753102" rx="2.99863407" ry="2.29409903"></ellipse>
                        <ellipse id="Oval" fill="#3F3D56" transform="translate(10.850333, 42.911970) rotate(-88.190000) translate(-10.850333, -42.911970) " cx="10.8503333" cy="42.9119697" rx="2.99863407" ry="2.29409903"></ellipse>
                        <path d="M3.04897436,17.5663452 C2.74799032,17.158483 2.47604043,16.7300366 2.23512821,16.2841624 L8.29179487,15.4877665 L1.77365385,15.3302538 C0.59688399,12.5457158 0.619812306,9.40033867 1.83705128,6.63319797 L10.4369872,11.436599 L2.56096154,5.26416244 C4.72973896,1.77091251 8.67162642,-0.219591952 12.7749835,0.106466682 C16.8783405,0.432525315 20.4552898,3.02048732 22.0433957,6.81226458 C23.6315016,10.6040418 22.9645378,14.9639895 20.3151923,18.1095431 C20.7837652,18.7449134 21.1821898,19.4289871 21.5035256,20.1498477 L13.5537821,23.9595939 L21.9826923,21.4276142 C23.0621149,24.9767084 22.2735082,28.830039 19.8861538,31.6718274 C23.2861913,36.278973 22.5684778,42.7216178 18.2376089,46.470196 C13.9067401,50.2187741 7.41757326,50.0140357 3.33238204,45.9999241 C-0.752809177,41.9858124 -1.06169727,35.5107775 2.62288462,31.1271574 C-0.385509749,27.0496641 -0.208224394,21.4461259 3.05192308,17.5663452 L3.04897436,17.5663452 Z" id="Path" fill="#FFD74E"></path>
                        <path d="M22.4530645,24.9650254 C22.3791664,27.4253731 21.4751847,29.7886936 19.8876282,31.6718274 C23.2869966,36.2790865 22.56888,42.7212685 18.2381162,46.4695023 C13.9073525,50.2177361 7.4186011,50.0130282 3.33347135,45.9992889 C-0.751658397,41.9855495 -1.06101301,35.5109528 2.62288462,31.1271574 C1.2075,29.2149239 22.4913462,23.7314213 22.4530645,24.9650254 Z" id="Path" fill="#000000"></path>
                    </g>
                    <ellipse id="Oval" fill="#FFD74E" fill-rule="nonzero" cx="28.5" cy="110" rx="8.5" ry="2"></ellipse>
                    <ellipse id="Oval" fill="#3F3D56" fill-rule="nonzero" cx="28" cy="108.5" rx="1" ry="1.5"></ellipse>
                    <ellipse id="Oval" fill="#3F3D56" fill-rule="nonzero" cx="28" cy="107.5" rx="1" ry="1.5"></ellipse>
                    <ellipse id="Oval" fill="#3F3D56" fill-rule="nonzero" cx="28" cy="106.5" rx="1" ry="1.5"></ellipse>
                    <ellipse id="Oval" fill="#3F3D56" fill-rule="nonzero" cx="28" cy="104.5" rx="1" ry="1.5"></ellipse>
                    <ellipse id="Oval" fill="#3F3D56" fill-rule="nonzero" cx="28" cy="103.5" rx="1" ry="1.5"></ellipse>
                    <ellipse id="Oval" fill="#3F3D56" fill-rule="nonzero" cx="28" cy="101.5" rx="1" ry="1.5"></ellipse>
                    <ellipse id="Oval" fill="#3F3D56" fill-rule="nonzero" cx="28" cy="99.5" rx="1" ry="1.5"></ellipse>
                    <path d="M31.0362655,89.6007806 C31.1643358,89.4301093 31.2811138,89.2505312 31.3857883,89.0632938 L28.9179024,88.6395062 L31.5867286,88.6616554 C32.1040033,87.4863056 32.1352184,86.1406826 31.673048,84.9405929 L28.0915002,86.8793846 L31.3942788,84.3410884 C30.5502278,82.821403 28.9639466,81.9203413 27.2826643,82.0055514 C25.6013819,82.0907615 24.1062499,83.1479943 23.407307,84.7458811 C22.7083641,86.343768 22.9224906,88.2151032 23.9623194,89.5963508 C23.7627474,89.861921 23.5910155,90.1490376 23.4500633,90.4527858 L26.6537868,92.1892816 L23.2378025,90.9932258 C22.7502944,92.4963168 23.0227895,94.1546294 23.9623194,95.4023895 C22.5119907,97.3275442 22.7229617,100.092507 24.4469522,101.753932 C26.1709427,103.415356 28.8290573,103.415356 30.5530478,101.753932 C32.2770383,100.092507 32.4880093,97.3275442 31.0376806,95.4023895 C32.320693,93.6985793 32.320693,91.3001609 31.0376806,89.5963508 L31.0362655,89.6007806 Z" id="Path" fill="#FFD74E" fill-rule="nonzero"></path>
                    <path d="M23,92.0720353 C22.9984136,93.1680228 23.3374634,94.2325332 23.9623194,95.0931962 C22.5119907,97.0966973 22.7229617,99.9741833 24.4469522,101.703221 C26.1709427,103.43226 28.8290573,103.43226 30.5530478,101.703221 C32.2770383,99.9741833 32.4880093,97.0966973 31.0376806,95.0931962 C31.6390863,94.2618391 23,91.5234318 23,92.0720353 Z" id="Path" fill="#000000" fill-rule="nonzero" opacity="0.1"></path>
                    <path d="M51,76.2770633 L51,109 C48.3936842,108.883201 45.7889474,108.742753 43.1857895,108.578656 L42,108.501916 L42,76.2770633 C42,75.938365 42.1467233,75.613539 42.4078923,75.3740432 C42.6690614,75.1345474 43.0232827,75 43.3926316,75 L49.6073684,75 C49.9767173,75 50.3309386,75.1345474 50.5921077,75.3740432 C50.8532767,75.613539 51,75.938365 51,76.2770633 L51,76.2770633 Z" id="Path" fill="#3F3D56" fill-rule="nonzero"></path>
                    <path d="M61,108.855167 L61,53.2903342 C61,52.5777023 61.6235024,52 62.3926316,52 L68.6073684,52 C68.9767173,52 69.3309386,52.1359455 69.5921077,52.3779301 C69.8532767,52.6199147 70,52.9481163 70,53.2903342 L70,109 L61,108.855167 Z" id="Path" fill="#3F3D56" fill-rule="nonzero"></path>
                    <path d="M80,109 L80,65.2769449 C80,64.5717077 80.6235024,64 81.3926316,64 L87.6073684,64 C88.3764976,64 89,64.5717077 89,65.2769449 L89,108.905894 L80,109 Z" id="Path" fill="#3F3D56" fill-rule="nonzero"></path>
                    <path d="M108,32.2914829 L108,108.777432 C105,108.856502 102,108.930691 99,109 L99,32.2914829 C99,31.5782166 99.6235024,31 100.392632,31 L106.607368,31 C107.376498,31 108,31.5782166 108,32.2914829 L108,32.2914829 Z" id="Path" fill="#3F3D56" fill-rule="nonzero"></path>
                    <path d="M127,47.2898082 L127,107.685591 C124,107.820129 121,107.915183 118,108 L118,47.2898082 C118,46.5774668 118.623502,46 119.392632,46 L125.607368,46 C126.376498,46 127,46.5774668 127,47.2898082 Z" id="Path" fill="#3F3D56" fill-rule="nonzero"></path>
                    <polyline id="Path" stroke="#3F3D56" stroke-width="7" stroke-linecap="round" points="47 56 66 34.9358108 85 45.5405405 104 13 123 28.5439189"></polyline>
                    <circle id="Oval" fill="#FFD74E" fill-rule="nonzero" cx="46.5" cy="56.5" r="4.5"></circle>
                    <circle id="Oval" fill="#FFD74E" fill-rule="nonzero" cx="65.5" cy="35.5" r="4.5"></circle>
                    <circle id="Oval" fill="#FFD74E" fill-rule="nonzero" cx="84.5" cy="45.5" r="4.5"></circle>
                    <circle id="Oval" fill="#FFD74E" fill-rule="nonzero" cx="103.5" cy="13.5" r="4.5"></circle>
                    <circle id="Oval" fill="#FFD74E" fill-rule="nonzero" cx="140.5" cy="47.5" r="4.5"></circle>
                    <ellipse id="Oval" fill="#FFD74E" fill-rule="nonzero" opacity="0.1" cx="34" cy="105.5" rx="3" ry="1"></ellipse>
                    <path d="M32,102.857845 C32,102.857845 33.611772,102.808663 34.0975738,102.467376 C34.5833755,102.126089 36.578038,101.722208 36.69911,102.266181 C36.8201821,102.810154 39.1205516,104.984555 37.3044704,104.999458 C35.4883892,105.014362 33.0745147,104.719275 32.5902264,104.428659 C32.1059381,104.138044 32,102.857845 32,102.857845 Z" id="Path" fill="#A8A8A8" fill-rule="nonzero"></path>
                    <path d="M37.3349652,105.822782 C35.5182915,105.836696 33.1051432,105.562583 32.619183,105.291253 C32.2497926,105.083929 32.1029448,104.342293 32.0529863,104 L32,104 C32,104 32.101431,105.195244 32.5873912,105.466574 C33.0733514,105.737904 35.481958,106.013408 37.3031734,105.999494 C37.8284949,105.999494 38.0101623,105.824173 37.999565,105.56954 C37.9268981,105.72399 37.727064,105.819999 37.3349652,105.822782 Z" id="Path" fill="#000000" fill-rule="nonzero" opacity="0.2"></path>
                    <ellipse id="Oval" fill="#FFD74E" fill-rule="nonzero" opacity="0.1" cx="156" cy="109.5" rx="5" ry="1"></ellipse>
                    <path d="M152,105.71519 C152,105.71519 154.956167,105.617832 155.847397,104.936324 C156.738628,104.254816 160.394184,103.441874 160.614726,104.53391 C160.835268,105.625945 165.058795,109.969746 161.720456,109.998954 C158.382118,110.028161 153.965239,109.440766 153.075519,108.863107 C152.185799,108.285448 152,105.71519 152,105.71519 Z" id="Path" fill="#A8A8A8" fill-rule="nonzero"></path>
                    <path d="M161.781689,109.639301 C158.443074,109.666595 154.025829,109.117668 153.136036,108.577838 C152.459248,108.163868 152.188836,106.67782 152.098195,106 L152,106 C152,106 152.187325,108.394357 153.075608,108.937219 C153.963891,109.480081 158.384157,110.030525 161.721262,109.998682 C162.685079,109.998682 163.01743,109.646883 162.999302,109.13738 C162.864851,109.440655 162.497754,109.633235 161.781689,109.639301 Z" id="Path" fill="#000000" fill-rule="nonzero" opacity="0.2"></path>
                    <path d="M125.023399,50.5757408 C125.050654,50.8329394 125.152782,51.0764897 125.31713,51.2762131 C125.530084,51.5170463 125.848782,51.6271835 126.135169,51.771096 C126.876322,52.1504034 127.442429,52.8011462 127.715438,53.5876248 C128.204499,55.0150022 128.267651,56.5246154 128.890359,57.9020641 C129.513067,59.2795127 130.244456,60.602627 130.781982,62.013851 C131.087462,62.814181 131.331258,63.6468178 131.779196,64.3751915 C131.996054,64.7334123 132.272744,65.051795 132.597235,65.316497 C132.563456,65.8334074 132.550238,66.3444438 132.553176,66.8613541 C132.754888,66.8573785 132.94453,66.9571793 133.055455,67.1256833 C133.164137,67.2931047 133.238978,67.4801871 133.275752,67.6763691 C133.476958,68.5090059 133.228755,69.3959771 133.4094,70.2330194 C133.90569,72.5613572 133.753288,74.9812381 132.968804,77.2289312 C132.767599,77.7987074 132.514991,79.6842554 132.729414,80.2496261 C133.52836,80.1688589 134.23625,80.6593363 134.983794,80.9838738 C135.044236,81.4268935 135.008164,81.8777428 134.878051,82.3055196 C134.609288,83.0794167 134.610757,83.9208645 134.615162,84.7388164 L134.651879,90.7978282 C134.651879,91.5658512 134.662159,92.3441538 134.854553,93.0886809 C135.073382,93.9271917 135.53307,94.781856 135.518383,95.6482683 C135.47873,97.5132574 136.35992,99.2901367 136.289425,101.140441 C136.276207,101.495817 136.227742,101.848256 136.193963,102.200694 C136.107229,103.139568 136.130889,104.085373 136.264458,105.018737 C136.531753,106.877852 137.238174,108.706129 137.061936,110.575523 C137.050187,110.701814 137.007596,110.869222 136.888635,110.917683 C137.0355,111.083623 137.191177,111.248094 137.349792,111.405223 C137.317696,111.458734 137.27404,111.504393 137.222019,111.538856 C137.048476,111.629477 136.856684,111.679679 136.660994,111.685706 C136.4314,111.691729 136.208474,111.76416 136.019193,111.894232 C135.881607,112.026224 135.788238,112.197553 135.751899,112.38471 C135.646163,112.758949 135.710631,113.160757 135.928137,113.483144 C136.059271,113.648201 136.230746,113.776667 136.42601,113.856142 C137.104527,114.149841 137.882912,113.936909 138.590802,113.722509 L141.363616,112.88253 C141.532745,112.847403 141.68882,112.76607 141.814492,112.64757 C141.87199,112.579653 141.91005,112.497453 141.924641,112.409674 C142.537069,112.556524 143.209711,112.375899 143.833888,112.1894 L146.606702,111.347952 C146.776069,111.313493 146.932317,111.232069 147.057578,111.112993 C147.15862,110.990113 147.20003,110.828791 147.170664,110.672444 C147.191225,110.663633 147.211787,110.657759 147.232348,110.64748 C147.443834,110.552027 147.672943,110.365529 147.62154,110.140849 C147.584824,109.993999 147.437959,109.908827 147.374807,109.773725 C147.314357,109.594952 147.353511,109.397526 147.477613,109.255346 C147.586293,109.108497 147.733158,108.986611 147.833026,108.832419 C148.153192,108.341942 147.935832,107.697273 147.815402,107.123091 C147.555451,105.896897 147.79631,104.616369 147.631821,103.374022 C147.576012,102.955501 147.474675,102.544322 147.393899,102.128738 C147.222734,101.146473 147.109453,100.154997 147.054641,99.1594406 C146.948898,97.7379371 146.553831,96.3369926 146.780003,94.9272371 C146.889834,94.0998387 146.936476,93.2652774 146.919525,92.430795 C146.935504,91.8992046 146.912433,91.3671585 146.850498,90.838946 C146.793221,90.4453893 146.691884,90.059175 146.647824,89.6641498 C146.612078,89.220125 146.60423,88.7742951 146.624326,88.3292875 C146.644576,87.3372826 146.552942,86.3461559 146.351157,85.3746749 C146.057427,84.0398126 145.505214,82.7622217 145.270229,81.4244224 C145.349536,81.4420444 145.428844,81.4596663 145.505214,81.4802252 C145.514025,80.4522785 144.613742,78.2172286 144.280358,77.2421477 C144.231557,77.122709 144.201822,76.9963469 144.192239,76.8676814 C144.212396,76.6979958 144.2433,76.5297598 144.284764,76.3639875 C144.327355,76.0086116 144.137899,75.6708577 144.086496,75.3154818 C144.066471,75.0655007 144.084796,74.8139276 144.140836,74.5694862 C144.377289,73.2551828 144.671019,71.951159 144.96475,70.6486036 C145.092817,70.1768405 145.137058,69.6862593 145.09546,69.1991987 C145.026396,68.676934 145.187113,68.1503755 145.536055,67.7556678 C145.665099,67.6366182 145.775065,67.498433 145.862096,67.3459576 C145.910938,67.2151135 145.932916,67.075771 145.926717,66.9362474 C145.920883,66.3321962 145.83193,65.731822 145.662359,65.1520256 C145.920842,64.6835755 146.016304,64.1079254 146.091206,63.5645821 C146.255694,62.3648214 146.420183,61.1591867 146.414309,59.9476781 C146.427394,59.3013743 146.338173,58.6570676 146.149952,58.0386341 C146.012463,57.6566935 145.844495,57.2864196 145.647673,56.9313887 C144.875162,55.4438029 144.13643,53.8783868 143.161246,52.5156232 C142.867515,52.1015075 143.052565,51.5302628 143.073127,51.0192264 C143.095156,50.4024584 142.85136,49.8106548 142.61197,49.2438156 C142.48984,48.8949529 142.302436,48.572513 142.059757,48.2936991 C141.893881,48.1111536 141.660168,48.0049317 141.41355,48 C141.133766,48.0341807 140.882523,48.1879102 140.724753,48.4214582 C140.366003,48.9100763 140.217422,49.5217863 140.312062,50.1205073 C140.409629,50.713856 140.668203,51.2690453 141.059605,51.7255727 C141.248665,51.9552884 141.465195,52.1609453 141.704343,52.3379352 C141.94716,53.1093848 142.191936,53.8803448 142.438669,54.6508154 C142.826393,55.877009 143.214117,57.1090766 143.760456,58.2691879 C143.920539,58.6054733 144.096777,58.9476328 144.115869,59.3191621 C144.13643,59.7200613 143.969004,60.1018701 143.835357,60.4792734 C143.553799,61.2658734 143.394317,62.0909321 143.362451,62.9257866 C143.319516,62.9448219 143.278249,62.9674177 143.239084,62.9933374 C142.776459,63.2958475 142.631063,63.9552019 142.149345,64.225405 C141.868832,64.382534 141.528105,64.3722545 141.213814,64.4442108 C141.185909,64.4442108 141.158005,64.4588958 141.128632,64.4677067 C141.116883,64.4089669 141.105134,64.3516956 141.09779,64.2914873 C141.093281,64.2539307 141.093281,64.2159697 141.09779,64.1784132 C141.846643,63.7667311 142.475697,63.1675991 142.923324,62.4397147 C143.017643,62.3049142 143.090474,62.1562969 143.139216,61.9991661 C143.178856,61.8108759 143.186305,61.6172312 143.161246,61.4264529 C143.136714,60.7896968 143.045652,60.1572517 142.889545,59.5394364 C142.732859,58.9186347 142.390013,58.3606078 141.907017,57.940245 C141.666158,57.7464036 141.388583,57.6010225 141.149193,57.4057126 C140.682162,57.0283093 140.361996,56.4702811 139.827407,56.1897985 C139.124618,55.8475613 138.277289,56.0666855 137.828572,56.7067089 C137.75746,56.8499807 137.65745,56.9769788 137.534842,57.0797067 C137.441328,57.123943 137.350152,57.1729575 137.261673,57.2265562 C137.100121,57.3557838 137.091309,57.6039595 137.14418,57.8051434 C137.244396,58.2185286 137.300518,58.6413687 137.311607,59.0665809 C136.3327,60.2152363 136.328971,61.9035155 137.302795,63.0564827 C137.302795,63.3296228 137.302795,63.602763 137.292514,63.8759031 C137.292514,63.9273004 137.292514,63.9801663 137.282234,64.0315636 C137.112862,63.9725544 136.961257,63.8714949 136.841638,63.7378646 C136.677149,63.5322752 136.647776,63.2297652 136.446571,63.0608882 C136.301882,62.9655041 136.136943,62.905167 135.964853,62.8846688 C135.537145,62.7875108 135.136034,62.5975047 134.789932,62.328109 C134.518231,62.1181142 134.23625,61.8493795 133.919022,61.7877027 C133.371634,60.7610406 132.732622,59.785914 132.009775,58.874208 C131.826452,58.6583868 131.659539,58.429151 131.510433,58.1884207 C131.194673,57.6377349 131.100679,56.9901285 130.900943,56.3865769 C130.342855,54.6948703 128.950574,53.3379806 128.611315,51.5875341 C128.487948,50.9531441 128.085538,50.4009899 127.809431,49.8165287 C127.622913,49.4215035 127.417301,49.0044508 127.044264,48.7783025 C126.564015,48.4846035 125.900184,48.619705 125.500711,49.0147303 C125.10885,49.4333258 124.93264,50.0096054 125.023399,50.5757408 L125.023399,50.5757408 Z M142.460699,110.004279 C142.287156,110.094899 142.095364,110.145101 141.899674,110.151128 C141.800976,110.161397 141.702918,110.177084 141.605944,110.19812 C141.569227,109.889736 141.548666,109.576947 141.525168,109.272968 C141.447329,108.27586 141.291652,107.286094 141.137444,106.297796 C140.975892,105.26985 140.899522,104.144982 140.549983,103.158153 C139.98749,101.55162 139.417653,99.8966253 139.489617,98.1946392 C139.505772,97.8084249 139.554238,97.4251476 139.574799,97.0404019 C139.621796,96.0873484 139.488148,95.113736 139.721664,94.1871154 C139.825938,93.7656572 140.003645,93.3632895 140.071203,92.9344889 C140.114294,92.547247 140.119213,92.1567077 140.085889,91.7685036 C140.021702,90.4209226 140.133778,89.0707298 140.419273,87.7521688 C140.692442,88.1090132 140.78203,88.5701207 140.859869,89.0121378 L141.410613,91.9990574 C141.738122,93.7715312 142.027447,95.6512053 142.89542,97.2283693 C142.773522,97.796677 142.653092,98.4031655 142.854298,98.9465088 C142.940948,99.1814681 143.083407,99.3870574 143.171526,99.6249537 C143.318391,100.019979 143.29783,100.454654 143.34189,100.873175 C143.437352,101.754272 143.801578,102.620684 143.534283,103.470943 C143.259342,104.347678 143.080584,105.251713 143.001163,106.1671 C142.986559,106.421667 142.957136,106.675167 142.913044,106.926312 C142.866047,107.152461 142.789677,107.366861 142.747086,107.598883 C142.688362,107.92449 142.702912,108.259088 142.789677,108.57837 C142.855618,108.755327 142.896164,108.940729 142.910106,109.129055 C142.910106,109.317023 142.679528,109.452124 142.494478,109.481494 C142.548818,109.551982 142.607564,109.619533 142.667779,109.685615 C142.632427,109.810267 142.560249,109.921337 142.460699,110.004279 L142.460699,110.004279 Z" id="Shape" fill="url(#linearGradient-1)" fill-rule="nonzero"></path>
                    <path d="M135.922873,111.753627 C135.701858,111.759508 135.487262,111.830228 135.305054,111.957227 C135.172138,112.084573 135.082115,112.251116 135.047747,112.43325 C134.946225,112.795863 135.008352,113.185459 135.2174,113.497132 C135.343719,113.657858 135.508798,113.782804 135.696669,113.859885 C136.349833,114.146645 137.099132,113.93731 137.780571,113.729408 L140.449775,112.915008 C140.612482,112.881263 140.762746,112.802336 140.883803,112.687033 C141.034466,112.481229 141.039015,112.200926 140.895113,111.990205 C140.751719,111.787857 140.556028,111.629582 140.329604,111.532822 C139.499719,111.122754 138.563801,111.029557 137.651918,111.012351 C137.312612,111.012351 136.977548,110.92919 136.747103,111.194444 C136.625518,111.337824 136.648139,111.491241 136.464348,111.613115 C136.296356,111.700074 136.111403,111.748069 135.922873,111.753627 L135.922873,111.753627 Z" id="Path" fill="#3F3D56" fill-rule="nonzero"></path>
                    <path d="M141.922819,109.753173 C141.701905,109.759701 141.487474,109.830364 141.304972,109.956777 C141.172355,110.084364 141.082386,110.250805 141.047653,110.43281 C140.946282,110.795906 141.008387,111.185877 141.217314,111.498149 C141.344122,111.658028 141.509102,111.782402 141.696605,111.859475 C142.351213,112.146242 143.099133,111.938336 143.780603,111.73043 L146.44993,110.914579 C146.612645,110.880832 146.762915,110.801904 146.883979,110.686599 C147.034407,110.48124 147.038957,110.201468 146.895289,109.991189 C146.751728,109.788992 146.556075,109.630752 146.329754,109.533796 C145.498417,109.12372 144.562456,109.029087 143.65053,109.011881 C143.311209,109.011881 142.977543,108.930152 142.745673,109.195411 C142.624083,109.338795 142.646705,109.490781 142.462906,109.612657 C142.295856,109.700804 142.111081,109.748878 141.922819,109.753173 Z" id="Path" fill="#3F3D56" fill-rule="nonzero"></path>
                    <path d="M138.74402,79.524225 C140.330048,79.3609739 141.925505,79.3151009 143.517975,79.3869627 C143.623057,79.3858606 143.727589,79.4026381 143.827306,79.4366108 C144.177975,79.5826345 144.232144,80.0528307 144.26493,80.436873 C144.407479,81.9964059 145.071756,83.4493415 145.40532,84.9767492 C145.601205,85.9368406 145.690154,86.9165937 145.67046,87.8972227 C145.651192,88.3353508 145.65881,88.7742862 145.693268,89.2114359 C145.736032,89.6013191 145.835817,89.9839011 145.889985,90.3723241 C145.950125,90.8941412 145.972519,91.4197991 145.956983,91.9449991 C145.973291,92.7684761 145.928018,93.5920234 145.821562,94.4084186 C145.602037,95.8000242 145.985493,97.1828685 146.088128,98.5905367 C146.139278,99.5750697 146.247329,100.555633 146.411713,101.527073 C146.490115,101.937399 146.588474,102.343345 146.642642,102.756592 C146.802297,103.984651 146.568517,105.249216 146.820828,106.461213 C146.937718,107.027785 147.14869,107.664448 146.837934,108.149247 C146.741001,108.29527 146.598452,108.419391 146.492966,108.566874 C146.372465,108.70707 146.334399,108.902596 146.393182,109.079418 C146.454478,109.212299 146.597026,109.299913 146.632664,109.441556 C146.688258,109.664973 146.46018,109.847502 146.25491,109.942418 C144.708256,110.657934 142.714001,110.154152 141.670544,108.78299 C141.850156,108.753785 142.069681,108.620903 142.073957,108.433993 C142.060253,108.248174 142.020898,108.065285 141.957067,107.890785 C141.873112,107.575745 141.858988,107.245461 141.915728,106.924108 C141.957067,106.699232 142.031192,106.486037 142.076808,106.2597 C142.119603,106.011439 142.148161,105.760822 142.162337,105.509139 C142.23944,104.604634 142.412957,103.711492 142.679789,102.845667 C142.939227,102.006031 142.585707,101.156173 142.49305,100.280031 C142.450285,99.8653235 142.468817,99.4374741 142.327694,99.0461306 C142.242164,98.8154132 142.103892,98.6080596 142.019788,98.3773422 C141.824497,97.8385148 141.941387,97.2398177 142.059702,96.6790868 C141.217239,95.1210141 140.936419,93.2635929 140.618535,91.512769 L140.083977,88.5630907 C140.00415,88.1250197 139.917196,87.670886 139.656331,87.3175087 C139.379239,88.6197608 139.270446,89.9536732 139.332746,91.2849721 C139.365074,91.668557 139.360299,92.0544765 139.318491,92.4370989 C139.252919,92.8605676 139.080435,93.2592122 138.979225,93.6739195 C138.758275,94.5894879 138.887994,95.5503237 138.836677,96.4921765 C138.81672,96.8732983 138.769679,97.2514996 138.753998,97.6326214 C138.684149,99.3148142 139.237238,100.950279 139.7832,102.537557 C140.118189,103.511535 140.192314,104.618394 140.353394,105.637639 C140.495943,106.614538 140.654172,107.591436 140.729723,108.577096 C140.799572,109.482443 140.830933,110.462262 141.38117,111.173397 C140.877974,111.507791 140.359096,111.848027 139.77037,111.963385 C139.084294,112.07334 138.382287,111.933855 137.786093,111.569121 C137.193274,111.206016 136.663396,110.74464 136.218057,110.2038 C136.333522,110.162913 136.374861,109.990605 136.386265,109.866485 C136.557323,108.017825 135.871664,106.215893 135.612226,104.375995 C135.482537,103.454252 135.45957,102.520045 135.543802,101.592784 C135.576588,101.243787 135.623629,100.89479 135.636459,100.544334 C135.704882,98.7175773 134.845314,96.957992 134.876674,95.1297756 C134.890929,94.2726166 134.449028,93.4285997 134.232354,92.6006454 C134.045616,91.870527 134.039914,91.0966015 134.035637,90.3372784 L134,84.3503076 C134,83.5413364 134,82.7119219 134.255162,81.9482181 C134.568769,81.0282689 134.209547,79.9725177 134.155378,79 C135.636647,79.4809071 137.195718,79.6590217 138.74402,79.524225 L138.74402,79.524225 Z" id="Path" fill="#696791" fill-rule="nonzero"></path>
                    <path d="M132.903471,62.6460857 C132.309567,61.3925175 131.584127,60.2100772 130.740195,59.1200263 C130.563861,58.9071321 130.403271,58.6808583 130.259781,58.4431162 C129.955989,57.8989622 129.865558,57.2599825 129.673393,56.6647685 C129.136459,54.9958351 127.796951,53.6551447 127.470552,51.9293158 C127.351862,51.3020069 126.964705,50.7622295 126.699064,50.1786864 C126.519615,49.7891713 126.321797,49.3777734 125.9629,49.1574858 C125.500854,48.8657143 124.862186,49 124.477855,49.3909031 C124.103108,49.803255 123.935017,50.3718691 124.022874,50.9299982 C124.049332,51.184129 124.14761,51.4246101 124.305471,51.6214968 C124.510353,51.8592906 124.816971,51.9672461 125.092502,52.1102142 C125.804465,52.4828114 126.349259,53.1252749 126.612872,53.9031505 C127.083395,55.3109484 127.144153,56.8019011 127.743258,58.1615566 C128.342363,59.5212122 129.046028,60.8254311 129.56318,62.2157227 C129.85708,63.0049648 130.091636,63.8204663 130.522595,64.5498953 C130.953555,65.2793242 131.626135,65.8905857 132.4386,66 C132.433095,65.4711925 132.510882,64.9449773 132.668916,64.4419398 C132.845539,63.8671498 133.159221,63.1902397 132.903471,62.6460857 Z" id="Path" fill="#A0616A" fill-rule="nonzero"></path>
                    <path d="M143.007947,63.8701081 C142.971012,62.8035246 143.129576,61.7394204 143.475026,60.7356071 C143.607245,60.3509595 143.762459,59.9602782 143.749524,59.5514959 C143.730841,59.1713735 143.558381,58.822928 143.40173,58.4790078 C142.861356,57.2948965 142.481944,56.0398894 142.108281,54.7878991 L141.389698,52.4272186 C141.155413,52.2468981 140.943471,52.0366098 140.758782,51.8012235 C140.375735,51.3363881 140.122573,50.7694604 140.027265,50.1630772 C139.934632,49.552345 140.080192,48.9281889 140.431108,48.4314087 C140.586054,48.1923758 140.831728,48.0351342 141.105139,48 C141.346355,48.0055961 141.574868,48.1146153 141.737492,48.3016844 C141.974557,48.5855542 142.157948,48.9142107 142.277867,49.2700913 C142.512125,49.8493254 142.750694,50.4526942 142.729137,51.0801978 C142.709016,51.6021118 142.523622,52.1843627 142.815367,52.6082293 C143.769645,53.9989944 144.492539,55.5964133 145.248489,57.1153943 C145.441318,57.4773452 145.6057,57.8552006 145.739999,58.2452024 C145.924615,58.8772473 146.011943,59.5361664 145.998689,60.1971005 C145.998689,61.4324981 145.843475,62.6633705 145.682513,63.8882092 C145.580474,64.655996 145.446817,65.4916618 144.893509,66 C144.318642,65.2276879 143.740902,64.4734769 143.007947,63.8701081 Z" id="Path" fill="#A0616A" fill-rule="nonzero"></path>
                    <circle id="Oval" fill="#A0616A" fill-rule="nonzero" cx="139" cy="61" r="3"></circle>
                    <path d="M140.608814,64.17111 C140.682267,64.7849716 140.977545,65.3349915 141.265477,65.8653678 C141.438825,66.1927607 141.660651,66.541434 142,66.5774472 C141.116812,67.0939293 140.18905,67.5096471 139.23085,67.818266 C138.905173,67.9401951 138.563711,68.0015827 138.220147,68 C137.92901,67.9757661 137.644021,67.8942966 137.378384,67.7593353 C136.201233,67.188114 135.324504,66.0464361 135,64.6621992 C135.37952,64.6734652 135.759071,64.6411004 136.132634,64.5656184 C136.345957,64.547362 136.544795,64.4383371 136.687933,64.2611431 C136.773058,64.0952009 136.81288,63.9051873 136.802518,63.714397 C136.817209,63.1480075 136.818678,62.5799809 136.802518,62.0135914 C137.551533,61.9603946 138.302872,62.0636593 139.017838,62.3180667 C139.311647,62.4244694 139.605456,62.5521526 139.899265,62.6356377 C140.084365,62.6880206 140.594124,62.6356377 140.730745,62.7551361 C140.955509,62.9237434 140.557398,63.7536842 140.608814,64.17111 Z" id="Path" fill="#A0616A" fill-rule="nonzero"></path>
                    <path d="M139.003893,66.4587622 C139.070435,65.6179497 139.641731,64.9164525 140.421729,64.7177956 C140.726977,64.6458177 141.0579,64.6548149 141.330341,64.4958636 C141.798199,64.2214477 141.939411,63.5526526 142.388725,63.2452468 C142.838039,62.937841 143.475637,63.1087887 143.866469,63.4971696 C144.257301,63.8855506 144.45557,64.4388811 144.615326,64.9802152 C144.853827,65.7121703 144.983256,66.4784884 144.999026,67.2520191 C145.004975,67.39351 144.983626,67.5348033 144.936265,67.6673918 C144.851683,67.8221629 144.744871,67.962272 144.619605,68.0827645 C144.280914,68.4823516 144.124675,69.017264 144.191687,69.5478156 C144.232222,70.0417031 144.189242,70.5392347 144.064738,71.0173653 C143.779459,72.33996 143.494181,73.6610552 143.264531,74.9956463 C143.210646,75.2412738 143.192847,75.4941262 143.211755,75.7454165 C143.255973,76.1068058 143.445683,76.448701 143.404318,76.8100903 C143.363922,76.9783262 143.333905,77.1491295 143.314455,77.3214336 C143.323775,77.4518479 143.35266,77.5798914 143.400039,77.7008174 C143.72383,78.6890146 144.598209,80.9533207 144.589651,82 C143.070542,81.5906254 140.831104,81.4991535 139.262071,81.4916558 C138.830582,81.4869086 138.399169,81.5069323 137.969758,81.5516374 C136.938475,81.6686015 135.882944,81.9850046 134.883042,81.6925942 C133.95446,81.4211774 133.132857,80.6429158 132.172894,80.740386 C131.96464,80.1675615 132.20998,78.2556473 132.405396,77.6768247 C133.167234,75.3976642 133.315321,72.9415437 132.833314,70.5794995 C132.657868,69.7307595 132.898928,68.8295357 132.703512,67.9867939 C132.667797,67.7873974 132.595095,67.5973418 132.489553,67.4274653 C132.381486,67.2559703 132.19736,67.1546584 132.001727,67.1590476 C131.983949,65.803471 132.103489,64.4497562 132.358325,63.120785 C132.452467,62.6484297 132.643604,62.0906006 133.104329,62.0096255 C133.512278,61.936148 133.854612,62.2990368 134.182683,62.5644554 C134.519065,62.8381935 134.908663,63.0306946 135.323798,63.1282827 C135.490935,63.1492142 135.651129,63.2108269 135.791655,63.3082275 C135.987071,63.4791752 136.015599,63.786581 136.175355,63.9950171 C136.460633,64.3684027 137.098231,64.3369123 137.300779,64.7672805 C137.345062,64.8954738 137.380808,65.0267506 137.407759,65.1601601 C137.503571,65.4158884 137.666882,65.6375193 137.878469,65.7989643 C138.196193,66.1129856 138.582786,66.3396318 139.003893,66.4587622 Z" id="Path" fill="#F86D70" fill-rule="nonzero"></path>
                    <path d="M136.028684,57.8726939 C135.976315,57.6588396 135.985044,57.4043998 136.145059,57.2607896 C136.225067,57.1936674 136.329804,57.1686918 136.415631,57.1046916 C136.536589,56.9956073 136.635579,56.8612347 136.706568,56.7097635 C137.154807,56.0366733 137.990334,55.809065 138.683488,56.1712253 C139.20863,56.4662506 139.525752,57.0563012 139.992706,57.4543512 C140.22982,57.6604006 140.504756,57.8133766 140.743325,58.019426 C141.221123,58.4623096 141.5608,59.0518253 141.71651,59.7084067 C141.871121,60.3603666 141.961324,61.0279847 141.985627,61.7002176 C142.010455,61.9019694 142.003076,62.1067852 141.963807,62.305878 C141.915463,62.4728769 141.84333,62.6308436 141.749968,62.7741721 C141.269921,63.5546623 140.637133,64.2633473 139.844328,64.6660803 C139.051524,65.0688132 138.087066,65.1343744 137.304445,64.7129097 C137.225708,64.6787719 137.157965,64.6207253 137.109517,64.5458848 C137.065032,64.4319171 137.054365,64.3060057 137.078968,64.1852983 C137.12139,63.7082046 137.033439,63.2281785 136.825853,62.8038307 C136.680384,62.4916347 136.462181,62.2231461 136.345806,61.9000231 C136.237591,61.5383392 136.191265,61.1586265 136.209065,60.7792392 C136.195973,59.7973826 136.258525,58.818648 136.028684,57.8726939 Z" id="Path" fill="#2D293D" fill-rule="nonzero"></path>
                </g>
            </g>
        </g>
    </g>
</svg>