<?xml version="1.0" encoding="UTF-8"?>
<svg width="285px" height="29px" viewBox="0 0 285 29" version="1.1" xmlns="http://www.w3.org/2000/svg" xmlns:xlink="http://www.w3.org/1999/xlink">
    <title>Group 14</title>
    <g id="Page-1" stroke="none" stroke-width="1" fill="none" fill-rule="evenodd">
        <g id="Infosoft-Global-option-2-Copy" transform="translate(-311.000000, -1617.000000)" fill="#373C8B">
            <g id="Group-26" transform="translate(0.000000, 1035.000000)">
                <g id="Group-25" transform="translate(212.000000, 97.000000)">
                    <g id="Group-24" transform="translate(0.000000, 441.000000)">
                        <g id="Group-12">
                            <g id="Group-14" transform="translate(99.000000, 44.000000)">
                                <path d="M54,28.5833333 L54,5.875 L67.5313237,5.875 L67.5313237,9.27777778 L57.9737558,9.27777778 L57.9737558,15.7013889 L66.09255,15.7013889 L66.09255,19.1041667 L57.9737558,19.1041667 L57.9737558,28.5833333 L54,28.5833333 Z M70.2375884,22.2291667 L70.2375884,11.5347222 L74.1770877,11.5347222 L74.1770877,21.7083333 C74.1770877,24.5208333 74.9649876,25.5625 76.7805829,25.5625 C78.2536131,25.5625 79.2470521,24.8680556 80.5145431,23.2013889 L80.5145431,11.5347222 L84.4540425,11.5347222 L84.4540425,28.5833333 L81.23393,28.5833333 L80.9256213,26.0833333 L80.8228518,26.0833333 C79.3498216,27.8541667 77.7055089,29 75.4103223,29 C71.8133882,29 70.2375884,26.5347222 70.2375884,22.2291667 Z M87.7769245,26.6388889 L89.6267763,24.0694444 C91.134063,25.25 92.5728367,25.9791667 94.2856625,25.9791667 C96.1012578,25.9791667 96.9576707,25.1111111 96.9576707,23.9305556 C96.9576707,22.5069444 95.1420753,21.8819444 93.3607365,21.1875 C91.134063,20.3541667 88.6333374,19.0694444 88.6333374,16.2222222 C88.6333374,13.2361111 90.9970369,11.1180556 94.7652537,11.1180556 C97.0946967,11.1180556 98.9788051,12.0902778 100.349066,13.1666667 L98.5334704,15.5972222 C97.3687489,14.7291667 96.1697708,14.1388889 94.8337667,14.1388889 C93.1551974,14.1388889 92.3672976,14.9375 92.3672976,16.0138889 C92.3672976,17.3333333 94.0458668,17.8888889 95.8614622,18.5486111 C98.1566487,19.4166667 100.691631,20.5277778 100.691631,23.7222222 C100.691631,26.6388889 98.3964443,29 94.1486364,29 C91.8534498,29 89.4212372,27.9930556 87.7769245,26.6388889 Z M106.20693,8.54861111 C104.802413,8.54861111 103.774717,7.61111111 103.774717,6.29166667 C103.774717,4.9375 104.802413,4 106.20693,4 C107.611447,4 108.639143,4.9375 108.639143,6.29166667 C108.639143,7.61111111 107.611447,8.54861111 106.20693,8.54861111 Z M104.220052,28.5833333 L104.220052,11.5347222 L108.159551,11.5347222 L108.159551,28.5833333 L104.220052,28.5833333 Z M112.099051,20.0763889 C112.099051,14.3819444 115.901524,11.1180556 120.080819,11.1180556 C124.29437,11.1180556 128.096843,14.3819444 128.096843,20.0763889 C128.096843,25.7361111 124.29437,29 120.080819,29 C115.901524,29 112.099051,25.7361111 112.099051,20.0763889 Z M116.141319,20.0763889 C116.141319,23.4791667 117.61435,25.7361111 120.080819,25.7361111 C122.547288,25.7361111 124.054575,23.4791667 124.054575,20.0763889 C124.054575,16.6388889 122.547288,14.3819444 120.080819,14.3819444 C117.61435,14.3819444 116.141319,16.6388889 116.141319,20.0763889 Z M132.002086,28.5833333 L132.002086,11.5347222 L135.256455,11.5347222 L135.530507,13.8263889 L135.667533,13.8263889 C137.17482,12.3333333 138.887646,11.1180556 141.182832,11.1180556 C144.779767,11.1180556 146.355566,13.5833333 146.355566,17.8888889 L146.355566,28.5833333 L142.416067,28.5833333 L142.416067,18.4097222 C142.416067,15.5972222 141.628167,14.5555556 139.778315,14.5555556 C138.305285,14.5555556 137.346103,15.2847222 135.941586,16.6736111 L135.941586,28.5833333 L132.002086,28.5833333 Z M150.295066,17.2986111 C150.295066,9.86805556 154.885439,5.45833333 160.640533,5.45833333 C163.381055,5.45833333 165.607728,6.8125 167.012245,8.34027778 L164.819828,10.8402778 C163.655107,9.69444444 162.387616,8.96527778 160.67479,8.96527778 C157.009343,8.96527778 154.371591,12.0902778 154.371591,17.1944444 C154.371591,22.3680556 156.803804,25.4930556 160.537764,25.4930556 C162.524642,25.4930556 163.997672,24.6597222 165.265163,23.2361111 L167.45758,25.7013889 C165.641985,27.8194444 163.312542,29 160.469251,29 C154.782669,29 150.295066,24.8333333 150.295066,17.2986111 Z M170.814719,28.5833333 L170.814719,4.06944444 L174.754218,4.06944444 L174.754218,10.3888889 L174.617192,13.6875 C176.021709,12.3333333 177.700278,11.1180556 179.995465,11.1180556 C183.592399,11.1180556 185.168199,13.5833333 185.168199,17.8888889 L185.168199,28.5833333 L181.228699,28.5833333 L181.228699,18.4097222 C181.228699,15.5972222 180.440799,14.5555556 178.590948,14.5555556 C177.117917,14.5555556 176.158735,15.2847222 174.754218,16.6736111 L174.754218,28.5833333 L170.814719,28.5833333 Z M189.210467,24 C189.210467,20.3541667 192.225041,18.4444444 199.1106,17.6805556 C199.076344,15.875 198.322701,14.3472222 196.061771,14.3472222 C194.383201,14.3472222 192.807402,15.1111111 191.334371,16.0138889 L189.895598,13.3402778 C191.74545,12.1597222 194.109149,11.1180556 196.781157,11.1180556 C200.994709,11.1180556 203.0501,13.7222222 203.0501,18.4791667 L203.0501,28.5833333 L199.829987,28.5833333 L199.521679,26.7083333 L199.418909,26.7083333 C197.911622,27.9930556 196.198797,29 194.211919,29 C191.265858,29 189.210467,26.9861111 189.210467,24 Z M193.047197,23.6875 C193.047197,25.2152778 194.040636,25.875 195.445153,25.875 C196.815414,25.875 197.877366,25.1805556 199.1106,24 L199.1106,20.1805556 C194.554484,20.7708333 193.047197,21.9861111 193.047197,23.6875 Z M207.846012,28.5833333 L207.846012,11.5347222 L211.100381,11.5347222 L211.374433,14.5555556 L211.511459,14.5555556 C212.710437,12.3333333 214.491776,11.1180556 216.273115,11.1180556 C217.129528,11.1180556 217.677632,11.2222222 218.19148,11.4652778 L217.506349,14.9375 C216.923989,14.7638889 216.478654,14.6597222 215.759267,14.6597222 C214.423263,14.6597222 212.813207,15.5972222 211.785511,18.1666667 L211.785511,28.5833333 L207.846012,28.5833333 Z M221.206053,22.8194444 L221.206053,14.6944444 L218.808097,14.6944444 L218.808097,11.7083333 L221.411592,11.5347222 L221.891183,6.88194444 L225.179809,6.88194444 L225.179809,11.5347222 L229.461873,11.5347222 L229.461873,14.6944444 L225.179809,14.6944444 L225.179809,22.8194444 C225.179809,24.8333333 225.933452,25.8055556 227.543508,25.8055556 C228.125869,25.8055556 228.811,25.6319444 229.290591,25.4236111 L229.975721,28.375 C229.050795,28.6875 227.886074,29 226.55007,29 C222.644827,29 221.206053,26.5 221.206053,22.8194444 Z M231.311725,26.6388889 L233.161577,24.0694444 C234.668864,25.25 236.107637,25.9791667 237.820463,25.9791667 C239.636059,25.9791667 240.492471,25.1111111 240.492471,23.9305556 C240.492471,22.5069444 238.676876,21.8819444 236.895537,21.1875 C234.668864,20.3541667 232.168138,19.0694444 232.168138,16.2222222 C232.168138,13.2361111 234.531838,11.1180556 238.300054,11.1180556 C240.629497,11.1180556 242.513606,12.0902778 243.883866,13.1666667 L242.068271,15.5972222 C240.90355,14.7291667 239.704572,14.1388889 238.368567,14.1388889 C236.689998,14.1388889 235.902098,14.9375 235.902098,16.0138889 C235.902098,17.3333333 237.580668,17.8888889 239.396263,18.5486111 C241.691449,19.4166667 244.226432,20.5277778 244.226432,23.7222222 C244.226432,26.6388889 241.931245,29 237.683437,29 C235.388251,29 232.956038,27.9930556 231.311725,26.6388889 Z M250.078309,28.5833333 L256.387404,16.9448271 L250.453445,5.99703344 L254.852759,5.99703344 L257.342294,11.0046993 C257.853842,12.0407681 258.331287,13.1113726 259.013351,14.458262 L259.149764,14.458262 C259.695415,13.1113726 260.17286,12.0407681 260.650305,11.0046993 L263.003427,5.99703344 L267.198122,5.99703344 L261.264163,17.1175053 L267.607361,28.5833333 L263.208046,28.5833333 L260.479789,23.2648468 C259.900035,22.0906355 259.354383,20.9509598 258.706422,19.5695348 L258.570009,19.5695348 C257.990255,20.9509598 257.444603,22.0906355 256.898952,23.2648468 L254.273005,28.5833333 L250.078309,28.5833333 Z M274.632623,28.5833333 L274.632623,9.38152486 L268.187116,9.38152486 L268.187116,5.99703344 L285,5.99703344 L285,9.38152486 L278.588596,9.38152486 L278.588596,28.5833333 L274.632623,28.5833333 Z" id="FusionCharts"></path>
                                <g id="FusionCharts-XT-logo">
                                    <g id="Group-2">
                                        <rect id="Rectangle-2-Copy-4" x="0.136186594" y="0.0250352941" width="7.88618659" height="27.7867294"></rect>
                                        <rect id="Rectangle-2-Copy-5" x="11.4846014" y="16.1411765" width="8.07853261" height="11.6705882"></rect>
                                        <polygon id="Rectangle-2-Copy-6" points="23.2177083 8.89411765 30.7192029 8.89411765 30.7192029 27.8117647 23.2177083 27.8117647"></polygon>
                                    </g>
                                </g>
                            </g>
                        </g>
                    </g>
                </g>
            </g>
        </g>
    </g>
</svg>