<?xml version="1.0" encoding="UTF-8"?>
<svg width="1440px" height="631px" viewBox="0 0 1440 631" version="1.1" xmlns="http://www.w3.org/2000/svg" xmlns:xlink="http://www.w3.org/1999/xlink">
    <title>22133</title>
    <defs>
        <rect id="path-1" x="0" y="0" width="1440" height="631"></rect>
        <path d="M304.526777,51.4815032 C373.985618,119.000153 373.985618,228.46721 304.526777,295.98586 C235.067936,363.50451 122.452994,363.50451 52.9941529,295.98586 C-16.4646879,228.46721 -16.4646879,119.000153 52.9941529,51.4815032 C122.452994,-16.0371465 235.067936,-16.0371465 304.526777,51.4815032" id="path-3"></path>
        <linearGradient x1="83.5425207%" y1="81.6943024%" x2="-3.54373864%" y2="-0.594224378%" id="linearGradient-5">
            <stop stop-color="#FFD547" offset="0%"></stop>
            <stop stop-color="#FFCC1E" offset="100%"></stop>
        </linearGradient>
        <path d="M52.9497962,295.70879 C-16.5067643,228.19014 -16.5067643,118.723083 52.9497962,51.2044331 C122.408637,-16.3142166 235.02358,-16.3142166 304.48242,51.2044331 C373.941261,118.723083 373.941261,228.19014 304.48242,295.70879 C235.02358,363.227439 122.408637,363.227439 52.9497962,295.70879" id="path-6"></path>
        <linearGradient x1="83.5425207%" y1="81.6946071%" x2="-3.54373864%" y2="-0.594710863%" id="linearGradient-8">
            <stop stop-color="#FFD547" offset="0%"></stop>
            <stop stop-color="#FFCC1E" offset="100%"></stop>
        </linearGradient>
    </defs>
    <g id="Page-1" stroke="none" stroke-width="1" fill="none" fill-rule="evenodd">
        <g id="Infosoft-Global">
            <g id="22133">
                <mask id="mask-2" fill="white">
                    <use xlink:href="#path-1"></use>
                </mask>
                <use id="Mask" fill="#FFD74E" xlink:href="#path-1"></use>
                <g mask="url(#mask-2)">
                    <g transform="translate(0.000000, -151.000000)">
                        <g id="Group-5" stroke-width="1" fill="none" transform="translate(106.000000, 124.000000)">
                            <mask id="mask-4" fill="white">
                                <use xlink:href="#path-3"></use>
                            </mask>
                            <g id="Clip-4"></g>
                            <path d="M304.526777,51.4815032 C373.985618,119.000153 373.985618,228.46721 304.526777,295.98586 C235.067936,363.50451 122.452994,363.50451 52.9941529,295.98586 C-16.4646879,228.46721 -16.4646879,119.000153 52.9941529,51.4815032 C122.452994,-16.0371465 235.067936,-16.0371465 304.526777,51.4815032" id="Fill-3" fill="url(#linearGradient-5)" mask="url(#mask-4)"></path>
                        </g>
                        <g id="Group-8" stroke-width="1" fill="none" transform="translate(970.000000, 335.000000)">
                            <mask id="mask-7" fill="white">
                                <use xlink:href="#path-6"></use>
                            </mask>
                            <g id="Clip-7"></g>
                            <path d="M52.9497962,295.70879 C-16.5067643,228.19014 -16.5067643,118.723083 52.9497962,51.2044331 C122.408637,-16.3142166 235.02358,-16.3142166 304.48242,51.2044331 C373.941261,118.723083 373.941261,228.19014 304.48242,295.70879 C235.02358,363.227439 122.408637,363.227439 52.9497962,295.70879" id="Fill-6" fill="url(#linearGradient-8)" mask="url(#mask-7)"></path>
                        </g>
                        <g id="Group-159" stroke-width="1" fill="none">
                            <path d="M335.088685,262.043697 C333.04393,262.043697 330.999176,261.285582 329.440507,259.771569 C326.320887,256.741326 326.320887,251.829097 329.440507,248.798854 L535.588716,48.5567728 C538.710618,45.52653 543.767734,45.5287467 546.885071,48.5567728 C550.004691,51.5870157 550.004691,56.4992454 546.885071,59.5294883 L340.736862,259.771569 C339.175911,261.285582 337.131157,262.043697 335.088685,262.043697" id="Fill-152" fill="#FFFFFE"></path>
                            <path d="M1.14332805,664.008621 C0.851220285,664.008621 0.55911252,663.900003 0.335467512,663.684982 C-0.109540412,663.250507 -0.109540412,662.550026 0.335467512,662.117768 L295.485261,375.421773 C295.932552,374.987298 296.653693,374.987298 297.0987,375.421773 C297.54599,375.854031 297.54599,376.554512 297.0987,376.988987 L1.9489065,663.684982 C1.72754358,663.900003 1.43543582,664.008621 1.14332805,664.008621" id="Fill-154" fill="#FFFFFE"></path>
                            <path d="M1131.53876,470.414454 C1131.24666,470.414454 1130.95455,470.305836 1130.7309,470.090815 C1130.2859,469.656339 1130.2859,468.955859 1130.7309,468.523601 L1436.53122,171.482219 C1436.97851,171.049961 1437.69965,171.049961 1438.14466,171.482219 C1438.59195,171.916695 1438.59195,172.617175 1438.14466,173.05165 L1132.34434,470.090815 C1132.12298,470.305836 1131.83087,470.414454 1131.53876,470.414454" id="Fill-155" fill="#FFFFFE"></path>
                            <path d="M1041.77724,342.215454 C1035.93737,342.215454 1030.09521,340.049728 1025.64057,335.72271 C1016.729,327.066457 1016.729,313.030248 1025.64057,304.373995 L1331.44089,7.33483029 C1340.35246,-1.32142298 1354.80266,-1.32142298 1363.71423,7.33483029 C1372.6258,15.9910836 1372.6258,30.0272924 1363.71423,38.6835457 L1057.91391,335.72271 C1053.45927,340.049728 1047.61712,342.215454 1041.77724,342.215454" id="Fill-156" fill="#FFD02E"></path>
                            <path d="M57.4334073,846.14683 C51.5935341,846.14683 45.7536609,843.983321 41.2967353,839.654086 C32.3851664,830.997833 32.3851664,816.961624 41.2967353,808.305371 L347.097052,511.266206 C356.008621,502.609953 370.458827,502.609953 379.372678,511.266206 C388.281965,519.92246 388.281965,533.958668 379.372678,542.614922 L73.5700792,839.654086 C69.1154358,843.983321 63.2732805,846.14683 57.4334073,846.14683" id="Fill-157" fill="#FFD02E"></path>
                            <path d="M968.750301,779.645525 C968.166086,779.645525 967.58187,779.428287 967.136862,778.996029 C966.244564,778.129295 966.244564,776.728334 967.136862,775.861601 L1193.25338,556.223305 C1194.14339,555.356572 1195.58796,555.356572 1196.48025,556.223305 C1197.37255,557.090039 1197.37255,558.491 1196.48025,559.357734 L970.36374,778.996029 C969.918732,779.428287 969.334517,779.645525 968.750301,779.645525" id="Fill-158" fill="#FFFFFE"></path>
                        </g>
                        <path d="M897.989718,599 C895.944497,599 893.899275,598.241641 892.34025,596.727139 C889.219917,593.695919 889.219917,588.782105 892.34025,585.750885 L1051.36081,431.271752 C1054.48343,428.242749 1059.5417,428.242749 1062.65975,431.271752 C1065.78008,434.302972 1065.78008,439.216786 1062.65975,442.248006 L903.639187,596.727139 C902.07788,598.241641 900.032658,599 897.989718,599" id="Fill-160" fill="#FFFFFE"></path>
                        <path d="M535.148539,186 C534.85466,186 534.560781,185.892002 534.33578,185.67821 C533.888073,185.246218 533.888073,184.54974 534.33578,184.117748 L607.040998,114.322341 C607.488704,113.892553 608.214218,113.892553 608.66422,114.322341 C609.111927,114.754333 609.111927,115.450811 608.66422,115.882803 L535.959002,185.67821 C535.736297,185.892002 535.442418,186 535.148539,186" id="Fill-161" fill="#FFFFFE"></path>
                        <path d="M80.1405678,371 C79.8485824,371 79.5565971,370.891512 79.3353269,370.67675 C78.8882244,370.242799 78.8882244,369.543163 79.3353269,369.111426 L315.05191,140.323803 C315.499013,139.892066 316.219852,139.892066 316.664673,140.323803 C317.111776,140.757755 317.111776,141.457391 316.664673,141.891342 L80.9480898,370.67675 C80.7245385,370.891512 80.4325531,371 80.1405678,371" id="Fill-162" fill="#FFFFFE"></path>
                    </g>
                </g>
            </g>
        </g>
    </g>
</svg>