<?xml version="1.0" encoding="UTF-8"?>
<svg width="349px" height="278px" viewBox="0 0 349 278" version="1.1" xmlns="http://www.w3.org/2000/svg" xmlns:xlink="http://www.w3.org/1999/xlink">
    <title>undraw_data_xmfy</title>
    <defs>
        <linearGradient x1="50%" y1="100%" x2="50%" y2="0%" id="linearGradient-1">
            <stop stop-color="#808080" stop-opacity="0.25" offset="0%"></stop>
            <stop stop-color="#808080" stop-opacity="0.12" offset="54%"></stop>
            <stop stop-color="#808080" stop-opacity="0.1" offset="100%"></stop>
        </linearGradient>
        <linearGradient x1="50%" y1="100%" x2="50%" y2="0%" id="linearGradient-2">
            <stop stop-color="#808080" stop-opacity="0.25" offset="0%"></stop>
            <stop stop-color="#808080" stop-opacity="0.12" offset="54%"></stop>
            <stop stop-color="#808080" stop-opacity="0.1" offset="100%"></stop>
        </linearGradient>
        <linearGradient x1="50%" y1="100%" x2="50%" y2="0%" id="linearGradient-3">
            <stop stop-color="#808080" stop-opacity="0.25" offset="0%"></stop>
            <stop stop-color="#808080" stop-opacity="0.12" offset="54%"></stop>
            <stop stop-color="#808080" stop-opacity="0.1" offset="100%"></stop>
        </linearGradient>
        <linearGradient x1="50%" y1="100%" x2="50%" y2="0%" id="linearGradient-4">
            <stop stop-color="#808080" stop-opacity="0.25" offset="0%"></stop>
            <stop stop-color="#808080" stop-opacity="0.12" offset="54%"></stop>
            <stop stop-color="#808080" stop-opacity="0.1" offset="100%"></stop>
        </linearGradient>
        <linearGradient x1="50%" y1="100%" x2="50%" y2="0%" id="linearGradient-5">
            <stop stop-color="#808080" stop-opacity="0.25" offset="0%"></stop>
            <stop stop-color="#808080" stop-opacity="0.12" offset="54%"></stop>
            <stop stop-color="#808080" stop-opacity="0.1" offset="100%"></stop>
        </linearGradient>
        <linearGradient x1="49.9285714%" y1="100.071429%" x2="49.9285714%" y2="0.0714285714%" id="linearGradient-6">
            <stop stop-color="#808080" stop-opacity="0.25" offset="0%"></stop>
            <stop stop-color="#808080" stop-opacity="0.12" offset="54%"></stop>
            <stop stop-color="#808080" stop-opacity="0.1" offset="100%"></stop>
        </linearGradient>
        <linearGradient x1="50%" y1="100%" x2="50%" y2="4.0602442e-13%" id="linearGradient-7">
            <stop stop-color="#808080" stop-opacity="0.25" offset="0%"></stop>
            <stop stop-color="#808080" stop-opacity="0.12" offset="54%"></stop>
            <stop stop-color="#808080" stop-opacity="0.1" offset="100%"></stop>
        </linearGradient>
        <linearGradient x1="50.2514286%" y1="62.8225432%" x2="50.2514286%" y2="36.8225432%" id="linearGradient-8">
            <stop stop-color="#808080" stop-opacity="0.25" offset="0%"></stop>
            <stop stop-color="#808080" stop-opacity="0.12" offset="54%"></stop>
            <stop stop-color="#808080" stop-opacity="0.1" offset="100%"></stop>
        </linearGradient>
        <linearGradient x1="50.0349437%" y1="100.017363%" x2="50.0349437%" y2="-0.00121488599%" id="linearGradient-9">
            <stop stop-color="#808080" stop-opacity="0.25" offset="0%"></stop>
            <stop stop-color="#808080" stop-opacity="0.12" offset="54%"></stop>
            <stop stop-color="#808080" stop-opacity="0.1" offset="100%"></stop>
        </linearGradient>
        <linearGradient x1="49.9000045%" y1="65.6138856%" x2="49.9000045%" y2="34.6138856%" id="linearGradient-10">
            <stop stop-color="#808080" stop-opacity="0.25" offset="0%"></stop>
            <stop stop-color="#808080" stop-opacity="0.12" offset="54%"></stop>
            <stop stop-color="#808080" stop-opacity="0.1" offset="100%"></stop>
        </linearGradient>
        <linearGradient x1="50.0140677%" y1="100%" x2="50.0140677%" y2="-0.00389417185%" id="linearGradient-11">
            <stop stop-color="#808080" stop-opacity="0.25" offset="0%"></stop>
            <stop stop-color="#808080" stop-opacity="0.12" offset="54%"></stop>
            <stop stop-color="#808080" stop-opacity="0.1" offset="100%"></stop>
        </linearGradient>
        <linearGradient x1="50%" y1="100%" x2="50%" y2="0%" id="linearGradient-12">
            <stop stop-color="#808080" stop-opacity="0.25" offset="0%"></stop>
            <stop stop-color="#808080" stop-opacity="0.12" offset="54%"></stop>
            <stop stop-color="#808080" stop-opacity="0.1" offset="100%"></stop>
        </linearGradient>
        <linearGradient x1="50%" y1="100%" x2="50%" y2="0%" id="linearGradient-13">
            <stop stop-color="#808080" stop-opacity="0.25" offset="0%"></stop>
            <stop stop-color="#808080" stop-opacity="0.12" offset="54%"></stop>
            <stop stop-color="#808080" stop-opacity="0.1" offset="100%"></stop>
        </linearGradient>
        <linearGradient x1="50%" y1="100%" x2="50%" y2="0%" id="linearGradient-14">
            <stop stop-color="#808080" stop-opacity="0.25" offset="0%"></stop>
            <stop stop-color="#808080" stop-opacity="0.12" offset="54%"></stop>
            <stop stop-color="#808080" stop-opacity="0.1" offset="100%"></stop>
        </linearGradient>
        <linearGradient x1="50.0273059%" y1="99.999138%" x2="50.0273059%" y2="0.0062036416%" id="linearGradient-15">
            <stop stop-color="#808080" stop-opacity="0.25" offset="0%"></stop>
            <stop stop-color="#808080" stop-opacity="0.12" offset="54%"></stop>
            <stop stop-color="#808080" stop-opacity="0.1" offset="100%"></stop>
        </linearGradient>
        <linearGradient x1="50%" y1="100%" x2="50%" y2="0%" id="linearGradient-16">
            <stop stop-color="#808080" stop-opacity="0.25" offset="0%"></stop>
            <stop stop-color="#808080" stop-opacity="0.12" offset="54%"></stop>
            <stop stop-color="#808080" stop-opacity="0.1" offset="100%"></stop>
        </linearGradient>
        <linearGradient x1="50%" y1="100%" x2="50%" y2="0%" id="linearGradient-17">
            <stop stop-color="#808080" stop-opacity="0.25" offset="0%"></stop>
            <stop stop-color="#808080" stop-opacity="0.12" offset="54%"></stop>
            <stop stop-color="#808080" stop-opacity="0.1" offset="100%"></stop>
        </linearGradient>
        <linearGradient x1="50%" y1="100%" x2="50%" y2="0%" id="linearGradient-18">
            <stop stop-color="#808080" stop-opacity="0.25" offset="0%"></stop>
            <stop stop-color="#808080" stop-opacity="0.12" offset="54%"></stop>
            <stop stop-color="#808080" stop-opacity="0.1" offset="100%"></stop>
        </linearGradient>
        <linearGradient x1="50%" y1="50%" x2="50%" y2="50%" id="linearGradient-19">
            <stop stop-color="#808080" stop-opacity="0.25" offset="0%"></stop>
            <stop stop-color="#808080" stop-opacity="0.12" offset="54%"></stop>
            <stop stop-color="#808080" stop-opacity="0.1" offset="100%"></stop>
        </linearGradient>
        <linearGradient x1="50%" y1="100%" x2="50%" y2="0%" id="linearGradient-20">
            <stop stop-color="#808080" stop-opacity="0.25" offset="0%"></stop>
            <stop stop-color="#808080" stop-opacity="0.12" offset="54%"></stop>
            <stop stop-color="#808080" stop-opacity="0.1" offset="100%"></stop>
        </linearGradient>
        <linearGradient x1="0.0174947516%" y1="49.9860514%" x2="100%" y2="49.9860514%" id="linearGradient-21">
            <stop stop-color="#808080" stop-opacity="0.25" offset="0%"></stop>
            <stop stop-color="#808080" stop-opacity="0.12" offset="54%"></stop>
            <stop stop-color="#808080" stop-opacity="0.1" offset="100%"></stop>
        </linearGradient>
    </defs>
    <g id="Page-1" stroke="none" stroke-width="1" fill="none" fill-rule="evenodd">
        <g id="Infosoft-Global-option-2-Copy" transform="translate(-891.000000, -177.000000)">
            <g id="Group-34">
                <g id="undraw_data_xmfy" transform="translate(891.000000, 177.000000)">
                    <ellipse id="Oval" fill="#F2F2F2" fill-rule="nonzero" cx="145" cy="271" rx="26" ry="7"></ellipse>
                    <ellipse id="Oval" fill="#F2F2F2" fill-rule="nonzero" cx="147" cy="198" rx="26" ry="7"></ellipse>
                    <ellipse id="Oval" fill="#F2F2F2" fill-rule="nonzero" cx="26" cy="201" rx="26" ry="7"></ellipse>
                    <rect id="Rectangle" fill="#F5F5F5" fill-rule="nonzero" x="9" y="2" width="150" height="5"></rect>
                    <rect id="Rectangle" fill="url(#linearGradient-1)" fill-rule="nonzero" opacity="0.600000024" x="6" y="0" width="155" height="190"></rect>
                    <rect id="Rectangle" fill="#3C3C3C" fill-rule="nonzero" opacity="0.209999993" x="9" y="8" width="150" height="179"></rect>
                    <circle id="Oval" fill="#FF5252" fill-rule="nonzero" cx="12.5" cy="4.5" r="1.5"></circle>
                    <circle id="Oval" fill="#FFFF00" fill-rule="nonzero" cx="15.5" cy="4.5" r="1.5"></circle>
                    <circle id="Oval" fill="#69F0AE" fill-rule="nonzero" cx="19.5" cy="4.5" r="1.5"></circle>
                    <g id="Group" opacity="0.2" transform="translate(13.000000, 13.000000)" fill="#FFD74E" fill-rule="nonzero">
                        <rect id="Rectangle" x="0.243866667" y="0" width="58.6066667" height="4"></rect>
                    </g>
                    <rect id="Rectangle" fill="#F5F5F5" fill-rule="nonzero" x="55" y="29" width="58" height="4"></rect>
                    <rect id="Rectangle" fill="#FFD74E" fill-rule="nonzero" opacity="0.5" x="13" y="141" width="58" height="4"></rect>
                    <rect id="Rectangle" fill="url(#linearGradient-2)" fill-rule="nonzero" x="79" y="141" width="20" height="5"></rect>
                    <rect id="Rectangle" fill="url(#linearGradient-2)" fill-rule="nonzero" x="79" y="163" width="20" height="5"></rect>
                    <rect id="Rectangle" fill="url(#linearGradient-2)" fill-rule="nonzero" x="119" y="163" width="20" height="5"></rect>
                    <rect id="Rectangle" fill="#FFD74E" fill-rule="nonzero" x="80" y="141" width="18" height="4"></rect>
                    <rect id="Rectangle" fill="#FFD74E" fill-rule="nonzero" x="80" y="163" width="18" height="4"></rect>
                    <rect id="Rectangle" fill="#FFD74E" fill-rule="nonzero" x="120" y="163" width="18" height="4"></rect>
                    <rect id="Rectangle" fill="#F5F5F5" fill-rule="nonzero" x="13" y="152" width="58" height="4"></rect>
                    <rect id="Rectangle" fill="#FFD74E" fill-rule="nonzero" opacity="0.5" x="80" y="152" width="58" height="4"></rect>
                    <rect id="Rectangle" fill="#F5F5F5" fill-rule="nonzero" x="80" y="174" width="58" height="4"></rect>
                    <rect id="Rectangle" fill="#FFD74E" fill-rule="nonzero" opacity="0.5" x="13" y="163" width="58" height="4"></rect>
                    <rect id="Rectangle" fill="#F5F5F5" fill-rule="nonzero" x="13" y="174" width="58" height="4"></rect>
                    <rect id="Rectangle" fill="#F5F5F5" fill-rule="nonzero" x="54" y="34" width="33" height="4"></rect>
                    <rect id="Rectangle" fill="#F5F5F5" fill-rule="nonzero" x="93" y="34" width="11" height="4"></rect>
                    <rect id="Rectangle" fill="#F5F5F5" fill-rule="nonzero" x="54" y="46" width="33" height="4"></rect>
                    <rect id="Rectangle" fill="#F5F5F5" fill-rule="nonzero" x="93" y="46" width="11" height="4"></rect>
                    <rect id="Rectangle" fill="#F5F5F5" fill-rule="nonzero" x="55" y="40" width="58" height="4"></rect>
                    <g id="Group" opacity="0.2" transform="translate(95.000000, 13.000000)" fill="#FFD74E" fill-rule="nonzero">
                        <rect id="Rectangle" x="0.243866667" y="0" width="58.6066667" height="4"></rect>
                    </g>
                    <rect id="Rectangle" fill="url(#linearGradient-3)" fill-rule="nonzero" x="129" y="28" width="7" height="5"></rect>
                    <rect id="Rectangle" fill="url(#linearGradient-3)" fill-rule="nonzero" x="129" y="34" width="7" height="5"></rect>
                    <rect id="Rectangle" fill="url(#linearGradient-3)" fill-rule="nonzero" x="129" y="40" width="7" height="5"></rect>
                    <rect id="Rectangle" fill="#FF5252" fill-rule="nonzero" x="129" y="29" width="6" height="4"></rect>
                    <rect id="Rectangle" fill="#FF9800" fill-rule="nonzero" x="129" y="34" width="6" height="4"></rect>
                    <rect id="Rectangle" fill="#69F0AE" fill-rule="nonzero" x="129" y="40" width="6" height="4"></rect>
                    <rect id="Rectangle" fill="url(#linearGradient-3)" fill-rule="nonzero" x="129" y="45" width="7" height="5"></rect>
                    <rect id="Rectangle" fill="#FFD74E" fill-rule="nonzero" x="129" y="46" width="6" height="4"></rect>
                    <rect id="Rectangle" fill="url(#linearGradient-4)" fill-rule="nonzero" x="12" y="71" width="144" height="59"></rect>
                    <rect id="Rectangle" fill="#FFD74E" fill-rule="nonzero" opacity="0.5" x="13" y="73" width="141" height="55"></rect>
                    <polygon id="Path" fill="#FFFFFF" fill-rule="nonzero" opacity="0.5" points="17.3203343 77.2605634 154 77.2605634 154 73 13 73 13 128 17.3203343 128"></polygon>
                    <polygon id="Rectangle" fill="url(#linearGradient-5)" fill-rule="nonzero" transform="translate(87.584667, 103.481022) rotate(-5.200000) translate(-87.584667, -103.481022) " points="15.1144933 73.7852939 160.037757 73.8268816 160.054841 133.176751 15.131578 133.135163"></polygon>
                    <polygon id="Rectangle" fill="#FFFFFF" fill-rule="nonzero" transform="translate(87.742578, 103.069942) rotate(-5.200000) translate(-87.742578, -103.069942) " points="17.4272311 75.3271305 158.041965 75.3674817 158.057926 130.812754 17.4431918 130.772403"></polygon>
                    <path d="M26.4176289,127 L24,95.9744481 C24,95.9744481 36.4780848,82.5826903 61.6682184,92.5083461 C86.858352,102.434002 98.7359289,95.4269616 102.8303,88.7232052 C106.924672,82.0194487 128.17641,74.5436969 135.062753,85.7573247 C141.949096,96.9709525 150.208029,84.3630064 150.208029,84.3630064 L153,115.349171 L26.4176289,127 Z" id="Path" fill="#FFD74E" fill-rule="nonzero" opacity="0.5"></path>
                    <line x1="38.23" y1="90" x2="38.77" y2="92" id="Path" stroke="#FFD74E"></line>
                    <line x1="40" y1="97" x2="42" y2="122" id="Path" stroke="#FFD74E" stroke-dasharray="11.51"></line>
                    <line x1="41.225" y1="123" x2="41.775" y2="125" id="Path" stroke="#FFD74E"></line>
                    <line x1="62.225" y1="94" x2="62.775" y2="96" id="Path" stroke="#FFD74E"></line>
                    <line x1="63" y1="101" x2="65" y2="119" id="Path" stroke="#FFD74E" stroke-dasharray="13.06"></line>
                    <line x1="65.23" y1="121" x2="65.77" y2="123" id="Path" stroke="#FFD74E"></line>
                    <line x1="87.2" y1="98" x2="87.8" y2="100" id="Path" stroke="#FFD74E"></line>
                    <line x1="88" y1="103" x2="90" y2="117" id="Path" stroke="#FFD74E" stroke-dasharray="9.789999999999999"></line>
                    <line x1="88.205" y1="119" x2="88.795" y2="121" id="Path" stroke="#FFD74E"></line>
                    <line x1="109.23" y1="84" x2="109.77" y2="86" id="Path" stroke="#FFD74E"></line>
                    <line x1="110" y1="91" x2="112" y2="115" id="Path" stroke="#FFD74E" stroke-dasharray="11.28"></line>
                    <line x1="112.225" y1="117" x2="112.775" y2="119" id="Path" stroke="#FFD74E"></line>
                    <line x1="125.23" y1="81" x2="125.77" y2="83" id="Path" stroke="#FFD74E"></line>
                    <line x1="126" y1="87" x2="128" y2="113" id="Path" stroke="#FFD74E" stroke-dasharray="11.93"></line>
                    <line x1="128.225" y1="116" x2="128.775" y2="118" id="Path" stroke="#FFD74E"></line>
                    <ellipse id="Oval" fill="#FF9800" fill-rule="nonzero" transform="translate(38.324145, 89.520536) rotate(-5.200000) translate(-38.324145, -89.520536) " cx="38.3241452" cy="89.5205364" rx="1.95842256" ry="1.95229842"></ellipse>
                    <ellipse id="Oval" fill="#FF5252" fill-rule="nonzero" transform="translate(62.295771, 93.620284) rotate(-5.200000) translate(-62.295771, -93.620284) " cx="62.2957712" cy="93.6202837" rx="1.95842256" ry="1.95229842"></ellipse>
                    <ellipse id="Oval" fill="#69F0AE" fill-rule="nonzero" transform="translate(87.052568, 97.645657) rotate(-5.200000) translate(-87.052568, -97.645657) " cx="87.0525683" cy="97.645657" rx="1.95842256" ry="1.95229842"></ellipse>
                    <ellipse id="Oval" fill="url(#linearGradient-6)" fill-rule="nonzero" transform="translate(109.001721, 83.892444) rotate(-5.200000) translate(-109.001721, -83.892444) " cx="109.001721" cy="83.8924437" rx="2.74179159" ry="2.73321779"></ellipse>
                    <ellipse id="Oval" fill="url(#linearGradient-7)" fill-rule="nonzero" transform="translate(125.242692, 80.852574) rotate(-5.200000) translate(-125.242692, -80.852574) " cx="125.242692" cy="80.8525737" rx="2.74179159" ry="2.73321779"></ellipse>
                    <ellipse id="Oval" fill="#FFD74E" fill-rule="nonzero" transform="translate(109.001721, 83.892444) rotate(-5.200000) translate(-109.001721, -83.892444) " cx="109.001721" cy="83.8924437" rx="1.95842256" ry="1.95229842"></ellipse>
                    <ellipse id="Oval" fill="#FFD74E" fill-rule="nonzero" transform="translate(125.242692, 80.852574) rotate(-5.200000) translate(-125.242692, -80.852574) " cx="125.242692" cy="80.8525737" rx="1.95842256" ry="1.95229842"></ellipse>
                    <ellipse id="Oval" fill="#69F0AE" fill-rule="nonzero" transform="translate(150.065928, 85.657087) rotate(-5.200000) translate(-150.065928, -85.657087) " cx="150.065928" cy="85.6570873" rx="1.95842256" ry="1.95229842"></ellipse>
                    <g id="Group" opacity="0.2" transform="translate(154.000000, 124.000000)" fill="url(#linearGradient-8)" fill-rule="nonzero">
                        <path d="M0.63,0.36 L0.665,0.475 C1.05,0.26 0.63,0.36 0.63,0.36 Z" id="Path"></path>
                    </g>
                    <g id="Group" opacity="0.2" transform="translate(127.000000, 122.000000)" fill="url(#linearGradient-9)" fill-rule="nonzero">
                        <path d="M23.4538462,66.883815 L29.7153846,65.8652601 L28.8538462,61.9924277 L28.8538462,61.9924277 L28.8538462,61.9382081 L28.8307692,61.9382081 L24.3923077,41.4121965 L24.3923077,26.4436994 C24.3917928,26.2535238 24.3815227,26.0635018 24.3615385,25.8743931 C30.9923077,17.0210983 27.0538462,3.12924855 26.6692308,1.91705202 C26.6,1.95190751 26.4961538,1.9983815 26.35,2.05647399 C26.3019631,1.51444241 26.2001738,0.978612377 26.0461538,0.45699422 C26.0461538,0.45699422 24.1230769,-0.774566474 23.0730769,0.809421965 C22.1576923,2.19202312 22.8384615,3.03630058 23.0269231,3.23381503 L22.8961538,3.27641618 C23.1908398,3.74275211 23.3969016,4.26016684 23.5038462,4.80231214 C23.4431215,4.66877284 23.373741,4.53939927 23.2961538,4.4150289 C23.0538462,4.37242775 22.9115385,4.33369942 22.9115385,4.33369942 L22.8653846,4.29109827 L22.7346154,4.33369942 C23.4,5.31352601 23.6346154,7.04468208 23.6038462,9.09728324 C23.3740477,8.77688893 23.1166407,8.47752157 22.8346154,8.20265896 C21.6188057,7.03328367 20.0152903,6.3598278 18.3346154,6.31271676 L18.0153846,6.31271676 C17.8410256,6.31271676 17.6666667,6.32433526 17.4923077,6.34757225 L17.3615385,6.34757225 L17.1423077,6.37855491 L16.8923077,6.4250289 L16.7115385,6.46375723 L16.4,6.54895954 L16.2846154,6.58381503 C16.1538462,6.62641618 16.0269231,6.66901734 15.9,6.71936416 C15.4783569,6.92596097 15.0361392,7.08693865 14.5807692,7.19959538 C14.5192308,7.19959538 14.4576923,7.19959538 14.3923077,7.21895954 L14.3923077,7.21895954 C13.878175,7.25520852 13.3677221,7.10854899 12.95,6.80456647 L12.8115385,6.69612717 C12.7591589,6.65095296 12.7090943,6.60312629 12.6615385,6.55283237 C12.6092935,6.68702263 12.5869722,6.83113409 12.5961538,6.9749711 C12.6249908,7.31634944 12.7867588,7.63238389 13.0461538,7.85410405 C13.1189793,7.91762042 13.1990249,7.97222097 13.2846154,8.01676301 C13.4110563,8.08350152 13.5498863,8.12306557 13.6923077,8.13294798 L13.8384615,8.13294798 L13.8038462,8.13294798 C13.7153846,8.17554913 13.6269231,8.21427746 13.5346154,8.24913295 L13.5153846,8.24913295 C13.4153846,8.28398844 13.3192308,8.3149711 13.2153846,8.34208092 L13.2153846,8.34208092 C12.711356,8.47033847 12.1845453,8.47829545 11.6769231,8.36531792 L11.6769231,8.36531792 L11.5115385,8.3265896 C11.4307692,8.3033526 11.3461538,8.28011561 11.2692308,8.25300578 C11.2945248,8.31122629 11.322767,8.3681025 11.3538462,8.4234104 L11.3846154,8.47375723 L11.4538462,8.58219653 L11.4961538,8.63641618 L11.5730769,8.73323699 L11.6192308,8.78358382 L11.7153846,8.88040462 L11.7538462,8.91526012 L11.8961538,9.03531792 L11.9461538,9.07017341 L12.05,9.14375723 L12.1192308,9.18635838 L12.2115385,9.24057803 L12.2884615,9.27930636 L12.3846154,9.32190751 L12.4653846,9.35676301 L12.5730769,9.39549133 L12.7076923,9.43421965 L12.8076923,9.46132948 L12.9038462,9.46132948 L12.9923077,9.46132948 L13.0923077,9.46132948 L13.4769231,9.46132948 C13.6754422,9.44395056 13.8700728,9.39560867 14.0538462,9.31803468 L13.7,9.46520231 L13.7,9.46520231 L13.5230769,9.52716763 L13.3423077,9.59300578 L13.1615385,9.64722543 L12.9769231,9.70144509 L12.7961538,9.74791908 L12.6038462,9.79439306 L12.4269231,9.82924855 L12.2230769,9.86410405 L12.0538462,9.89121387 L11.8346154,9.9183237 L11.6769231,9.9183237 L11.4269231,9.9183237 L11.2961538,9.9183237 L10.9115385,9.9183237 C11.1241268,9.98053598 11.3217876,10.0859833 11.4923077,10.2281503 C11.6025168,10.3083295 11.7227952,10.3734439 11.85,10.4217919 C11.9068088,10.4384216 11.9646202,10.4513577 12.0230769,10.4605202 L12.0730769,10.4605202 L12.1961538,10.4605202 L12.7153846,10.4605202 L12.8846154,10.4605202 C13.2353683,10.4961937 13.5747573,10.6057099 13.8807692,10.7819653 C14.0428772,10.8870455 14.1870453,11.0178276 14.3076923,11.1692486 C14.2538462,11.2583237 14.2,11.343526 14.1538462,11.436474 C14.1076923,11.529422 14.0730769,11.5913873 14.0346154,11.6727168 C13.9576923,11.8327938 13.8897436,11.9967437 13.8307692,12.1645665 C13.6117621,12.7662403 13.4997926,13.4020757 13.5,14.0428902 C13.5,14.162948 13.5,14.2791329 13.5,14.3953179 C13.5,14.4263006 13.5,14.4611561 13.5,14.4921387 C13.5,14.5850867 13.5102564,14.6780347 13.5307692,14.7709827 L13.5307692,14.8445665 C13.5461538,14.9581696 13.5666667,15.0704817 13.5923077,15.1815029 L13.5923077,15.247341 C13.6128205,15.340289 13.6358974,15.4319461 13.6615385,15.5223121 L13.6846154,15.6036416 C13.7492868,15.822703 13.8276482,16.037428 13.9192308,16.2465318 L13.9461538,16.3084971 C13.9897436,16.404027 14.0346154,16.496975 14.0807692,16.587341 L14.0807692,16.6144509 C14.1371795,16.7177264 14.1961538,16.819711 14.2576923,16.9204046 L14.2576923,16.9436416 C14.3141026,17.0365896 14.374359,17.1269557 14.4384615,17.2147399 L14.4615385,17.2457225 C14.5996822,17.4373302 14.7499964,17.6197345 14.9115385,17.7917919 L14.9115385,17.7917919 C15.3305622,18.2362527 15.8207053,18.6067372 16.3615385,18.8878035 C16.3430825,18.9709138 16.3289606,19.0549402 16.3192308,19.1395376 L16.3192308,19.1395376 C16.3145669,19.227259 16.3145669,19.3151688 16.3192308,19.4028902 L16.3192308,21.4477457 C16.2038462,21.509711 16.0910256,21.5755491 15.9807692,21.6452601 C11.1615385,19.4416185 3.98461538,3.83023121 3.98461538,3.83023121 L3.81153846,3.83023121 C4.51153846,3.30352601 3.81153846,1.01080925 3.81153846,1.01080925 C3.4006622,0.764141701 2.94123725,0.610818964 2.46538462,0.561560694 L2.08076923,0.561560694 L2.01153846,0.561560694 L1.96153846,0.561560694 L1.89230769,0.561560694 L1.84615385,0.561560694 L1.76923077,0.584797688 L1.73076923,0.584797688 L1.61538462,0.627398844 L1.61538462,0.627398844 L1.50769231,0.677745665 L1.46923077,0.697109827 L1.39615385,0.739710983 L1.34615385,0.975953757 L1.27692308,1.02242775 L1.23461538,1.05728324 L1.16923077,1.11150289 L1.12692308,1.15023121 L1.06153846,1.21219653 L1.02307692,1.25479769 L0.957692308,1.33225434 L0.926923077,1.37098266 L0.830769231,1.50265896 C-0.219230769,3.0866474 0.830769231,3.96965318 0.830769231,3.96965318 C0.763164744,4.58044267 0.731058755,5.19468777 0.734615385,5.80924855 C0.657692308,17.2186127 12.7846154,26.060289 13.4038462,26.5017919 C13.1307692,27.2143931 10.8769231,33.5271098 13.4307692,41.4083237 C13.438751,41.4276128 13.4490869,41.4458261 13.4615385,41.4625434 C7.54500084,46.9526698 4.95279044,55.1839043 6.64615385,63.1039306 L6.69615385,63.3401734 L6.80769231,63.3401734 C6.79626032,63.3925133 6.78213877,63.4442206 6.76538462,63.4950867 C6.73568853,63.5883936 6.69838197,63.6790686 6.65384615,63.766185 C6.577012,63.9151016 6.48275177,64.0542222 6.37307692,64.180578 L6.37307692,64.180578 C6.25384615,64.32 6.11538462,64.459422 5.96923077,64.6027168 L5.81538462,64.7498844 C5.20384615,65.3385549 4.58461538,65.9117341 5.04615385,66.144104 L11.6653846,66.144104 L11.6653846,63.2356069 L11.7807692,63.2356069 C11.7807692,63.2356069 11.7346154,63.1465318 11.6653846,62.9722543 L11.6653846,62.9412717 L11.6423077,62.9412717 C11.2961538,62.0427746 10.4884615,59.2620809 11.7807692,54.9787283 C13.3538462,49.6923121 19.4730769,47.0510405 19.4730769,47.0510405 L19.5846154,47.4383237 L19.5615385,47.4383237 L24.3615385,63.3169364 C24.3615385,63.3789017 24.3615385,63.4408671 24.3423077,63.5067052 C24.3206196,63.656655 24.2858702,63.8043923 24.2384615,63.9482081 C24.2016514,64.0592871 24.1579764,64.1679386 24.1076923,64.273526 C23.8115385,64.8893064 23.3,65.613526 23.0769231,66.1557225 C23.0449955,66.2299996 23.0180128,66.306334 22.9961538,66.3842197 C22.9697554,66.4719627 22.9606102,66.5640487 22.9692308,66.6553179 C22.982678,66.7737938 23.0616726,66.8743477 23.1730769,66.9147977 L23.1730769,66.9147977 L23.2615385,66.9147977 L23.4461538,66.883815 L23.4538462,66.883815 Z M21.6,21.6762428 C21.4794872,21.6091137 21.3512821,21.5458574 21.2153846,21.486474 L21.2153846,19.5655491 C21.2143495,19.4186898 21.2001899,19.2722223 21.1730769,19.1279191 C21.587547,18.9289225 21.97526,18.6777637 22.3269231,18.3804624 C22.0961538,19.5655491 21.8384615,20.700289 21.6038462,21.6762428 L21.6,21.6762428 Z" id="Shape"></path>
                    </g>
                    <path d="M127.617729,128.732766 C127.617729,128.732766 126.227839,127.729312 127.617729,125.921501 C129.007619,124.11369 131.588181,125.523305 131.588181,125.523305 C131.588181,125.523305 132.514774,128.13149 131.588181,128.732766 C130.661588,129.334042 127.617729,128.732766 127.617729,128.732766 Z" id="Path" fill="#CA7070" fill-rule="nonzero"></path>
                    <path d="M140,194 L134.307851,194 C134.350486,194.573775 134.154463,195.138696 133.771011,195.547129 C133.004681,196.483207 131.463826,197.614301 132.189175,198 L140,198 L140,194 Z" id="cbb1ca8a-3a06-4d8d-9881-c3637d2b9b50" fill="#00695C" fill-rule="nonzero"></path>
                    <path d="M134.601535,195.547129 C134.883133,195.138696 135.027087,194.573775 134.995778,194 L134.694829,194 C134.726139,194.573775 134.582185,195.138696 134.300587,195.547129 C133.737813,196.483207 132.606247,197.614301 133.138926,198 L133.439874,198 C132.907195,197.614301 134.038762,196.487541 134.601535,195.547129 Z" id="Path" fill="#FFFFFF" fill-rule="nonzero" opacity="0.2"></path>
                    <path d="M159.953575,194 L154.597855,194.740871 C154.745936,195.284409 154.659661,195.85521 154.354787,196.349017 C153.769778,197.402388 152.455567,198.71559 153.246565,199 L161,197.946629 L159.953575,194 Z" id="ec846da8-b8c9-4838-98ee-b96510078eab" fill="#00695C" fill-rule="nonzero"></path>
                    <path d="M156.375983,125.013969 C156.375983,125.013969 161.865899,143.671141 152.658198,154 L150,151.808548 C150,151.808548 155.441921,131.445145 152.39607,126.664519 C157.771536,124.735563 156.375983,125.013969 156.375983,125.013969 Z" id="Path" fill="#00695C" fill-rule="nonzero"></path>
                    <path d="M152.617729,127.732766 C152.617729,127.732766 151.227839,126.729312 152.617729,124.921501 C154.007619,123.11369 156.588181,124.523305 156.588181,124.523305 C156.588181,124.523305 157.514774,127.13149 156.588181,127.732766 C155.661588,128.334042 152.617729,127.732766 152.617729,127.732766 Z" id="Path" fill="#CA7070" fill-rule="nonzero"></path>
                    <path d="M153.778562,196.361791 C154.08648,195.86872 154.173355,195.298515 154.023252,194.755773 L159,194.055983 L159,194 L153.608523,194.755773 C153.757593,195.297409 153.670741,195.866213 153.363833,196.358293 C152.774917,197.407978 151.451932,198.716585 152.248211,199 L152.575847,198.954514 C151.982785,198.604619 153.21453,197.348495 153.778562,196.361791 Z" id="Path" fill="#FFFFFF" fill-rule="nonzero" opacity="0.2"></path>
                    <rect id="Rectangle" fill="#CA7070" fill-rule="nonzero" x="146" y="143" width="5" height="8" rx="2.5"></rect>
                    <path d="M150.575002,153.843137 C150.575002,153.843137 156.119395,134.011765 153.099681,129.137255 C152.833124,129.086275 152.661765,129.047059 152.661765,129.047059 L152.612262,129 L152.471367,129.047059 C155.612936,133.752941 150,153.839216 150,153.839216 L152.741733,156 L152.981634,155.733333 L150.575002,153.843137 Z" id="Path" fill="#FFFFFF" fill-rule="nonzero" opacity="0.2"></path>
                    <circle id="Oval" fill="#CA7070" fill-rule="nonzero" cx="148" cy="140" r="6"></circle>
                    <path d="M145.277424,148.315276 L145.277424,145.737996 C145.277668,145.549392 145.300414,145.36135 145.345276,145.177058 C142.685999,143.956412 141.271086,141.295111 141.891852,138.681531 C142.512618,136.067951 145.015204,134.149868 148,134 L147.626812,134 C144.568493,133.999141 141.907077,135.86964 141.186912,138.526099 C140.466747,141.182557 141.875066,143.93433 144.594659,145.184638 C144.549797,145.36893 144.527051,145.556973 144.526807,145.745576 L144.526807,148.322856 C144.518999,149.09281 144.885851,149.827815 145.532103,150.337014 C146.178355,150.846212 147.04025,151.079368 147.893981,150.975938 C146.39767,150.802616 145.277695,149.663762 145.277424,148.315276 Z" id="Path" fill="#FFFFFF" fill-rule="nonzero" opacity="0.2"></path>
                    <path d="M155,170.420365 C155,170.420365 142.847695,171.724544 142.4,170.420365 C139.25,161.237413 142.4,153.99155 142.4,153.99155 C142.4,150.682508 145.220606,148 148.7,148 L148.7,148 C152.179394,148 155,150.682508 155,153.99155 L155,170.420365 Z" id="Path" fill="#00695C" fill-rule="nonzero"></path>
                    <path d="M154.64877,170 L160,194 L154.64877,194 L149.100947,176.194911 C149.100947,176.194911 142.165187,179.098416 140.384064,184.905425 C138.602942,190.712434 140.384064,194 140.384064,194 L134.635718,194 L134.576741,193.738838 C132.652227,185.035999 135.618596,175.99068 142.361778,170 L142.361778,170" id="Path" fill="#263238" fill-rule="nonzero"></path>
                    <path d="M143.182502,170.407522 C140.072669,161.225117 143.182502,153.979686 143.182502,153.979686 C143.181938,150.820842 145.727557,148.204253 149,148 C148.868599,148 148.733215,148 148.601814,148 L148.601814,148 C145.166787,148 142.382148,150.682348 142.382148,153.991193 C142.382148,153.991193 139.272315,161.24046 142.382148,170.419028 C142.541422,170.886971 144.181949,171.017381 146.220661,170.998203 C144.564207,170.963682 143.309921,170.810259 143.182502,170.407522 Z" id="Path" fill="#FFFFFF" fill-rule="nonzero" opacity="0.2"></path>
                    <path d="M141.785967,153 C141.785967,153 125.484824,141.976562 127.114533,128 L130.782392,128 C130.782392,128 139.541577,146.324219 145.154573,148.082031 C150.767569,149.839844 141.785967,153 141.785967,153 Z" id="Path" fill="#00695C" fill-rule="nonzero"></path>
                    <g id="Group" opacity="0.2" transform="translate(134.000000, 170.000000)" fill="#FFFFFF" fill-rule="nonzero">
                        <path d="M14.8183636,7.00390625 L20.1065455,24.78125 L20.8701818,24.78125 L15.4827273,6.671875 C15.4827273,6.671875 15.2345455,6.78125 14.8183636,7.00390625 Z" id="Path"></path>
                        <path d="M8.946,0.37109375 L8.18236364,0.37109375 C1.6341026,6.46415309 -1.2465191,15.6640553 0.622363636,24.515625 L0.679636364,24.78125 L1.44327273,24.78125 L1.386,24.515625 C-0.482882732,15.6640553 2.39773897,6.46415309 8.946,0.37109375 Z" id="Path"></path>
                    </g>
                    <path d="M128.666967,128 L128.104125,128 C126.613151,141.976562 141.627257,153 141.627257,153 L142,152.851562 C140.259288,151.503906 127.261725,141.046875 128.666967,128 Z" id="Path" fill="#FFFFFF" fill-rule="nonzero" opacity="0.2"></path>
                    <path d="M143.167417,136.26566 C143.510436,137.074077 143.751332,137.923729 143.884307,138.79417 C144.278203,140.554881 145.168407,142.311573 146.700661,143.216047 C147.54932,143.685848 148.493075,143.948649 149.457931,143.983846 C150.923224,144.076304 152.510623,143.786872 153.546569,142.725621 C154.191798,142.006675 154.624669,141.116179 154.795219,140.156912 C155.42499,137.277527 154.58114,134.268667 152.553952,132.165374 C150.463563,130.10514 147.40094,129.450338 144.676037,130.481041 C144.198996,130.71921 143.698585,130.905161 143.183173,131.035785 C142.382329,131.1667 141.569269,130.890611 141.004929,130.296126 C140.875346,130.724178 140.953878,131.18965 141.216278,131.548823 C141.478677,131.907997 141.893385,132.117674 142.332358,132.113116 C141.412858,132.563619 140.355327,132.621489 139.393896,132.273911 C139.95356,133.477129 141.3277,134.036325 142.545062,133.556256 C141.430079,134.062774 140.220313,134.315185 139,134.295915 C139.256032,134.295915 139.75628,134.778302 140.067457,134.874779 C140.458178,134.938116 140.853588,134.966363 141.249145,134.959197 C142.072285,135.010854 142.804802,135.509745 143.167417,136.26566 L143.167417,136.26566 Z" id="Path" fill="#263238" fill-rule="nonzero"></path>
                    <g id="Group" opacity="0.2" transform="translate(139.000000, 131.000000)" fill="#FFFFFF" fill-rule="nonzero">
                        <path d="M3.7,2.14666667 C3.23699127,2.36466306 2.73375877,2.49028229 2.22,2.51611111 C2.86993045,2.54852269 3.51780621,2.421477 4.104,2.14666667 C3.70858187,2.14896758 3.33028978,1.98996231 3.06113478,1.70832531 C2.79197979,1.42668832 2.65662775,1.04822933 2.688,0.665 C2.56745782,0.583263781 2.45497576,0.490830607 2.352,0.388888889 C2.2204088,0.80299202 2.30015764,1.25329446 2.56662375,1.60076345 C2.83308986,1.94823244 3.25422428,2.1510765 3.7,2.14666667 Z" id="Path"></path>
                        <path d="M4.964,1.11611111 C5.48739944,0.989743501 5.99556547,0.809851833 6.48,0.579444444 C7.24506817,0.28579251 8.05766695,0.126470481 8.88,0.108888889 C7.92343965,0.0786423628 6.97061217,0.238770314 6.08,0.579444444 C5.59556547,0.809851833 5.08739944,0.989743501 4.564,1.11611111 C4.492,1.11611111 4.42,1.11611111 4.348,1.13944444 C4.55351128,1.15744418 4.76055216,1.14960173 4.964,1.11611111 Z" id="Path"></path>
                        <path d="M1.768,4.83 C1.452,4.74055556 0.944,4.27777778 0.684,4.27 C1.92322487,4.28864248 3.15173792,4.04445655 4.284,3.55444444 C4.02994935,3.65630514 3.75873503,3.71167806 3.484,3.71777778 C2.46357989,4.09949066 1.37720737,4.28696537 0.284,4.27 C0.544,4.27 1.052,4.73666667 1.368,4.83 C1.64267234,4.89490365 1.92616616,4.91721566 2.208,4.89611111 C2.05903835,4.8923555 1.91117809,4.87013912 1.768,4.83 Z" id="Path"></path>
                        <path d="M11.332,13.6422222 C10.352191,13.6081724 9.39381085,13.3539355 8.532,12.8994444 C6.976,12.0166667 6.088,10.3172222 5.672,8.62166667 C5.53696436,7.7795909 5.29233558,6.95762776 4.944,6.17555556 C4.56944614,5.44028957 3.8149279,4.9596817 2.972,4.91944444 C2.77227813,4.90494235 2.57172187,4.90494235 2.372,4.91944444 L2.568,4.91944444 C3.4109279,4.9596817 4.16544614,5.44028957 4.54,6.17555556 C4.88833558,6.95762776 5.13296436,7.7795909 5.268,8.62166667 C5.668,10.325 6.572,12.0244444 8.128,12.8994444 C8.98981085,13.3539355 9.94819102,13.6081724 10.928,13.6422222 C11.16,13.6422222 11.392,13.6422222 11.628,13.6422222 L11.332,13.6422222 Z" id="Path"></path>
                        <path d="M3.232,3.70222222 C2.37223963,3.64181138 1.60195014,3.16351476 1.184,2.43055556 C1.02529362,2.39772517 0.868961155,2.35485623 0.716,2.30222222 C1.17417145,3.23165296 2.17564818,3.78891346 3.232,3.70222222 L3.232,3.70222222 Z" id="Path"></path>
                    </g>
                    <path d="M127.963745,128.737146 C127.963745,128.737146 126.724644,127.733524 127.963745,125.92541 C128.297604,125.400534 128.871872,125.061485 129.50849,125.013388 C128.727569,124.924872 127.964159,125.280503 127.550711,125.92541 C126.311611,127.733524 127.550711,128.737146 127.550711,128.737146 C128.35474,128.910724 129.176067,128.998868 130,129 C129.314843,128.967195 128.633724,128.879272 127.963745,128.737146 L127.963745,128.737146 Z" id="Path" fill="#FFFFFF" fill-rule="nonzero" opacity="0.2"></path>
                    <g id="Group" opacity="0.2" transform="translate(14.000000, 128.000000)" fill="url(#linearGradient-10)" fill-rule="nonzero">
                        <path d="M0.485,0.425 L0.525,0.29 C0.525,0.29 0.015,0.19 0.485,0.425 Z" id="Path"></path>
                    </g>
                    <g id="Group" opacity="0.2" transform="translate(6.000000, 126.000000)" fill="url(#linearGradient-11)" fill-rule="nonzero">
                        <path d="M45.6854701,9.14308824 C45.6475935,9.01969035 45.6002785,8.8992967 45.5439316,8.78294118 C45.5439316,8.74421569 45.5046154,8.71323529 45.4849573,8.67838235 C45.4493181,8.60923276 45.4099455,8.54201236 45.3670085,8.4770098 L45.2883761,8.37632353 C45.2477377,8.32386069 45.2044346,8.27345332 45.1586325,8.22529412 L45.0682051,8.13622549 C45.0210256,8.09362745 44.9738462,8.05490196 44.9266667,8.02004902 L44.8283761,7.95034314 L44.6711111,7.85740196 L44.5728205,7.80705882 L44.3958974,7.73348039 L44.3054701,7.69862745 C44.2215954,7.67022876 44.1364103,7.64699346 44.0499145,7.62892157 L44.0499145,7.62892157 C43.4778554,7.5223821 42.8892275,7.53823039 42.3239316,7.67539216 C42.3239316,7.67539216 40.6765812,10.0686275 41.3095726,10.9283333 L41.1011966,10.8663725 C41.1011966,10.8663725 28.8620513,24.3196078 21.9581197,26.817402 C21.7825071,26.6986438 21.6003419,26.5876307 21.4116239,26.4843627 L21.4116239,23.9672059 C21.4173726,23.8614319 21.4173726,23.7554308 21.4116239,23.6496569 L21.4116239,23.6496569 C21.3997859,23.5494644 21.3827263,23.4499376 21.3605128,23.3514706 L21.4116239,23.3243627 L21.6160684,23.2120588 L21.9109402,23.0339216 L22.0996581,22.9138725 C22.2411966,22.8183497 22.3722507,22.7176634 22.4928205,22.6118137 L22.6461538,22.4801471 C22.7405128,22.4026961 22.8309402,22.3213725 22.9174359,22.2361765 L23.0747009,22.0851471 C23.1847863,21.974134 23.2896296,21.8605392 23.3892308,21.7443627 L23.4993162,21.6126961 C23.5936752,21.4965196 23.6841026,21.3777614 23.7705983,21.2564216 L23.8806838,21.0937745 C23.9593162,20.9750163 24.0340171,20.8536765 24.1047863,20.7297549 L24.1755556,20.6097059 C24.2620513,20.4509314 24.3446154,20.2844118 24.4153846,20.1140196 L24.4782906,19.9629902 C24.5333333,19.8261601 24.5844444,19.6880392 24.6316239,19.5486275 C24.6316239,19.4982843 24.6670085,19.4518137 24.6788034,19.4014706 C24.7338462,19.2194608 24.7849573,19.037451 24.8242735,18.8476961 C24.8242735,18.8089706 24.8242735,18.7741176 24.8439316,18.7353922 C24.8753846,18.5779085 24.9002849,18.4178431 24.9186325,18.2551961 C24.9186325,18.2009804 24.9186325,18.1467647 24.9186325,18.092549 C24.9186325,17.895049 24.9500855,17.7052941 24.9500855,17.4923039 C24.9502728,15.985529 24.4256937,14.5242881 23.4639316,13.352549 C23.9868376,12.5470588 24.3288889,12.0707353 24.3288889,12.0707353 C24.014359,11.8577451 23.7037607,11.6641176 23.397094,11.4743627 L23.0982906,11.300098 C22.8938462,11.180049 22.7051282,11.06 22.4849573,10.9515686 L22.142906,10.7734314 C21.9581197,10.6766176 21.777265,10.5836765 21.5964103,10.4984804 L21.2464957,10.3397059 L20.7235897,10.115098 L20.3815385,9.97955882 C20.208547,9.91372549 20.0355556,9.85176471 19.8664957,9.79367647 L19.5441026,9.6852451 C19.3671795,9.63102941 19.1902564,9.58068627 19.017265,9.53421569 L18.7302564,9.45676471 C18.5336752,9.41029412 18.337094,9.37156863 18.1444444,9.33284314 L17.9360684,9.2902451 C17.6726496,9.24377451 17.4131624,9.20892157 17.1497436,9.18568627 L17.1497436,9.18568627 C15.5409626,9.01588455 13.9150127,9.26145081 12.4317949,9.89823529 C12.5104274,8.04715686 12.8249573,6.52137255 13.4854701,5.57647059 L13.3242735,5.5222549 L13.2692308,5.57647059 C13.2692308,5.57647059 13.0765812,5.61906863 12.7738462,5.67328431 C12.6783105,5.82378232 12.5929406,5.98031381 12.5182906,6.14186275 C12.6504386,5.48688258 12.9050797,4.8618147 13.2692308,4.29852941 L13.1080342,4.24431373 C13.34,4.00808824 14.1813675,2.98960784 13.0529915,1.32053922 C11.7555556,-0.5925 9.3808547,0.894558824 9.3808547,0.894558824 C9.19259389,1.5262714 9.06878988,2.17490855 9.01128205,2.83083333 C8.83042735,2.7572549 8.70068376,2.70303922 8.61811966,2.66044118 C7.48048138,6.61458917 6.86081297,10.6957859 6.77418803,14.8047549 C2.49264957,20.7917157 0.723418803,29.6288725 0.377435897,31.5341667 L0.377435897,31.5341667 L0.34991453,31.6851961 L0.34991453,31.6851961 C0.326324786,31.8246078 0.314529915,31.8981863 0.314529915,31.8981863 L11.4449573,32.1537745 C11.4449573,32.1925 11.4449573,32.2273529 11.4449573,32.2660784 L11.4449573,49.6267157 L3.34188034,66.5071569 C3.34188034,66.5071569 6.4242735,66.6039706 11.0635897,67.1887255 L9.78188034,76.2156373 L9.78188034,76.2156373 L9.35333333,78.7482843 L17.0671795,78.7482843 C17.9242735,77.0598529 13.6388034,76.2156373 13.6388034,76.2156373 L13.5444444,76.2156373 L15.2153846,67.7928431 C15.9545299,67.914183 16.7146439,68.043268 17.4957265,68.180098 C18.6408936,68.3982693 19.8016519,68.5277503 20.9673504,68.5673529 L20.9673504,68.5673529 C21.9324064,68.6005752 22.8986211,68.5591407 23.857094,68.4434314 C24.4232479,73.0091667 23.6801709,75.7354412 23.5386325,76.1885294 L23.4953846,76.1885294 L23.0668376,78.7211765 L30.7806838,78.7211765 C31.5276923,77.2496078 28.3666667,76.4170098 27.5449573,76.2311275 L27.5803419,75.9832843 C27.9771028,73.1351353 28.0785372,70.2546068 27.8830769,67.3862255 C28.8784624,66.9888683 29.8065086,66.4443248 30.6352137,65.7713725 L30.6352137,65.7713725 L30.7413675,65.6784314 L30.7413675,65.6784314 L30.7728205,65.647451 L25.0287179,49.77 C26.1020513,45.2778431 22.3670085,40.5610784 24.3603419,38.2026961 C26.3536752,35.8443137 25.1466667,32.8353431 24.9107692,32.3202941 C30.3049573,29.9967647 41.2073504,24.1879412 44.2661538,14.1193137 C44.4908137,13.4114075 44.6732899,12.691177 44.8126496,11.9623039 C44.8126496,11.9623039 46.3538462,11.3465686 45.6854701,9.14308824 Z" id="Path"></path>
                    </g>
                    <path d="M16.6240174,131.013969 C16.6240174,131.013969 11.1341007,149.671141 20.3418023,160 L23,157.808548 C23,157.808548 17.5580785,137.445145 20.6039301,132.664519 C15.2284636,130.735563 16.6240174,131.013969 16.6240174,131.013969 Z" id="Path" fill="#FF5252" fill-rule="nonzero"></path>
                    <path d="M20.3822712,132.732766 C20.3822712,132.732766 21.772161,131.729312 20.3822712,129.921501 C18.9923813,128.11369 16.4118192,129.523305 16.4118192,129.523305 C16.4118192,129.523305 15.485226,132.13149 16.4118192,132.732766 C17.3384124,133.334042 20.3822712,132.732766 20.3822712,132.732766 Z" id="Path" fill="#F6B9AD" fill-rule="nonzero"></path>
                    <rect id="Rectangle" fill="#F6B9AD" fill-rule="nonzero" transform="translate(24.500000, 152.000000) rotate(180.000000) translate(-24.500000, -152.000000) " x="22" y="148" width="5" height="8" rx="2.5"></rect>
                    <path d="M22.4249977,158.843137 C22.4249977,158.843137 16.8806052,139.011765 19.900319,134.137255 C20.1668763,134.086275 20.3382346,134.047059 20.3382346,134.047059 L20.3877381,134 L20.5286327,134.047059 C17.3870641,138.752941 23,158.839216 23,158.839216 L20.2582674,161 L20.0183658,160.733333 L22.4249977,158.843137 Z" id="Path" fill="#FFFFFF" fill-rule="nonzero" opacity="0.2"></path>
                    <circle id="Oval" fill="#F6B9AD" fill-rule="nonzero" cx="24" cy="145" r="6"></circle>
                    <path d="M26.7225763,153.315276 L26.7225763,150.737996 C26.7223318,150.549392 26.6995858,150.36135 26.6547239,150.177058 C29.3140013,148.956412 30.7289135,146.295111 30.1081479,143.681531 C29.4873823,141.067951 26.9847956,139.149868 24,139 L24.373188,139 C27.4315068,138.999141 30.0929227,140.86964 30.813088,143.526099 C31.5332532,146.182557 30.1249343,148.93433 27.4053407,150.184638 C27.4502026,150.36893 27.4729487,150.556973 27.4731931,150.745576 L27.4731931,153.322856 C27.4810011,154.09281 27.1141492,154.827815 26.4678972,155.337014 C25.8216452,155.846212 24.9597502,156.079368 24.1060193,155.975938 C25.6023295,155.802616 26.7223046,154.663762 26.7225763,153.315276 Z" id="Path" fill="#FFFFFF" fill-rule="nonzero" opacity="0.2"></path>
                    <path d="M18,175.420365 C18,175.420365 30.0067385,176.724544 30.449071,175.420365 C31.8836631,171.200964 28.0580843,166.640174 29.9708737,164.411563 C31.9633626,162.110071 30.449071,158.99155 30.449071,158.99155 C30.449071,155.682508 27.6622516,153 24.2245355,153 L24.2245355,153 C20.7868195,153 18,155.682508 18,158.99155 L18,175.420365 Z" id="Path" fill="#FF5252" fill-rule="nonzero"></path>
                    <path d="M29.9958291,164.410883 C31.9400019,162.109528 30.4624306,158.991193 30.4624306,158.991193 C30.4624306,155.682348 27.743189,153 24.3888346,153 C24.2566308,153 24.1283154,153 24,153.019178 C27.1950149,153.219462 29.6830027,155.833169 29.6847614,158.991193 C29.6847614,158.991193 31.1623328,162.109528 29.2181599,164.410883 C27.3362006,166.639361 31.0845659,171.196043 29.6847614,175.419028 C29.5525577,175.821766 28.3432822,175.975189 26.7373954,175.998203 C28.7165633,176.017381 30.3107851,175.886971 30.4624306,175.419028 C31.8777884,171.192207 28.1138698,166.639361 29.9958291,164.410883 Z" id="Path" fill="#FFFFFF" fill-rule="nonzero" opacity="0.2"></path>
                    <path d="M27.5301057,175 L27.5301057,175 C31.9339655,180.987518 33.8836743,190.036006 32.622569,198.738838 L32.5865375,199 L28.8272426,199 C28.8272426,199 29.9922637,195.708593 28.8272426,189.905425 C28.113155,186.426267 26.0824651,183.32359 23.1262459,181.194911 L19.4990668,199 L16,199 L19.4990668,175 L27.5301057,175 Z" id="Path" fill="#F6B9AD" fill-rule="nonzero"></path>
                    <path d="M48.8812689,140 C48.8812689,140 50.5324308,139.421218 49.8228405,137.429753 C49.1132503,135.438288 46.2294028,136.108456 46.2294028,136.108456 C46.2294028,136.108456 44.4781705,138.267463 45.1559201,139.044249 C45.8336698,139.821035 48.8812689,140 48.8812689,140 Z" id="Path" fill="#F6B9AD" fill-rule="nonzero"></path>
                    <path d="M27.8596681,160 C27.8596681,160 46.377238,154.014092 49,140.049605 L45.5702343,139 C45.5702343,139 31.9421573,154.175874 26.1863222,154.282413 C20.4304871,154.388952 27.8596681,160 27.8596681,160 Z" id="Path" fill="#FF5252" fill-rule="nonzero"></path>
                    <path d="M47.4389165,140 L48,140.172549 C45.4344942,154.05098 27.3211719,160 27.3211719,160 L27,159.745098 C29.1398563,158.992157 45.0475401,152.945098 47.4389165,140 Z" id="Path" fill="#FFFFFF" fill-rule="nonzero" opacity="0.2"></path>
                    <g id="Group" opacity="0.2" transform="translate(19.000000, 175.000000)" fill="#FFFFFF" fill-rule="nonzero">
                        <path d="M3.56432432,6.57421875 L0.136216216,24.6835937 L0.892972973,24.6835937 L4.2227027,7.10546875 C4.01214887,6.9169273 3.79240307,6.73961292 3.56432432,6.57421875 L3.56432432,6.57421875 Z" id="Path"></path>
                        <path d="M8.48702703,0.2734375 L7.73027027,0.2734375 C11.8924324,6.36328125 13.7351351,15.5664062 12.5432432,24.4179688 L12.5091892,24.6835937 L13.2659459,24.6835937 L13.3,24.4179688 C14.4918919,15.5664063 12.6567568,6.36328125 8.48702703,0.2734375 Z" id="Path"></path>
                    </g>
                    <path d="M47.7669381,139.887706 C47.7669381,139.887706 49.0759147,139.299129 48.5133793,137.273959 C48.3747801,136.694048 47.9860152,136.22044 47.4676404,136 C48.1430092,136.132466 48.6857824,136.673032 48.8595549,137.386254 C49.4220903,139.407551 48.1131137,140 48.1131137,140 C47.3963807,139.941227 46.6877908,139.798395 46,139.574056 C46.5798363,139.731166 47.1708635,139.83608 47.7669381,139.887706 Z" id="Path" fill="#FFFFFF" fill-rule="nonzero" opacity="0.2"></path>
                    <path d="M18.421875,175 L11,190.12979 C15.328371,190.338843 19.63602,190.844434 23.890625,191.642769 C32.09375,193.155748 36,189.3733 36,189.3733 L30.7070312,175 L18.421875,175 Z" id="Path" fill="#263238" fill-rule="nonzero"></path>
                    <path d="M20.8325792,200 C20.8325792,200 24.6651584,200.666667 23.8986425,202 L17,202 L17.3832579,200 L20.8325792,200 Z" id="Path" fill="#FF5252" fill-rule="nonzero"></path>
                    <path d="M32.8325792,200 C32.8325792,200 36.6651584,200.666667 35.8986425,202 L29,202 L29.3832579,200 L32.8325792,200 Z" id="Path" fill="#FF5252" fill-rule="nonzero"></path>
                    <path d="M30,140.652114 C30,140.652114 20.5714286,153.648533 24.8928571,159 L8,158.617752 C8,158.617752 12.7142857,129.184685 30,140.652114 Z" id="Path" fill="#FCCC63" fill-rule="nonzero"></path>
                    <path d="M30,140.61255 C27.5642857,138.992156 25.38,138.187705 23.4196429,138 C25.0677527,138.504857 26.6251235,139.257038 28.0357143,140.229478 C28.0357143,140.229478 18.6071429,153.253922 22.9285714,158.616928 L8.05892857,158.279825 C8.01964286,158.498176 8,158.616928 8,158.616928 L24.8928571,159 C20.5714286,153.636994 30,140.61255 30,140.61255 Z" id="Path" fill="#FFFFFF" fill-rule="nonzero" opacity="0.2"></path>
                    <path d="M30.6746725,175 L29.4956332,175 L34.8209607,189.376574 C34.8209607,189.376574 32.2820961,191.816808 27,191.99084 C33.0799127,192.180005 36,189.376574 36,189.376574 L30.6746725,175 Z" id="Path" fill="#FFFFFF" fill-rule="nonzero" opacity="0.2"></path>
                    <path d="M20.7793881,200 L20,200 C20,200 23.8969404,200.666667 23.1175523,202 L23.8969404,202 C24.6763285,200.666667 20.7793881,200 20.7793881,200 Z" id="Path" fill="#FFFFFF" fill-rule="nonzero" opacity="0.2"></path>
                    <path d="M32.7793881,200 L32,200 C32,200 35.8969404,200.666667 35.1175523,202 L35.8969404,202 C36.6763285,200.666667 32.7793881,200 32.7793881,200 Z" id="Path" fill="#FFFFFF" fill-rule="nonzero" opacity="0.2"></path>
                    <rect id="Rectangle" fill="#F5F5F5" fill-rule="nonzero" x="196" y="66" width="150" height="5"></rect>
                    <rect id="Rectangle" fill="url(#linearGradient-12)" fill-rule="nonzero" opacity="0.600000024" x="193" y="64" width="156" height="193"></rect>
                    <rect id="Rectangle" fill="#3C3C3C" fill-rule="nonzero" opacity="0.209999993" x="196" y="71" width="150" height="179"></rect>
                    <circle id="Oval" fill="#FF5252" fill-rule="nonzero" cx="199.5" cy="68.5" r="1.5"></circle>
                    <circle id="Oval" fill="#FFFF00" fill-rule="nonzero" cx="203.5" cy="68.5" r="1.5"></circle>
                    <circle id="Oval" fill="#69F0AE" fill-rule="nonzero" cx="207.5" cy="68.5" r="1.5"></circle>
                    <g id="Group" opacity="0.2" transform="translate(205.000000, 78.000000)" fill="#FFD74E" fill-rule="nonzero">
                        <rect id="Rectangle" x="0.242848665" y="0.272" width="131.608309" height="3.6"></rect>
                    </g>
                    <rect id="Rectangle" fill="url(#linearGradient-13)" fill-rule="nonzero" x="204" y="95" width="57" height="60"></rect>
                    <rect id="Rectangle" fill="#FFFFFF" fill-rule="nonzero" x="206" y="97" width="55" height="56"></rect>
                    <rect id="Rectangle" fill="url(#linearGradient-13)" fill-rule="nonzero" x="280" y="125" width="57" height="60"></rect>
                    <rect id="Rectangle" fill="#FFFFFF" fill-rule="nonzero" x="281" y="127" width="55" height="56"></rect>
                    <rect id="Rectangle" fill="url(#linearGradient-14)" fill-rule="nonzero" x="206" y="198" width="133" height="42"></rect>
                    <rect id="Rectangle" fill="#FFD74E" fill-rule="nonzero" opacity="0.5" x="208" y="202" width="129" height="37"></rect>
                    <polygon id="Path" fill="#FFFFFF" fill-rule="nonzero" opacity="0.5" points="211.146341 205.505263 337 205.505263 337 202 208 202 208 239 211.146341 239"></polygon>
                    <path d="M251.193882,109.348195 C243.616949,100.54117 230.81949,98.4262863 220.811895,104.327325 C210.8043,110.228364 206.460864,122.450481 210.500299,133.343413 C214.539735,144.236344 225.80187,150.671517 237.23733,148.620925 C248.67279,146.570333 256.99718,136.62293 256.999983,125.005153 C257.006862,119.258411 254.946001,113.700997 251.193882,109.348195 L251.193882,109.348195 Z M241.517076,139.334463 C235.021298,143.183428 226.748371,142.17767 221.364049,136.884415 C215.979728,131.591161 214.833063,123.336644 218.570749,116.776236 C222.308436,110.215829 229.993989,106.993253 237.292922,108.925973 C244.591854,110.858692 249.675404,117.462461 249.676638,125.012894 C249.694772,130.894452 246.593872,136.344925 241.528688,139.334463 L241.517076,139.334463 Z" id="Shape" fill="url(#linearGradient-15)" fill-rule="nonzero"></path>
                    <path d="M244.808725,114 L250,109.265038 C245.743476,104.012922 239.533554,100.993793 233,101 L233,108.253569 C237.538865,108.25225 241.851972,110.351119 244.808725,114 L244.808725,114 Z" id="Path" fill="#FF5252" fill-rule="nonzero"></path>
                    <path d="M232.384291,140.178214 C230.134449,140.179375 227.910629,139.705247 225.863461,138.787945 L223,145.00438 C229.768308,148.02169 237.609584,147.597343 244,143.86792 L240.454395,138 C238.014389,139.43037 235.225271,140.183185 232.384291,140.178214 L232.384291,140.178214 Z" id="Path" fill="#69F0AE" fill-rule="nonzero"></path>
                    <path d="M256,124.095809 C256.007028,118.553096 254.006124,113.193592 250.36415,109 L244.984493,113.608359 C248.111635,117.206097 249.474324,121.998731 248.70502,126.693613 C247.935717,131.388495 245.113659,135.502058 241,137.92481 L244.625849,144 C251.68133,139.827736 256.004069,132.263149 256,124.095809 Z" id="Path" fill="#FF9800" fill-rule="nonzero"></path>
                    <path d="M217.018039,124.026432 C217.018039,115.189093 224.173407,108.025013 233,108.025013 L233,101 C222.169635,101 212.807107,108.566043 210.520647,119.165192 C208.234188,129.764341 213.643464,140.524399 223.508274,145 L226.404518,138.59553 C220.691418,136.003989 217.020466,130.30617 217.018039,124.026432 L217.018039,124.026432 Z" id="Path" fill="#FFD74E" fill-rule="nonzero"></path>
                    <rect id="Rectangle" fill="url(#linearGradient-16)" fill-rule="nonzero" x="289" y="134" width="42" height="7"></rect>
                    <rect id="Rectangle" fill="#FFD74E" fill-rule="nonzero" x="289" y="135" width="41" height="6"></rect>
                    <rect id="Rectangle" fill="#FF5252" fill-rule="nonzero" x="289" y="146" width="30" height="6"></rect>
                    <rect id="Rectangle" fill="#69F0AE" fill-rule="nonzero" x="289" y="156" width="20" height="6"></rect>
                    <rect id="Rectangle" fill="#FF9800" fill-rule="nonzero" x="289" y="167" width="37" height="6"></rect>
                    <rect id="Rectangle" fill="#F5F5F5" fill-rule="nonzero" x="206" y="164" width="58" height="4"></rect>
                    <rect id="Rectangle" fill="#F5F5F5" fill-rule="nonzero" x="206" y="169" width="33" height="4"></rect>
                    <rect id="Rectangle" fill="#F5F5F5" fill-rule="nonzero" x="245" y="169" width="11" height="4"></rect>
                    <rect id="Rectangle" fill="#F5F5F5" fill-rule="nonzero" x="245" y="183" width="11" height="4"></rect>
                    <rect id="Rectangle" fill="#F5F5F5" fill-rule="nonzero" x="206" y="181" width="33" height="4"></rect>
                    <rect id="Rectangle" fill="#F5F5F5" fill-rule="nonzero" x="206" y="175" width="58" height="4"></rect>
                    <rect id="Rectangle" fill="#F5F5F5" fill-rule="nonzero" x="279" y="94" width="58" height="4"></rect>
                    <rect id="Rectangle" fill="#F5F5F5" fill-rule="nonzero" x="279" y="100" width="33" height="4"></rect>
                    <rect id="Rectangle" fill="#F5F5F5" fill-rule="nonzero" x="318" y="100" width="11" height="4"></rect>
                    <rect id="Rectangle" fill="#F5F5F5" fill-rule="nonzero" x="318" y="113" width="11" height="4"></rect>
                    <rect id="Rectangle" fill="#F5F5F5" fill-rule="nonzero" x="279" y="112" width="33" height="4"></rect>
                    <rect id="Rectangle" fill="#F5F5F5" fill-rule="nonzero" x="279" y="106" width="58" height="4"></rect>
                    <circle id="Oval" fill="url(#linearGradient-17)" fill-rule="nonzero" cx="298" cy="269" r="4"></circle>
                    <circle id="Oval" fill="#FF5252" fill-rule="nonzero" cx="298" cy="269" r="3"></circle>
                    <rect id="Rectangle" fill="url(#linearGradient-18)" fill-rule="nonzero" x="170" y="221" width="135" height="48"></rect>
                    <rect id="Rectangle" fill="#FFFFFF" fill-rule="nonzero" x="174" y="224" width="129" height="37"></rect>
                    <line x1="179" y1="253.5" x2="298" y2="253.5" id="Path" stroke="#FFD74E" stroke-width="3" fill="url(#linearGradient-19)" fill-rule="nonzero"></line>
                    <rect id="Rectangle" fill="url(#linearGradient-20)" fill-rule="nonzero" x="180" y="231" width="17" height="21"></rect>
                    <rect id="Rectangle" fill="#FFD74E" fill-rule="nonzero" x="181" y="232" width="16" height="20"></rect>
                    <rect id="Rectangle" fill="#69F0AE" fill-rule="nonzero" x="279" y="246" width="16" height="6"></rect>
                    <rect id="Rectangle" fill="#FF9800" fill-rule="nonzero" x="250" y="237" width="16" height="14"></rect>
                    <rect id="Rectangle" fill="#FF5252" fill-rule="nonzero" x="215" y="240" width="16" height="12"></rect>
                    <rect id="Rectangle" fill="#FF5252" fill-rule="nonzero" x="174" y="261" width="129" height="5"></rect>
                    <circle id="Oval" fill="url(#linearGradient-17)" fill-rule="nonzero" cx="180" cy="269" r="4"></circle>
                    <circle id="Oval" fill="#FF5252" fill-rule="nonzero" cx="180" cy="269" r="3"></circle>
                    <rect id="Rectangle" fill="#FF5252" fill-rule="nonzero" x="171" y="225" width="3" height="41"></rect>
                    <rect id="Rectangle" fill="#000000" fill-rule="nonzero" opacity="0.2" x="171" y="225" width="3" height="41"></rect>
                    <path d="M175,229.261563 C175,229.218602 175,229.179546 175,229.136584 C175,229.093623 175,229.0077 175,228.94521 C175,228.882721 175,228.863193 174.976382,228.824137 C174.952764,228.785081 174.948828,228.706969 174.929146,228.65229 C174.909465,228.597612 174.905528,228.578084 174.889783,228.539028 C174.874038,228.499972 174.842547,228.429671 174.818929,228.374993 L174.771693,228.277353 C174.740203,228.222675 174.704776,228.167996 174.669349,228.117224 L174.618177,228.043017 C174.566551,227.972601 174.511372,227.904818 174.452852,227.839926 L174.452852,227.839926 L174.452852,227.839926 C174.138921,227.507944 173.766797,227.23533 173.354619,227.035374 C173.67708,226.69164 173.917842,226.280602 174.05922,225.83245 C174.099998,225.712614 174.131578,225.589888 174.153691,225.465324 C174.153691,225.426268 174.153691,225.387212 174.153691,225.352062 C174.164307,225.276954 174.170877,225.201339 174.173373,225.125537 C174.173373,225.082575 174.173373,225.04352 174.173373,225.000558 C174.173373,224.957596 174.173373,224.871673 174.173373,224.809184 C174.173373,224.746694 174.173373,224.727166 174.149755,224.68811 C174.126137,224.649054 174.122201,224.570942 174.102519,224.516264 C174.082838,224.461586 174.078901,224.442058 174.063156,224.403002 C174.047411,224.363946 174.01592,224.293645 173.992302,224.238967 L173.945066,224.141327 C173.913576,224.086648 173.878149,224.03197 173.842722,223.981197 L173.79155,223.906991 C173.739924,223.836575 173.684745,223.768792 173.626225,223.7039 L173.626225,223.7039 L173.626225,223.7039 C173.233599,223.295599 172.757012,222.975914 172.228831,222.766557 C172.228831,222.766557 169.729269,223.684372 169.563943,224.692016 C167.729619,225.082575 157.038576,227.289237 149.697341,227.113485 L149.642232,226.968978 C149.643219,224.567645 148.305601,222.362697 146.166463,221.239469 L146.166463,218.786754 C146.17208,218.68268 146.17208,218.578381 146.166463,218.474307 L146.166463,218.474307 C146.155909,218.37462 146.140142,218.275545 146.119227,218.177481 L146.166463,218.150142 L146.367215,218.040786 L146.658502,217.865034 L146.843509,217.74396 C146.979969,217.650226 147.111179,217.551284 147.237141,217.447135 L147.386721,217.31825 C147.477257,217.240138 147.563856,217.162026 147.650455,217.080009 L147.803971,216.931596 C147.911564,216.82224 148.013908,216.710279 148.111004,216.595715 L148.217285,216.462925 C148.309132,216.348361 148.397043,216.231193 148.481018,216.111421 L148.587299,215.951292 C148.663401,215.834124 148.736879,215.714352 148.807733,215.591977 L148.87465,215.474809 C148.961249,215.318585 149.039976,215.15455 149.110829,214.990515 L149.169874,214.842102 C149.224983,214.709312 149.274843,214.579126 149.319454,214.451543 L149.36669,214.307036 C149.421798,214.127378 149.469034,213.947721 149.508397,213.764158 C149.508397,213.729007 149.508397,213.689951 149.528079,213.654801 C149.556945,213.498577 149.580563,213.341052 149.598933,213.182224 C149.598933,213.127546 149.598933,213.076773 149.598933,213.022095 C149.598933,212.826815 149.630423,212.631535 149.630423,212.432349 C149.630325,211.32254 149.341532,210.231541 148.791987,209.264911 C149.213174,209.163366 149.469034,209.081348 149.437544,209.042292 C149.276155,208.827484 149.114766,208.624393 148.945504,208.429113 L148.784115,208.24555 C148.666025,208.11276 148.551872,207.987781 148.433782,207.854991 L148.244839,207.663617 C148.126749,207.546449 148.00866,207.437092 147.89057,207.331641 L147.705563,207.167606 C147.555983,207.042627 147.406403,206.921553 147.256823,206.804385 L147.158415,206.726274 C146.977344,206.593483 146.796274,206.468504 146.611267,206.335714 L146.406578,206.210735 C146.288488,206.136528 146.166463,206.066228 146.044437,206.003738 L145.800385,205.878759 L145.461861,205.71863 L145.213873,205.609273 C145.095784,205.5585 144.973758,205.515539 144.851732,205.472577 L144.627362,205.39056 C144.446291,205.331976 144.26522,205.277297 144.08415,205.23043 L143.804671,205.167941 L143.501575,205.105451 L143.198478,205.058584 L142.918999,205.027339 L142.60803,205 L142.34036,205 L142.029391,205 C141.858817,205 141.688244,205.007811 141.51767,205.023434 L141.51767,205.023434 C137.490815,205.351504 133.963873,208.839201 133.963873,214.396864 L133.963873,218.982034 L140.261984,218.982034 L140.261984,221.067623 C137.950609,222.125682 136.469528,224.419902 136.467372,226.945545 L136.467372,244.719913 L131.121851,269.086927 L131.050997,269.086927 L130,273.738492 L137.541987,274.949227 L137.541987,274.949227 L137.868702,275 C138.655966,274.664119 137.337299,273.090163 136.742915,271.875523 C136.682201,271.748753 136.629612,271.618307 136.585462,271.484963 C136.502436,271.239975 136.452148,270.985241 136.435882,270.727278 L142.230143,251.867154 L142.202589,251.867154 L142.34036,251.425822 C142.34036,251.425822 149.717022,254.550298 151.614328,260.834403 C153.153429,265.911678 152.196903,269.215812 151.779654,270.285945 L151.752099,270.285945 L151.752099,270.348435 C151.669437,270.551526 151.610392,270.664788 151.610392,270.664788 L151.752099,270.664788 L151.752099,274.11343 L159.727082,274.11343 C160.46711,273.742398 158.896519,272.660548 158.113191,271.770072 C157.856738,271.487829 157.677802,271.144856 157.593597,270.774145 L157.727432,270.774145 L157.790413,270.492942 C159.830357,261.092026 156.707171,251.321714 149.579251,244.805836 C149.593811,244.785261 149.605713,244.762955 149.614678,244.739441 C150.367375,242.453993 150.831467,240.084738 150.996326,237.685934 C157.093684,238.263963 165.206438,237.849969 171.272306,233.186687 C171.851307,232.752584 172.404621,232.285742 172.929496,231.788484 C173.453027,231.749428 174.370189,231.460414 174.877974,229.99191 C174.918752,229.872074 174.950333,229.749348 174.972446,229.624784 C174.972446,229.585728 174.972446,229.546672 174.972446,229.511522 C174.986578,229.428812 174.995779,229.345348 175,229.261563 Z" id="Path" fill="url(#linearGradient-21)" fill-rule="nonzero"></path>
                    <path d="M142.823085,236.363377 C142.823085,236.363377 161.599118,241.876331 172,232.665889 L169.794116,230 C169.794116,230 149.616886,234.152279 144.808781,231.109246 C140.000675,228.066214 142.823085,236.363377 142.823085,236.363377 Z" id="Path" fill="#FFD74E" fill-rule="nonzero"></path>
                    <path d="M170.63542,232 L171,232.460642 C160.696638,242.026637 142.118885,236.299324 142.118885,236.299324 C142.118885,236.299324 142.071331,236.153454 142,235.915455 C144.215223,236.556515 161.029516,240.936451 170.63542,232 Z" id="Path" fill="#FFFFFF" fill-rule="nonzero" opacity="0.2"></path>
                    <path d="M171.336224,231.9764 C171.336224,231.9764 173.061419,232.34644 173.856627,230.155973 C174.651834,227.965507 171.87984,227 171.87984,227 C171.87984,227 168.991036,228.00804 169,229.07988 C169.009006,230.15172 171.336224,231.9764 171.336224,231.9764 Z" id="Path" fill="#985454" fill-rule="nonzero"></path>
                    <path d="M170.396635,231.639073 C170.396635,231.639073 171.924578,232.005507 172.628864,229.836384 C172.850113,229.229178 172.783556,228.546572 172.449809,228 C172.977607,228.57604 173.142111,229.423701 172.871585,230.173335 C172.167298,232.346671 170.639355,231.976024 170.639355,231.976024 C170.031973,231.436037 169.482249,230.827304 169,230.1607 C169.425935,230.693708 169.893097,231.188211 170.396635,231.639073 Z" id="Path" fill="#FFFFFF" fill-rule="nonzero" opacity="0.2"></path>
                    <path d="M151,268 L156.692149,268 C156.649514,268.573775 156.845537,269.138696 157.228989,269.547129 C157.995319,270.483207 159.536174,271.614301 158.810825,272 L151,272 L151,268 Z" id="4635430b-7803-4f1f-9770-b56b2b482545" fill="#FFD74E" fill-rule="nonzero"></path>
                    <path d="M157.398465,269.547129 C157.116867,269.138696 156.972913,268.573775 157.004222,268 L157.305171,268 C157.273861,268.573775 157.417815,269.138696 157.699413,269.547129 C158.262187,270.483207 159.393753,271.614301 158.861074,272 L158.560126,272 C159.092805,271.614301 157.961238,270.487541 157.398465,269.547129 Z" id="Path" fill="#FFFFFF" fill-rule="nonzero" opacity="0.2"></path>
                    <path d="M132.046425,268 L137.402145,268.746844 C137.254064,269.28962 137.340339,269.859621 137.645213,270.352735 C138.230222,271.404628 139.544433,272.715989 138.753435,273 L131,271.948107 L132.046425,268 Z" id="a892faa3-7b18-4010-9d55-72c2aac7ddb8" fill="#FFD74E" fill-rule="nonzero"></path>
                    <path d="M137.242175,270.363254 C136.935266,269.870139 136.848415,269.300139 136.997485,268.757363 L132,268.056101 L132,268 L137.391477,268.746844 C137.242407,269.28962 137.329259,269.859621 137.636167,270.352735 C138.225083,271.404628 139.548068,272.715989 138.751789,273 L138.424153,272.954418 C139.037952,272.610799 137.806206,271.352034 137.242175,270.363254 Z" id="Path" fill="#FFFFFF" fill-rule="nonzero" opacity="0.2"></path>
                    <rect id="Rectangle" fill="#985454" fill-rule="nonzero" transform="translate(143.500000, 221.000000) rotate(180.000000) translate(-143.500000, -221.000000) " x="141" y="217" width="5" height="8" rx="2.5"></rect>
                    <circle id="Oval" fill="#985454" fill-rule="nonzero" cx="144" cy="214" r="6"></circle>
                    <path d="M145.722576,222.315276 L145.722576,219.737996 C145.722332,219.549392 145.699586,219.36135 145.654724,219.177058 C148.314001,217.956412 149.728914,215.295111 149.108148,212.681531 C148.487382,210.067951 145.984796,208.149868 143,208 L143.373188,208 C146.431507,207.999141 149.092923,209.86964 149.813088,212.526099 C150.533253,215.182557 149.124934,217.93433 146.405341,219.184638 C146.450203,219.36893 146.472949,219.556973 146.473193,219.745576 L146.473193,222.322856 C146.481001,223.09281 146.114149,223.827815 145.467897,224.337014 C144.821645,224.846212 143.95975,225.079368 143.106019,224.975938 C144.60233,224.802616 145.722305,223.663762 145.722576,222.315276 L145.722576,222.315276 Z" id="Path" fill="#FFFFFF" fill-rule="nonzero" opacity="0.2"></path>
                    <path d="M137,244.420365 C137,244.420365 149.152305,245.724544 149.6,244.420365 C152.75,235.237413 149.6,227.99155 149.6,227.99155 C149.6,224.682508 146.779394,222 143.3,222 L143.3,222 C139.820606,222 137,224.682508 137,227.99155 L137,244.420365 Z" id="Path" fill="#FFD74E" fill-rule="nonzero"></path>
                    <path d="M137.349612,245 L132,269 L137.349612,269 L142.895757,251.194911 C142.895757,251.194911 149.829421,254.098416 151.610005,259.905425 C153.390588,265.712434 151.610005,269 151.610005,269 L157.364474,269 L157.423434,268.738838 C159.347365,260.035999 156.381893,250.99068 149.64075,245 L149.64075,245" id="Path" fill="#263238" fill-rule="nonzero"></path>
                    <path d="M148.817498,244.407522 C151.927331,235.225117 148.817498,227.979686 148.817498,227.979686 C148.818062,224.820842 146.272443,222.204253 143,222 C143.131401,222 143.266785,222 143.398186,222 L143.398186,222 C146.833213,222 149.617852,224.682348 149.617852,227.991193 C149.617852,227.991193 152.727685,235.24046 149.617852,244.419028 C149.458578,244.886971 147.818051,245.017381 145.779339,244.998203 C147.435793,244.963682 148.682115,244.810259 148.817498,244.407522 Z" id="Path" fill="#FFFFFF" fill-rule="nonzero" opacity="0.2"></path>
                    <g id="Group" opacity="0.2" transform="translate(136.000000, 244.000000)" fill="#FFFFFF" fill-rule="nonzero">
                        <path d="M6.45464286,7.00390625 L1.01357143,24.78125 L0.227857143,24.78125 L5.77107143,6.671875 C5.77107143,6.671875 6.02642857,6.78125 6.45464286,7.00390625 Z" id="Path"></path>
                        <path d="M12.4967857,0.37109375 L13.2825,0.37109375 C20.0200815,6.46415309 22.9839865,15.6640553 21.0610714,24.515625 L21.0021429,24.78125 L20.2164286,24.78125 L20.2753571,24.515625 C22.1982722,15.6640553 19.2343672,6.46415309 12.4967857,0.37109375 Z" id="Path"></path>
                    </g>
                    <path d="M141.823085,231.363377 C141.823085,231.363377 160.599118,236.876331 171,227.665889 L168.794116,225 C168.794116,225 148.616886,229.152279 143.808781,226.109246 C139.000675,223.066214 141.823085,231.363377 141.823085,231.363377 Z" id="Path" fill="#FFD74E" fill-rule="nonzero"></path>
                    <path d="M169.63542,228 L170,228.460642 C159.696638,238.026637 141.118885,232.299324 141.118885,232.299324 C141.118885,232.299324 141.071331,232.153454 141,231.915455 C143.215223,232.556515 160.029516,236.936451 169.63542,228 Z" id="Path" fill="#FFFFFF" fill-rule="nonzero" opacity="0.2"></path>
                    <path d="M170.336224,227.9764 C170.336224,227.9764 172.061419,228.34644 172.856627,226.155973 C173.651834,223.965507 170.87984,223 170.87984,223 C170.87984,223 167.991036,224.00804 168,225.07988 C168.009006,226.15172 170.336224,227.9764 170.336224,227.9764 Z" id="Path" fill="#985454" fill-rule="nonzero"></path>
                    <path d="M170.396635,227.639073 C170.396635,227.639073 171.924578,228.005507 172.628864,225.836384 C172.850113,225.229178 172.783556,224.546572 172.449809,224 C172.977607,224.57604 173.142111,225.423701 172.871585,226.173335 C172.167298,228.346671 170.639355,227.976024 170.639355,227.976024 C170.031973,227.436037 169.482249,226.827304 169,226.1607 C169.425935,226.693708 169.893097,227.188211 170.396635,227.639073 Z" id="Path" fill="#FFFFFF" fill-rule="nonzero" opacity="0.2"></path>
                    <path d="M143.701383,211.917845 L143.323062,220 L135,220 L135,215.70876 C135,207.091643 143.954858,203.820295 148.997876,210.744008 C149.122722,210.932592 143.701383,211.917845 143.701383,211.917845 Z" id="Path" fill="#263238" fill-rule="nonzero"></path>
                    <path d="M142,207.020338 C144.368886,207.197667 146.805334,208.377285 148.730846,210.748088 C148.870192,210.917706 142.819187,211.904577 142.819187,211.904577 L142.396926,220 L143.66371,220 L144.085971,211.904577 C144.085971,211.904577 150.136976,210.917706 149.99763,210.748088 C147.730086,207.949385 144.748921,206.831445 142,207.020338 Z" id="Path" fill="#FFFFFF" fill-rule="nonzero" opacity="0.2"></path>
                </g>
            </g>
        </g>
    </g>
</svg>