<?xml version="1.0" encoding="UTF-8"?>
<svg width="201px" height="45px" viewBox="0 0 201 45" version="1.1" xmlns="http://www.w3.org/2000/svg" xmlns:xlink="http://www.w3.org/1999/xlink">
    <title>collabion</title>
    <defs>
        <linearGradient x1="-2.90055876e-06%" y1="49.9999992%" x2="99.9999971%" y2="49.9999992%" id="linearGradient-1">
            <stop stop-color="#A0DBE7" offset="0%"></stop>
            <stop stop-color="#9BD9E6" offset="15.504%"></stop>
            <stop stop-color="#8ED4E3" offset="32.84%"></stop>
            <stop stop-color="#78CCDE" offset="51.061%"></stop>
            <stop stop-color="#58C0D7" offset="69.893%"></stop>
            <stop stop-color="#30B2CF" offset="89.015%"></stop>
            <stop stop-color="#16A8C9" offset="100%"></stop>
        </linearGradient>
        <linearGradient x1="49.9999971%" y1="0%" x2="49.9999971%" y2="99.9999983%" id="linearGradient-2">
            <stop stop-color="#5DBACA" offset="0%"></stop>
            <stop stop-color="#5FBBCB" offset="1.741%"></stop>
            <stop stop-color="#77C7D7" offset="22.729%"></stop>
            <stop stop-color="#88D0DF" offset="45.078%"></stop>
            <stop stop-color="#92D5E3" offset="69.52%"></stop>
            <stop stop-color="#95D7E5" offset="100%"></stop>
        </linearGradient>
        <linearGradient x1="-1.18723171e-05%" y1="49.9998949%" x2="99.999993%" y2="49.9998949%" id="linearGradient-3">
            <stop stop-color="#FFF377" offset="0%"></stop>
            <stop stop-color="#E9E966" offset="35.087%"></stop>
            <stop stop-color="#D9E259" offset="71.699%"></stop>
            <stop stop-color="#D3DF55" offset="100%"></stop>
        </linearGradient>
        <linearGradient x1="49.9999906%" y1="99.999968%" x2="49.9999906%" y2="-0.000178191495%" id="linearGradient-4">
            <stop stop-color="#FFFFFF" offset="0%"></stop>
            <stop stop-color="#FEFEFB" offset="13.778%"></stop>
            <stop stop-color="#FAFBEE" offset="28.075%"></stop>
            <stop stop-color="#F4F6DA" offset="42.618%"></stop>
            <stop stop-color="#EBEEBC" offset="57.321%"></stop>
            <stop stop-color="#E0E597" offset="72.16%"></stop>
            <stop stop-color="#D3DA6A" offset="86.893%"></stop>
            <stop stop-color="#C5CE3B" offset="100%"></stop>
        </linearGradient>
        <linearGradient x1="49.9999103%" y1="-1.6904137e-05%" x2="49.9999103%" y2="100.00001%" id="linearGradient-5">
            <stop stop-color="#067D8A" offset="0%"></stop>
            <stop stop-color="#098C9B" offset="10.804%"></stop>
            <stop stop-color="#0DA1B3" offset="29.97%"></stop>
            <stop stop-color="#11B0C4" offset="50.347%"></stop>
            <stop stop-color="#12B9CE" offset="72.554%"></stop>
            <stop stop-color="#13BCD1" offset="100%"></stop>
        </linearGradient>
        <linearGradient x1="49.9999103%" y1="100.00001%" x2="49.9999103%" y2="-1.6904137e-05%" id="linearGradient-6">
            <stop stop-color="#FFFFFF" offset="0%"></stop>
            <stop stop-color="#FBFDFE" offset="14.172%"></stop>
            <stop stop-color="#EFF9FD" offset="27.964%"></stop>
            <stop stop-color="#DCF0FA" offset="41.61%"></stop>
            <stop stop-color="#C0E5F6" offset="55.171%"></stop>
            <stop stop-color="#9DD6F0" offset="68.665%"></stop>
            <stop stop-color="#71C4EA" offset="82.122%"></stop>
            <stop stop-color="#3FAFE2" offset="95.298%"></stop>
            <stop stop-color="#2BA7DF" offset="100%"></stop>
        </linearGradient>
        <linearGradient x1="50%" y1="-5883.95599%" x2="50%" y2="111.978893%" id="linearGradient-7">
            <stop stop-color="#067D8A" offset="0%"></stop>
            <stop stop-color="#098C9B" offset="10.804%"></stop>
            <stop stop-color="#0DA1B3" offset="29.97%"></stop>
            <stop stop-color="#11B0C4" offset="50.347%"></stop>
            <stop stop-color="#12B9CE" offset="72.554%"></stop>
            <stop stop-color="#13BCD1" offset="100%"></stop>
        </linearGradient>
        <linearGradient x1="-0.00019232305%" y1="50.0000012%" x2="100.000007%" y2="50.0000012%" id="linearGradient-8">
            <stop stop-color="#BDCC33" offset="0%"></stop>
            <stop stop-color="#B7C834" offset="24.462%"></stop>
            <stop stop-color="#A8BC37" offset="55.552%"></stop>
            <stop stop-color="#8EA83B" offset="90.101%"></stop>
            <stop stop-color="#85A13D" offset="100%"></stop>
        </linearGradient>
        <linearGradient x1="11.9773672%" y1="33.3488779%" x2="93.8680637%" y2="75.9279922%" id="linearGradient-9">
            <stop stop-color="#FFFFFF" offset="0%"></stop>
            <stop stop-color="#61B749" offset="100%"></stop>
        </linearGradient>
    </defs>
    <g id="Page-1" stroke="none" stroke-width="1" fill="none" fill-rule="evenodd">
        <g id="Infosoft-Global-option-2-Copy" transform="translate(-353.000000, -2180.000000)">
            <g id="Group-26" transform="translate(0.000000, 1035.000000)">
                <g id="Group-25" transform="translate(212.000000, 97.000000)">
                    <g id="Group-24" transform="translate(0.000000, 441.000000)">
                        <g id="Group-13" transform="translate(0.000000, 565.000000)">
                            <g id="collabion" transform="translate(141.000000, 42.500000)">
                                <g id="_Group_2" transform="translate(0.000000, 0.500000)">
                                    <path d="M41.2457312,16.0559307 C43.9484913,27.2926664 37.0712166,38.6029568 25.8707263,41.3414951 C9.66925707,45.3026103 2.48557024,16.195814 18.9486654,12.8812589 C14.4925204,13.9707746 11.7610125,18.4758508 12.8476566,22.9436533 C16.7155595,38.8467803 44.7504639,32.2068311 41.2457312,16.0559307 Z" id="_Path_" fill="url(#linearGradient-1)"></path>
                                    <path d="M41.2457312,16.0559307 C43.9484913,27.2926664 37.0712166,38.6029568 25.8707263,41.3414951 C9.66925707,45.3026103 2.48557024,16.195814 18.9486654,12.8812589 C14.4925204,13.9707746 11.7610125,18.4758508 12.8476566,22.9436533 C16.7155595,38.8467803 44.7504639,32.2068311 41.2457312,16.0559307 Z" id="_Path_2" fill="url(#linearGradient-2)" opacity="0.2" style="mix-blend-mode: color-burn;"></path>
                                    <path d="M16.1195351,0.563946134 C27.2994733,-2.07824513 38.5122417,4.81511553 41.2336912,16.0035708 C45.1844673,32.2473421 16.7262917,39.194775 12.84766,22.9436705 C13.3694834,25.0891913 14.7200188,26.9390007 16.6021625,28.0861596 C18.4843062,29.2333185 20.7438817,29.5838571 22.8838059,29.0606604 C38.7108366,25.1911084 32.2056683,-3.17384331 16.1195351,0.563946134 Z" id="_Path_3" fill="url(#linearGradient-3)"></path>
                                    <path d="M16.1195351,0.563946134 C27.2994733,-2.07824513 38.5122417,4.81511553 41.2336912,16.0035708 C45.1844673,32.2473421 16.7262917,39.194775 12.84766,22.9436705 C13.3694834,25.0891913 14.7200188,26.9390007 16.6021625,28.0861596 C18.4843062,29.2333185 20.7438817,29.5838571 22.8838059,29.0606604 C38.7108366,25.1911084 32.2056683,-3.17384331 16.1195351,0.563946134 Z" id="_Path_4" fill="url(#linearGradient-4)" opacity="0.86" style="mix-blend-mode: multiply;"></path>
                                    <path d="M25.857901,41.3444805 C14.6401994,44.0796519 3.33388152,37.1836374 0.598827805,25.9383211 C-3.35194488,9.69454987 25.1127902,3.07790143 28.9848932,18.9982454 C28.4630659,16.8527097 27.1125169,15.0028895 25.2303557,13.8557299 C23.3481945,12.7085703 21.0886004,12.3580423 18.9486654,12.8812589 C3.0740961,16.7624134 9.85948293,44.7034186 25.857901,41.3444805 Z" id="_Path_5" fill="url(#linearGradient-5)"></path>
                                    <path d="M25.857901,41.3444805 C14.6401994,44.0796519 3.33388152,37.1836374 0.598827805,25.9383211 C-3.35194488,9.69454987 25.1127902,3.07790143 28.9848932,18.9982454 C28.4630659,16.8527097 27.1125169,15.0028895 25.2303557,13.8557299 C23.3481945,12.7085703 21.0886004,12.3580423 18.9486654,12.8812589 C3.0740961,16.7624134 9.85948293,44.7034186 25.857901,41.3444805 Z" id="_Path_6" fill="url(#linearGradient-6)" opacity="0.3" style="mix-blend-mode: multiply;"></path>
                                    <g id="_Group_3" transform="translate(22.195122, 41.082736)" fill="url(#linearGradient-7)" fill-rule="nonzero">
                                        <path d="M0.161618049,0.96698122 C1.3044012,0.863378557 2.43832015,0.646263756 3.5520561,0.31780406 C3.05805524,0.444131883 2.55852269,0.535949131 2.05590683,0.592805778 C1.42354163,0.753943678 0.792112033,0.878668826 0.161618049,0.96698122 Z" id="_Path_7"></path>
                                    </g>
                                    <path d="M0.561925854,25.7778657 C-2.07187586,14.5693125 4.80345985,3.32874129 15.9618234,0.600383097 C32.2787722,-3.47404513 39.0353702,25.262517 22.8838024,29.0606604 C25.0237336,28.5374678 26.8687232,27.183397 28.0128945,25.2963281 C29.1570659,23.4092592 29.5066944,21.1437711 28.9848659,18.9982454 C25.1255268,3.13059688 -3.16278439,9.65136849 0.561925854,25.7778657 Z" id="_Path_8" fill="url(#linearGradient-8)"></path>
                                    <path d="M0.561925854,25.7778657 C-2.07187586,14.5693125 4.80345985,3.32874129 15.9618234,0.600383097 C32.2787722,-3.47404513 39.0353702,25.262517 22.8838024,29.0606604 C25.0237336,28.5374678 26.8687232,27.183397 28.0128945,25.2963281 C29.1570659,23.4092592 29.5066944,21.1437711 28.9848659,18.9982454 C25.1255268,3.13059688 -3.16278439,9.65136849 0.561925854,25.7778657 Z" id="_Path_9" fill="url(#linearGradient-9)" opacity="0.3" style="mix-blend-mode: multiply;"></path>
                                </g>
                                <g id="_Group_4" transform="translate(48.000000, 6.500000)" fill="#515253" fill-rule="nonzero">
                                    <g id="_Group_5">
                                        <path d="M49.6175482,0.824785227 C49.4297777,0.755167568 49.2334955,0.711023445 49.0339591,0.693535227 C48.7163525,0.660502823 48.3971174,0.645575185 48.0778081,0.648825 C47.7661568,0.645917299 47.4545947,0.660845194 47.144655,0.693535227 C46.9416368,0.712109511 46.7417822,0.756208565 46.5498368,0.824785227 C46.4280298,0.863602758 46.3217279,0.940048286 46.2462718,1.04308977 C46.1908808,1.13583748 46.1628825,1.24232592 46.1655062,1.35027273 L46.1655062,28.7351591 C46.1616969,28.8399083 46.1898628,28.9433406 46.2462718,29.03175 C46.3248484,29.1292337 46.4304199,29.201487 46.5498368,29.2395102 C46.7420715,29.3071809 46.9417905,29.3514274 47.144655,29.3712886 C47.4546654,29.4029471 47.7661909,29.4174909 48.0778081,29.4148534 C48.3970839,29.4178238 48.716282,29.4032803 49.0339591,29.3712886 C49.2333434,29.3525155 49.4294816,29.3082261 49.6175482,29.2395102 C49.7347214,29.1970204 49.8391717,29.1255346 49.9211132,29.03175 C49.9848877,28.9462559 50.017723,28.8416952 50.014252,28.7351591 L50.014252,1.35027273 C50.0164254,1.24063729 49.9838263,1.13312152 49.9211132,1.04308977 C49.8420666,0.943730007 49.7369937,0.868168284 49.6175482,0.824785227 Z M40.8259702,10.8668386 C39.9402373,9.92486936 38.8446845,9.20440391 37.6280584,8.76380455 C36.1838067,8.2545592 34.6593169,8.00977208 33.1279357,8.04122045 C31.5321533,8.0077506 29.944964,8.28289512 28.4539223,8.85147614 C27.1831948,9.34916801 26.0420411,10.1279666 25.1162683,11.1293114 C24.2074854,12.1380549 23.5254241,13.32921 23.1158786,14.6228011 C22.6615371,16.0568819 22.4379913,17.5538341 22.4535765,19.0578409 C22.4315438,20.5707075 22.6432889,22.0779227 23.0813512,23.5263818 C23.4597381,24.7706655 24.1109604,25.9152212 24.9877346,26.8769455 C25.8737281,27.8190595 26.969482,28.5397139 28.1863123,28.980583 C29.630684,29.4896869 31.1552273,29.7344694 32.6866775,29.703167 C34.2795594,29.7344572 35.8632721,29.4554313 37.3491783,28.8817057 C38.62368,28.3797541 39.7683695,27.5973495 40.6980581,26.5927193 C41.6077209,25.5826638 42.2933268,24.3921483 42.7099568,23.0991716 C43.1720566,21.6664341 43.39967,20.1686843 43.3840311,18.6636034 C43.4051189,17.157622 43.1891863,15.6576746 42.7441223,14.2185614 C42.3584694,12.9745282 41.7036403,11.830299 40.8259702,10.8668386 L40.8259702,10.8668386 Z M39.0159836,22.0512102 C38.7959879,22.940047 38.3978285,23.7751625 37.8455438,24.5061375 C37.3088754,25.1985188 36.6097289,25.7483957 35.8098003,26.1072443 C34.887112,26.5060327 33.8887691,26.7003622 32.8835831,26.6768386 C31.8191588,26.7121626 30.7612222,26.4983606 29.7943833,26.0525318 C29.0022789,25.6659965 28.3215551,25.0848888 27.8161069,24.3637534 C27.3056775,23.6108408 26.9478943,22.765436 26.7629547,21.8752636 C26.5468686,20.8741225 26.4409271,19.8524237 26.4470131,18.8283273 C26.4376301,17.7779123 26.5673668,16.7308666 26.8328531,15.7143886 C27.0616761,14.8233593 27.4632122,13.9857302 28.014761,13.2488557 C28.5463815,12.5535434 29.2418412,12.0000921 30.039337,11.6376852 C30.9653497,11.235815 31.9682202,11.0410153 32.9776268,11.0669455 C34.0421453,11.0317792 35.1001165,11.2460046 36.0667651,11.6924557 C36.8586774,12.0788018 37.5362108,12.6642551 38.0327298,13.3912364 C38.5345458,14.1512979 38.8878596,14.9992247 39.0740519,15.8903318 C39.2893915,16.8842264 39.3955328,17.8985949 39.3905945,18.9154568 C39.4006721,19.9724032 39.274775,21.0262683 39.0159904,22.0512102 L39.0159836,22.0512102 Z M130.163254,10.8668386 C129.277521,9.92486936 128.181968,9.20440391 126.965342,8.76380455 C125.521091,8.2545592 123.996601,8.00977208 122.46522,8.04122045 C120.869437,8.0077506 119.282248,8.28289512 117.791206,8.85147614 C116.520479,9.34916801 115.379325,10.1279666 114.453552,11.1293114 C113.544777,12.1380568 112.862723,13.3292118 112.453183,14.6228011 C111.998842,16.0568819 111.775296,17.5538341 111.790881,19.0578409 C111.768848,20.5707075 111.980593,22.0779227 112.418656,23.5263818 C112.797043,24.7706655 113.448265,25.9152212 114.325039,26.8769455 C115.211033,27.8190595 116.306787,28.5397139 117.523617,28.980583 C118.967989,29.4896869 120.492532,29.7344694 122.023982,29.703167 C123.616864,29.7344572 125.200577,29.4554313 126.686483,28.8817057 C127.960984,28.3797541 129.105674,27.5973495 130.035363,26.5927193 C130.945025,25.5826638 131.630631,24.3921483 132.047261,23.0991716 C132.509361,21.6664341 132.736975,20.1686843 132.721336,18.6636034 C132.742423,17.157622 132.526491,15.6576746 132.081427,14.2185614 C131.695768,12.9745264 131.040932,11.8302971 130.163254,10.8668386 L130.163254,10.8668386 Z M128.353268,22.0512102 C128.133272,22.9400469 127.735112,23.7751624 127.182828,24.5061375 C126.646159,25.1985188 125.947013,25.7483957 125.147084,26.1072443 C124.224396,26.5060327 123.226053,26.7003622 122.220867,26.6768386 C121.156443,26.7121626 120.098506,26.4983606 119.131667,26.0525318 C118.339563,25.6659965 117.658839,25.0848888 117.153391,24.3637534 C116.642962,23.6108408 116.285178,22.765436 116.100239,21.8752636 C115.884153,20.8741225 115.778211,19.8524237 115.784297,18.8283273 C115.774914,17.7779123 115.904651,16.7308666 116.170137,15.7143886 C116.39896,14.8233593 116.800496,13.9857302 117.352045,13.2488557 C117.883666,12.5535434 118.579125,12.0000921 119.376621,11.6376852 C120.302634,11.235815 121.305504,11.0410153 122.314911,11.0669455 C123.379429,11.0317792 124.4374,11.2460046 125.404049,11.6924557 C126.195961,12.0788018 126.873495,12.6642551 127.370014,13.3912364 C127.87183,14.1512979 128.225144,14.9992247 128.411336,15.8903318 C128.626675,16.8842264 128.732817,17.8985949 128.727879,18.9154568 C128.737954,19.9724035 128.612054,21.0262686 128.353268,22.0512102 L128.353268,22.0512102 Z M21.7552988,23.9182841 C21.7243253,23.8154722 21.6579379,23.7269006 21.5678704,23.6682239 C21.4816399,23.6226719 21.385068,23.6001698 21.2875457,23.6029057 C20.9356046,23.6501858 20.6037648,23.7942183 20.3291032,24.0189102 C19.9229246,24.295483 19.4043662,24.6049955 18.7734279,24.9474477 C18.0415152,25.3314901 17.2736985,25.6430896 16.4809619,25.8777886 C15.4592737,26.1714744 14.3993917,26.3112808 13.3363509,26.2925864 C12.0304367,26.3142736 10.7336179,26.0720928 9.52388116,25.580608 C8.4196261,25.1204958 7.44422895,24.3988745 6.68199154,23.4781125 C5.86143722,22.456077 5.25683235,21.2786819 4.90466431,20.0169818 C4.46863637,18.4670289 4.25996268,16.8621733 4.28515092,15.2524636 C4.26071867,13.6198834 4.47752252,11.9926257 4.92857056,10.4231693 C5.30125928,9.12556686 5.91725131,7.91035141 6.74385408,6.84201818 C7.49386141,5.88737153 8.46113552,5.12504103 9.5654029,4.61829205 C10.7173326,4.10375741 11.9677361,3.84593046 13.2296197,3.86274886 C14.3028876,3.84048167 15.3731292,3.98439192 16.4022386,4.28935568 C17.1800845,4.53046838 17.9328009,4.84596184 18.6499179,5.23144773 C19.1716228,5.51545772 19.6760328,5.83003832 20.1605026,6.17353977 C20.4176865,6.40038674 20.7348809,6.54849203 21.0741585,6.60014659 C21.1875597,6.60374909 21.2988394,6.56890098 21.3898576,6.50128295 C21.4878802,6.41838398 21.5639936,6.31271062 21.6115027,6.19355795 C21.6810502,6.02831292 21.7283247,5.85458661 21.7520885,5.67692727 C21.7866344,5.42975297 21.8024938,5.18033368 21.7995322,4.93078295 C21.8013397,4.70293982 21.7895272,4.47519199 21.7641578,4.24875341 C21.7454815,4.08191069 21.7143487,3.91669326 21.671019,3.75447955 C21.6369442,3.62750655 21.5860944,3.50562437 21.5198086,3.39204205 C21.4019238,3.22800456 21.2652184,3.07829721 21.1124802,2.94597273 C20.7638169,2.65732434 20.3851704,2.40680322 19.983026,2.1987 C19.3886987,1.87391783 18.7650254,1.60578073 18.1202818,1.39784659 C17.3736636,1.15446884 16.6111187,0.962783328 15.838075,0.824154545 C13.1737901,0.349779313 10.4300066,0.619377079 7.90951259,1.60319659 C6.31610932,2.25407579 4.88835346,3.25180305 3.73039955,4.52359432 C2.51852793,5.88120752 1.59542024,7.47030902 1.01701969,9.19459432 C0.343475332,11.2185024 0.016934282,13.3413654 0.0511525446,15.4737545 C0.0159897759,17.5327512 0.318458297,19.5836253 0.946578214,21.5451477 C1.47552767,23.1860831 2.34787718,24.6960336 3.50579009,25.9748898 C4.6208739,27.1756283 5.99789759,28.1040139 7.53019212,28.6881307 C9.22159093,29.3211443 11.0167047,29.6326823 12.8228856,29.6066659 C13.8732501,29.6144767 14.9216729,29.5153054 15.9518722,29.310692 C16.8156935,29.139439 17.6638928,28.8973558 18.4878438,28.5869045 C19.128377,28.3479074 19.7471425,28.054387 20.3373064,27.7095852 C20.6819517,27.516 21.0087278,27.2922995 21.3137982,27.0411102 C21.4376552,26.9311552 21.5470964,26.8060174 21.6395208,26.6686705 C21.7046436,26.5597241 21.7553671,26.4428224 21.7904273,26.3208784 C21.8329642,26.1719953 21.8604053,26.0192221 21.872337,25.8648614 C21.8873638,25.691267 21.8959393,25.4882659 21.8959393,25.2552 C21.8983726,24.9794093 21.8865666,24.7036766 21.8605683,24.4290989 C21.8462643,24.25521 21.8109184,24.0836899 21.7553022,23.9182841 L21.7552988,23.9182841 Z M57.6934552,0.824785227 C57.5058561,0.755220888 57.3097606,0.711077658 57.110409,0.693535227 C56.7926196,0.660519358 56.4732047,0.645591792 56.1537151,0.648825 C55.8420637,0.645917224 55.5305016,0.66084512 55.2205619,0.693535227 C55.0175437,0.712109511 54.8176891,0.756208565 54.6257437,0.824785227 C54.5039453,0.863619798 54.3976483,0.940061825 54.3221787,1.04308977 C54.2667877,1.13583748 54.2387894,1.24232592 54.2414131,1.35027273 L54.2414131,28.7351591 C54.2376038,28.8399083 54.2657698,28.9433406 54.3221787,29.03175 C54.4007679,29.1292202 54.5063349,29.2014704 54.6257437,29.2395102 C54.8179785,29.3071809 55.0176974,29.3514274 55.2205619,29.3712886 C55.5305724,29.4029472 55.8420978,29.417491 56.1537151,29.4148534 C56.4731712,29.4178076 56.7925492,29.4032642 57.110409,29.3712886 C57.3096082,29.3524613 57.5055599,29.3081728 57.6934552,29.2395102 C57.8106276,29.197019 57.9150775,29.1255333 57.9970201,29.03175 C58.0607934,28.9462552 58.0936286,28.841695 58.0901589,28.7351591 L58.0901589,1.35027273 C58.0923309,1.24063748 58.0597319,1.13312214 57.9970201,1.04308977 C57.9179722,0.943731306 57.8128997,0.868169871 57.6934552,0.824785227 L57.6934552,0.824785227 Z M76.1890377,9.93535227 C75.4585977,9.2710865 74.5820712,8.78736222 73.6300683,8.52314659 C72.3811268,8.17631492 71.0880301,8.01395092 69.7919472,8.04122386 C68.9890935,8.04121783 68.1876834,8.10912785 67.396319,8.244225 C66.6569142,8.3681288 65.9263676,8.53991769 65.2093069,8.75850341 C64.6035764,8.94170036 64.0127703,9.17087673 63.4420579,9.44402727 C63.053906,9.61577079 62.6901967,9.83797218 62.3603786,10.1048591 C62.1715886,10.2630884 62.0339519,10.4735681 61.964819,10.7097648 C61.8687128,11.1958769 61.8569531,11.6948541 61.9300525,12.1849398 C61.9519878,12.3434086 62.0031539,12.4964472 62.080959,12.6363034 C62.1403574,12.7422945 62.2239711,12.8327999 62.3250042,12.9004636 C62.4231577,12.9604101 62.5365307,12.9908684 62.651567,12.9881966 C62.9549367,12.9484181 63.2454551,12.8410224 63.501605,12.6739636 C63.8824361,12.4644545 64.3560075,12.232992 64.9223192,11.9795761 C65.5643362,11.7003449 66.2259241,11.468288 66.9018046,11.2852568 C67.7337231,11.0660214 68.5915641,10.9603156 69.4519184,10.9710239 C70.2081425,10.9531802 70.9625242,11.0532477 71.6878358,11.2676148 C72.244713,11.4368563 72.7522032,11.7383014 73.1668506,12.1461375 C73.5597659,12.5572108 73.8438083,13.0595864 73.9932794,13.6078125 C74.1729618,14.2664687 74.2590755,14.9470532 74.2490968,15.6296216 L74.2490968,17.1672205 L71.3647702,17.1672205 C69.8891094,17.1525249 68.4158053,17.2883631 66.9678063,17.5726193 C65.806471,17.789649 64.6899507,18.2000272 63.6649256,18.7865966 C62.8127941,19.2781218 62.10012,19.9782015 61.5941082,20.8208182 C61.0969378,21.700434 60.8476117,22.6980033 60.8725902,23.7076568 C60.8572358,24.5820204 61.0360031,25.4489325 61.3960586,26.246158 C61.7342301,26.9767099 62.2355312,27.6202414 62.8615117,28.1273932 C63.5371272,28.6629464 64.3116791,29.0606088 65.141058,29.2977341 C66.1120494,29.5790067 67.1193227,29.7156332 68.1302955,29.7031943 C69.3621145,29.7083186 70.5803518,29.4463149 71.7007691,28.9353 C72.8421867,28.4108897 73.8783366,27.6832742 74.7584604,26.7880977 L74.7584604,28.75815 C74.7476161,28.9077328 74.8081401,29.0536489 74.9217401,29.1517977 C75.0769367,29.2581521 75.2554409,29.3257655 75.4422509,29.3489557 C75.7606569,29.3982316 76.0826958,29.4202844 76.40486,29.4148739 C76.7229567,29.4218925 77.0410293,29.3998277 77.3550958,29.3489557 C77.5368369,29.3188857 77.7104257,29.2517721 77.8650435,29.1517977 C77.9902359,29.060858 78.0602552,28.912412 78.0507199,28.75815 L78.0507199,15.4648705 C78.0701368,14.3756469 77.9210152,13.2899576 77.6086216,12.2461466 C77.3393738,11.3681882 76.8508742,10.5730025 76.1890514,9.93535227 L76.1890377,9.93535227 Z M74.2490319,23.938292 C73.4604168,24.8032035 72.5485338,25.5475056 71.5427146,26.1472568 C70.6888905,26.6270577 69.7242621,26.8757552 68.7444676,26.868692 C67.5053952,26.868692 66.5413973,26.5664318 65.8524739,25.9619114 C65.1578269,25.3452954 64.7780996,24.449331 64.8185149,23.5222909 C64.807431,22.9725418 64.9308602,22.4283921 65.178099,21.9370295 C65.4430688,21.4512158 65.8316124,21.0436823 66.3045923,20.7554795 C66.8983936,20.3956362 67.5514391,20.1438034 68.2333724,20.0116875 C69.1357002,19.832133 70.0544599,19.7479187 70.9744562,19.7604375 L74.2490319,19.7604375 L74.2490319,23.938292 Z M152.532944,13.1105693 C152.300733,12.1585063 151.868529,11.2665568 151.26496,10.4937989 C150.64462,9.72526612 149.851282,9.1137792 148.949496,8.70909205 C147.837158,8.23236266 146.633779,8.00440616 145.423812,8.04122045 C144.190126,8.05081522 142.975452,8.34568907 141.875131,8.90269773 C140.549753,9.59422866 139.356532,10.5130378 138.349984,11.6171455 L138.349984,9.00862159 C138.353,8.90405613 138.324666,8.80097365 138.268614,8.71258636 C138.197848,8.61921511 138.105669,8.54415905 137.999819,8.49372273 C137.834612,8.41788081 137.656715,8.37337392 137.475203,8.36247273 C137.249446,8.34071818 136.965699,8.32973182 136.623963,8.32951364 C136.266191,8.32951364 135.97834,8.3405 135.760411,8.36247273 C135.575383,8.37645179 135.393931,8.42079686 135.22336,8.49372273 C135.110527,8.53763943 135.013153,8.61376221 134.943398,8.71258636 C134.894774,8.80353302 134.870783,8.90557748 134.8738,9.00862159 L134.8738,28.7351659 C134.869975,28.8398267 134.898374,28.9431436 134.95517,29.0312011 C135.033296,29.1292859 135.139009,29.2018221 135.258735,29.2394966 C135.450759,29.307176 135.650279,29.3514234 135.852948,29.371275 C136.16296,29.4029176 136.474485,29.4174613 136.786102,29.4148398 C137.105378,29.41784 137.424578,29.4032964 137.742253,29.371275 C137.941802,29.3524276 138.13811,29.308141 138.326385,29.2394966 C138.443562,29.1967267 138.548002,29.125074 138.629994,29.0312011 C138.693677,28.9458724 138.726509,28.8415178 138.723133,28.7351659 L138.723133,14.9535443 C139.596958,13.8785015 140.613772,12.9276221 141.745388,12.1272648 C142.587048,11.523841 143.591416,11.1877523 144.627365,11.1628773 C145.303339,11.1493048 145.974052,11.2840765 146.592118,11.5576705 C147.145209,11.810289 147.622253,12.2032949 147.975637,12.6974625 C148.350978,13.2356876 148.62651,13.8367829 148.789133,14.472167 C148.997312,15.3620817 149.091006,16.2748556 149.067948,17.1884216 L149.067948,28.7351659 C149.064285,28.8415568 149.097146,28.9460037 149.161087,29.0312011 C149.242347,29.1255969 149.346727,29.1973613 149.464047,29.2394966 C149.651919,29.3081517 149.847845,29.35244 150.047018,29.371275 C150.365099,29.4032637 150.684698,29.4178071 151.004375,29.4148398 C151.315791,29.4174936 151.627116,29.4029498 151.936923,29.371275 C152.136297,29.3524374 152.332427,29.3081499 152.520512,29.2394966 C152.6376,29.197174 152.741893,29.125653 152.823473,29.0317364 C152.887463,28.9463207 152.920514,28.8417529 152.917216,28.7351455 L152.917216,16.712942 C152.938101,15.5009422 152.809034,14.2910031 152.532944,13.1105693 L152.532944,13.1105693 Z M107.907953,8.5048875 C107.720096,8.43555628 107.523852,8.39142091 107.32436,8.3736375 C107.006538,8.34083562 106.687103,8.32610955 106.367605,8.32953068 C106.056368,8.32645707 105.74521,8.34118347 105.435661,8.3736375 C105.232677,8.39243646 105.032851,8.43652936 104.840842,8.5048875 C104.718821,8.54392609 104.612334,8.62056472 104.536676,8.72379545 C104.483658,8.80935527 104.45568,8.90801664 104.455907,9.00862159 L104.455907,28.7351659 C104.452443,28.8397012 104.480588,28.9428561 104.536676,29.0312011 C104.615306,29.1290155 104.721118,29.2014767 104.840842,29.2394966 C105.033058,29.3072349 105.232785,29.3514833 105.435661,29.371275 C105.745266,29.4029375 106.05639,29.4174813 106.367605,29.4148398 C106.687082,29.4178236 107.006482,29.4032801 107.32436,29.371275 C107.523745,29.3525012 107.719885,29.3082119 107.907953,29.2394966 C108.025441,29.1970227 108.130131,29.1253301 108.212119,29.0312011 C108.275355,28.9456762 108.307952,28.8414128 108.30467,28.7351659 L108.30467,9.00862159 C108.304291,8.90637455 108.271935,8.8067979 108.212119,8.72379545 C108.13288,8.62423654 108.027616,8.54847783 107.907953,8.5048875 Z M99.5879903,11.1840239 C98.9087903,10.2230624 98.0091562,9.43822846 96.9641906,8.89504091 C95.7572139,8.29654083 94.4213749,8.00333406 93.0742168,8.04122045 C92.4811653,8.03834038 91.8894346,8.09730925 91.3086583,8.21716705 C90.732285,8.34020815 90.1715362,8.52732297 89.6369044,8.77501023 C89.0383449,9.05413623 88.4668773,9.38782485 87.9297762,9.77182841 C87.291852,10.2286017 86.6901607,10.7337957 86.1300522,11.2829182 L86.1300522,1.35027273 C86.1322623,1.24100679 86.0996481,1.13386386 86.0369135,1.04429659 C85.9581945,0.94431777 85.853052,0.868287992 85.7333485,0.824785227 C85.5453891,0.755100981 85.3488983,0.710955643 85.1491549,0.693535227 C84.831752,0.660482836 84.5127169,0.645555114 84.1936084,0.648825 C83.8819568,0.645902649 83.5703938,0.660830584 83.2604553,0.693535227 C83.0574461,0.712039168 82.857603,0.756140233 82.6656985,0.824785227 C82.543806,0.863433118 82.4374555,0.939913581 82.3621335,1.04308977 C82.3065194,1.1357698 82.2783095,1.24226577 82.2805893,1.35027273 L82.2805893,28.7351591 C82.2782805,28.8417735 82.3023833,28.9473322 82.3509044,29.042342 C82.414851,29.1439248 82.5145053,29.2179992 82.6303275,29.2500409 C82.8046793,29.3087447 82.9846236,29.3493703 83.1673131,29.371275 C83.4306108,29.4025777 83.6956368,29.4171287 83.9607854,29.4148398 C84.2294605,29.4177568 84.4980407,29.4032044 84.7648209,29.371275 C84.9433383,29.3485056 85.1191122,29.3078903 85.2894948,29.2500409 C85.4094816,29.2131959 85.5155083,29.1410058 85.5936643,29.042942 C85.6561676,28.9528394 85.6885592,28.8453299 85.6862156,28.7357591 L85.6862156,26.3302432 C86.2288743,26.8742842 86.8028116,27.386318 87.4051126,27.8637443 C87.9124101,28.2647625 88.4568053,28.6166548 89.0309288,28.914658 C89.5561137,29.1856619 90.1140101,29.3881715 90.6909105,29.5172114 C91.298301,29.6449644 91.9176687,29.707304 92.5383821,29.7031602 C93.8563619,29.727901 95.1639702,29.4662743 96.3705881,28.9364114 C97.4745671,28.4339192 98.4422614,27.675344 99.193042,26.7238909 C99.9974155,25.6846825 100.589085,24.4976394 100.934336,23.2304011 C101.347539,21.7289537 101.547182,20.1769649 101.527402,18.6200182 C101.534242,17.24854 101.378103,15.8810922 101.062255,14.5463284 C100.788523,13.3424951 100.288237,12.2015102 99.5879903,11.1840239 L99.5879903,11.1840239 Z M97.2418036,21.7587307 C97.0640325,22.6128011 96.7493369,23.4326334 96.309856,24.1866034 C95.9001676,24.8900104 95.3285051,25.4858739 94.6422072,25.9248511 C93.8995694,26.3783823 93.0407458,26.606341 92.170523,26.5809136 C91.0950269,26.5707102 90.0471067,26.2400086 89.1611837,25.6312295 C88.0323601,24.8490429 87.0130095,23.9201614 86.1300556,22.8691193 L86.1300556,15.006508 C86.6569843,14.3619312 87.229893,13.7562125 87.8443045,13.1940852 C88.32499,12.7558676 88.8438072,12.3612414 89.3946112,12.0148807 C89.8504433,11.7280533 90.3448963,11.5075309 90.8630594,11.3599636 C91.3421722,11.2294266 91.8365631,11.1631454 92.3332016,11.162867 C93.213055,11.13156 94.0821437,11.3639627 94.8284916,11.8301318 C95.4998086,12.2782803 96.0520594,12.8824607 96.4377715,13.5907364 C96.8607588,14.3754303 97.148325,15.2256356 97.2884037,16.1056773 C97.4534758,17.0737389 97.5355099,18.0540938 97.5336457,19.0360773 C97.5340132,19.9514258 97.4361863,20.8641837 97.241807,21.7587307 L97.2418036,21.7587307 Z" id="_Compound_Path_"></path>
                                        <g id="_Group_6" transform="translate(103.138393, 0.000000)">
                                            <ellipse id="_Path_10" transform="translate(3.241866, 3.100601) rotate(-76.304890) translate(-3.241866, -3.100601) " cx="3.24186635" cy="3.1006015" rx="2.45132986" ry="2.45521649"></ellipse>
                                        </g>
                                    </g>
                                </g>
                            </g>
                        </g>
                    </g>
                </g>
            </g>
        </g>
    </g>
</svg>